<?xml version="1.0" encoding="utf-8"?>
<!-- Generator: Adobe Illustrator 15.0.0, SVG Export Plug-In . SVG Version: 6.00 Build 0)  -->
<!DOCTYPE svg PUBLIC "-//W3C//DTD SVG 1.1//EN" "http://www.w3.org/Graphics/SVG/1.1/DTD/svg11.dtd">
<svg version="1.1" id="Layer_1" xmlns="http://www.w3.org/2000/svg" xmlns:xlink="http://www.w3.org/1999/xlink" x="0px" y="0px"
	 viewBox="164.26 210.272 171.36 337.681" preserveAspectRatio="none" xml:space="preserve">
<!-- original values: width="592.6489px" height="1167.8705px" (no preserveAspectRatio) -->
<g>
	<rect x="164.669" y="210.202" fill="#808285" width="481.132" height="500.414"/>
	<path opacity="0.2" fill="#FFFFFF" d="M311.914,209.565C288.996,320.418,214.85,579.73,165.442,704.484
		c0.19-72.521-0.192-494.001-0.192-494.001S222.823,210.183,311.914,209.565z"/>
</g>
<g>
	<g>
		<path fill="#FFFFFF" d="M28.534,58.739v676h649v-676H28.534z M335.486,531.039c0,9.432-7.646,17.08-17.079,17.08H181.748
			c-9.433,0-17.079-7.648-17.079-17.08V227.644c0-9.433,7.646-17.079,17.079-17.079h136.659c9.433,0,17.079,7.646,17.079,17.079
			V531.039z"/>
	</g>
</g>
<g>
	<path d="M327.899,491.029c0,4.257-3.204,7.707-7.156,7.707H178.325c-3.952,0-7.156-3.45-7.156-7.707V240.935
		c0-4.255,3.204-7.706,7.156-7.706h142.418c3.952,0,7.156,3.451,7.156,7.706V491.029z"/>
	<path fill="#58595B" d="M291.659,224.561c0,0.684-0.555,1.237-1.238,1.237h-81.772c-0.685,0-1.239-0.553-1.239-1.237l0,0
		c0-0.684,0.555-1.238,1.239-1.238h81.772C291.104,223.323,291.659,223.877,291.659,224.561L291.659,224.561z"/>
	<rect x="179.843" y="255.517" fill="#BCBEC0" width="139.383" height="222.482"/>
</g>
<g>
	<path fill="none" stroke="#58595B" stroke-width="0.7574" stroke-miterlimit="10" d="M335.413,530.771
		c0,9.511-7.734,17.224-17.274,17.224H181.943c-9.54,0-17.274-7.713-17.274-17.224V227.854c0-9.512,7.734-17.223,17.274-17.223
		h136.196c9.54,0,17.274,7.711,17.274,17.223V530.771z"/>
	<path d="M327.967,491.235c0,4.26-3.205,7.713-7.159,7.713H178.334c-3.954,0-7.159-3.453-7.159-7.713V240.964
		c0-4.258,3.205-7.711,7.159-7.711h142.474c3.954,0,7.159,3.453,7.159,7.711V491.235z"/>
	<path fill="#58595B" d="M291.712,224.579c0,0.685-0.555,1.238-1.238,1.238h-81.805c-0.685,0-1.24-0.554-1.24-1.238l0,0
		c0-0.685,0.555-1.239,1.24-1.239h81.805C291.158,223.34,291.712,223.895,291.712,224.579L291.712,224.579z"/>
</g>
<rect id="DeviceRect" x="164.26" y="210.272" display="none" fill="none" stroke="#000000" stroke-miterlimit="10" width="171.36" height="337.681"/>
<path fill="none" stroke="#BCBEC0" stroke-width="0.7556" stroke-miterlimit="10" d="M181.998,546.851
	c-9.102,0-16.505-7.384-16.505-16.458V228.19c0-9.075,7.404-16.458,16.505-16.458h135.869c9.102,0,16.506,7.383,16.506,16.458
	v302.203c0,9.074-7.405,16.458-16.506,16.458H181.998z"/>
<path fill="none" stroke="#BCBEC0" stroke-width="0.7556" stroke-miterlimit="10" d="M181.998,546.128
	c-8.702,0-15.779-7.061-15.779-15.735V228.19c0-8.676,7.078-15.734,15.779-15.734h135.869c8.702,0,15.78,7.058,15.78,15.734v302.203
	c0,8.675-7.079,15.735-15.78,15.735H181.998z"/>
<rect id="ScreenRect" x="180.546" y="249.625" display="inline" fill="#FFFFFF" width="138.788" height="231.314"/>
<rect id="ResolutionRect" x="180.546" y="249.625" display="none" fill="none" width="480" height="800"/>
</svg>
