<?xml version="1.0" encoding="utf-8"?>
<!-- Generator: Adobe Illustrator 15.0.0, SVG Export Plug-In . SVG Version: 6.00 Build 0)  -->
<!DOCTYPE svg PUBLIC "-//W3C//DTD SVG 1.1//EN" "http://www.w3.org/Graphics/SVG/1.1/DTD/svg11.dtd">
<svg version="1.1" id="Layer_1" xmlns="http://www.w3.org/2000/svg" xmlns:xlink="http://www.w3.org/1999/xlink" x="0px" y="0px"
	 width="1522.9786px" height="1094.3127px" preserveAspectRatio="none" xml:space="preserve">
<!-- For portrait: width="1094.3127px" height="1522.9786px" viewBox="24.826 80.306 475.654 706.11" -->
<!-- For portrait, corresponding transform: <g transform="scale(2.30065 2.15686) translate(-24.826 -80.306)" --> 
<g transform="scale(2.15686 2.30065) rotate(90) translate(-24.826 -786.416)">  <!-- rotate to landscape -->

<rect x="5.561" y="13.298" fill="#808285" width="552" height="812.001"/>
<g>
	<rect x="24.125" y="79.892" fill="#808285" width="500.281" height="500.413"/>
	<path opacity="0.2" fill="#FFFFFF" d="M177.23,79.255C153.4,190.108,76.303,449.422,24.929,574.176
		c0.198-72.523-0.199-494.002-0.199-494.002S84.594,79.873,177.23,79.255z"/>
</g>
<g>
	<g>
		<path fill="#FFFFFF" d="M723.732,4.23h-720v831h721L723.732,4.23z M500.732,738.23c0,26.51-21.49,48-48,48h-379
			c-26.51,0-48-21.49-48-48v-609c0-26.51,21.49-48,48-48h379c26.51,0,48,21.49,48,48V738.23z"/>
	</g>
</g>
<path fill="none" stroke="#8A8C8E" stroke-width="4.062" stroke-miterlimit="10" d="M75.329,781.705
	c-24.528,0-44.482-19.264-44.482-42.943V129.124c0-23.679,19.954-42.943,44.482-42.943h375.17c24.527,0,44.482,19.265,44.482,42.943
	v609.638c0,23.68-19.955,42.943-44.482,42.943H75.329z"/>
<rect id="ScreenRect" x="90.099" y="136.281" display="inline" fill="#FFFFFF" width="347.728" height="593.456"/>
<path fill="none" stroke="#000000" stroke-width="1.0151" stroke-miterlimit="10" d="M499.718,738.762
	c0,26.451-22.191,47.894-49.567,47.894H75.299c-27.375,0-49.567-21.442-49.567-47.894V129.124c0-26.451,22.192-47.893,49.567-47.893
	H450.15c27.376,0,49.567,21.442,49.567,47.893V738.762z"/>
<rect id="DeviceRect" x="24.826" y="80.306" display="none" fill="none" stroke="#000000" stroke-miterlimit="10" width="475.654" height="706.11"/>
<rect id="ResolutionRect" x="293.495" y="300.051" display="none" width="800" height="1280" fill="none"/>
</g>
</svg>
