<?xml version="1.0" encoding="utf-8"?>
<!-- Generator: Adobe Illustrator 15.0.0, SVG Export Plug-In . SVG Version: 6.00 Build 0)  -->
<!DOCTYPE svg PUBLIC "-//W3C//DTD SVG 1.1//EN" "http://www.w3.org/Graphics/SVG/1.1/DTD/svg11.dtd" [
	<!ENTITY ns_extend "http://ns.adobe.com/Extensibility/1.0/">
	<!ENTITY ns_ai "http://ns.adobe.com/AdobeIllustrator/10.0/">
	<!ENTITY ns_graphs "http://ns.adobe.com/Graphs/1.0/">
	<!ENTITY ns_vars "http://ns.adobe.com/Variables/1.0/">
	<!ENTITY ns_imrep "http://ns.adobe.com/ImageReplacement/1.0/">
	<!ENTITY ns_sfw "http://ns.adobe.com/SaveForWeb/1.0/">
	<!ENTITY ns_custom "http://ns.adobe.com/GenericCustomNamespace/1.0/">
	<!ENTITY ns_adobe_xpath "http://ns.adobe.com/XPath/1.0/">
]>
<svg version="1.1" id="Layer_1" xmlns:x="&ns_extend;" xmlns:i="&ns_ai;" xmlns:graph="&ns_graphs;"
	 xmlns="http://www.w3.org/2000/svg" xmlns:xlink="http://www.w3.org/1999/xlink" x="0px" y="0px" width="16px" height="16px"
	 viewBox="0 0 16 16" enable-background="new 0 0 16 16" xml:space="preserve" preserveAspectRatio="none">
	<path fill="none" stroke="#333333" stroke-miterlimit="10" d="M11.813,7.433H9.677V2.17c0-0.924-0.749-1.67-1.67-1.67
		c-0.924,0-1.67,0.746-1.67,1.67v5.263H4.195c-0.002,0-0.006,0-0.01,0c-0.661,0-1.199,0.537-1.199,1.199
		c0,0.297,0.109,0.569,0.288,0.778l3.734,5.559C7.231,15.301,7.606,15.5,8.004,15.5s0.773-0.199,0.997-0.531l3.809-5.668
		c0.248-0.368,0.271-0.841,0.063-1.233C12.665,7.677,12.258,7.433,11.813,7.433z"/>
</svg>
