<?xml version="1.0" encoding="utf-8"?>
<!-- Generator: Adobe Illustrator 15.0.0, SVG Export Plug-In . SVG Version: 6.00 Build 0)  -->
<!DOCTYPE svg PUBLIC "-//W3C//DTD SVG 1.1//EN" "http://www.w3.org/Graphics/SVG/1.1/DTD/svg11.dtd">
<svg version="1.1" id="Layer_1" xmlns="http://www.w3.org/2000/svg" xmlns:xlink="http://www.w3.org/1999/xlink" x="0px" y="0px"
	 width="794.84832px" height="438px" preserveAspectRatio="none" xml:space="preserve">
<!-- For portrait: width="438px" height="794.84832px" viewBox="231.071 200.047 176.4 318.96" -->
<!-- For portrait, corresponding transform: <g transform="scale(2.483 2.492) translate(-231.071 -200.047)" --> 
<g transform="scale(2.492 2.483) rotate(90) translate(-231.071 -519.007)">  <!-- rotate to landscape -->

<g>
	<radialGradient id="SVGID_1_" cx="85.772" cy="64.0532" r="400.3684" gradientUnits="userSpaceOnUse">
		<stop  offset="0.0121" style="stop-color:#A7A9AC"/>
		<stop  offset="0.1758" style="stop-color:#58595B"/>
		<stop  offset="0.9212" style="stop-color:#000000"/>
	</radialGradient>
	<rect x="230.334" y="200.886" fill="url(#SVGID_1_)" width="500" height="500"/>
</g>
<g>
	<g>
		<path fill="#FFFFFF" d="M153.523,168.825v578.878H744.35V168.825H153.523z M401.946,505.354c0,0.617-0.15,2.26-0.412,2.912
			c-2.643,4.254-10.322,11.617-21.283,11.088h-120.34c-12.731-1.592-20.996-8.086-22.16-13.17v-289.25
			c0.006,0.026,0.019,0.053,0.026,0.079l-0.026-2.582c0.445-4.848,9.429-11.578,22.16-13.169h120.34
			c10.961-0.53,18.641,6.833,21.283,11.087c0.262,0.653,0.412,1.296,0.412,1.913V505.354z"/>
	</g>
</g>
<g>
	<g>
		<path d="M237.289,238.029v175.018c-0.006,0.039-0.025,0.074-0.025,0.113v36.162c0,0.488,0.438,0.883,0.979,0.883h161.901
			c0.541,0,0.979-0.395,0.979-0.883V238.029H237.289z"/>
	</g>
</g>
<g>
	<g>
		<path fill="#D1D3D4" d="M383.286,200.906H255.574c-9.043,1.838-21.567,7.246-24,20.474v277.731
			c0.019,13.204,21.478,20.474,27,20.474h124.712c5.523,0,23.725-8.098,24-20.474V221.38
			C407.414,208.41,388.81,200.906,383.286,200.906z M401.528,505.403c0,0.632-0.15,1.289-0.412,1.957
			c-2.643,4.354-10.322,11.893-21.283,11.351h-120.34c-12.731-1.629-20.996-8.277-22.16-13.481V217.313
			c0.006,0.027,0.019,0.054,0.026,0.081l-0.026-2.644c0.445-4.962,9.429-11.853,22.16-13.481h120.34
			c10.961-0.542,18.641,6.995,21.283,11.35c0.262,0.669,0.412,1.327,0.412,1.958V505.403z"/>
	</g>
	<g>
		<path fill="none" stroke="#000000" stroke-width="1.0118" stroke-miterlimit="10" d="M383.286,200.906H255.574
			c-9.043,1.838-21.567,7.246-24,20.474v277.731c0.019,13.204,21.478,20.474,27,20.474h124.712c5.523,0,23.725-8.098,24-20.474
			V221.38C407.414,208.41,388.81,200.906,383.286,200.906z M401.528,505.403c0,0.632-0.15,1.289-0.412,1.957
			c-2.643,4.354-10.322,11.893-21.283,11.351h-120.34c-12.731-1.629-20.996-8.277-22.16-13.481V217.313
			c0.006,0.027,0.019,0.054,0.026,0.081l-0.026-2.644c0.445-4.962,9.429-11.853,22.16-13.481h120.34
			c10.961-0.542,18.641,6.995,21.283,11.35c0.262,0.669,0.412,1.327,0.412,1.958V505.403z"/>
	</g>
</g>
<linearGradient id="SVGID_2_" gradientUnits="userSpaceOnUse" x1="319.2822" y1="226.6274" x2="319.2822" y2="211.2432">
	<stop  offset="0" style="stop-color:#282829"/>
	<stop  offset="1" style="stop-color:#58595B"/>
</linearGradient>
<path fill="url(#SVGID_2_)" stroke="#58595B" stroke-width="0.9403" stroke-miterlimit="10" d="M342.547,219.167
	c0,2.213-1.793,4.006-4.006,4.006h-38.518c-2.213,0-4.006-1.793-4.006-4.006l0,0c0-2.213,1.793-4.008,4.006-4.008h38.518
	C340.754,215.159,342.547,216.954,342.547,219.167L342.547,219.167z"/>
<g>
	<g>
		<path fill="#6D6E71" d="M236.615,499.869c-1.365-2.044-2.198-4.313-2.201-6.806V224.88c0.419-2.292,1.185-4.336,2.201-6.166
			v-3.453c0.006,0.027,0.02,0.054,0.026,0.081l-0.021-2.096c-1.905,2.467-3.328,5.402-3.967,8.896v273.659
			c0.005,3.5,1.608,6.572,4.042,9.2c-0.023-0.085-0.062-0.173-0.081-0.257V499.869z M401.771,212.153
			c0.01,0.119,0.04,0.241,0.04,0.358v4.887c1.385,2.225,2.227,4.725,2.2,7.482v268.183c-0.056,2.53-0.886,4.873-2.2,6.997v4.859
			c0,0.138-0.033,0.28-0.047,0.42c2.338-2.755,3.929-5.964,4.008-9.538V222.143C405.809,218.309,404.191,214.963,401.771,212.153z"
			/>
	</g>
	<g>
		<path fill="none" stroke="#939598" stroke-width="0.5073" stroke-miterlimit="10" d="M236.615,499.869
			c-1.365-2.044-2.198-4.313-2.201-6.806V224.88c0.419-2.292,1.185-4.336,2.201-6.166v-3.453c0.006,0.027,0.02,0.054,0.026,0.081
			l-0.021-2.096c-1.905,2.467-3.328,5.402-3.967,8.896v273.659c0.005,3.5,1.608,6.572,4.042,9.2
			c-0.023-0.085-0.062-0.173-0.081-0.257V499.869z M401.771,212.153c0.01,0.119,0.04,0.241,0.04,0.358v4.887
			c1.385,2.225,2.227,4.725,2.2,7.482v268.183c-0.056,2.53-0.886,4.873-2.2,6.997v4.859c0,0.138-0.033,0.28-0.047,0.42
			c2.338-2.755,3.929-5.964,4.008-9.538V222.143C405.809,218.309,404.191,214.963,401.771,212.153z"/>
	</g>
</g>
<g>
	<g>
		<path fill="none" stroke="#000000" stroke-width="0.7555" stroke-miterlimit="10" d="M400.406,212.632
			c-2.623-4.347-10.25-11.872-21.135-11.33H259.763c-12.644,1.626-21.564,8.503-22.007,13.458l0.025,2.637
			c-0.006-0.026-0.019-0.053-0.025-0.079v285.872c0.053-0.237,0.141-0.471,0.223-0.706c1.723,5.068,9.729,11.171,21.784,12.721
			h119.509c10.885,0.541,18.512-6.983,21.135-11.33c0.26-0.667,0.409-1.323,0.409-1.954V214.587
			C400.815,213.957,400.666,213.3,400.406,212.632z M319.517,488.913c-24.73,0-46.889-0.329-61.905,1.445
			c15.016-4.56,37.175-7.445,61.905-7.445c23.753,0,45.131,2.663,60.087,6.913C364.647,488.36,343.27,488.913,319.517,488.913z"/>
	</g>
</g>
<rect id="ScreenRect" x="247.053" y="246.733" display="inline" fill="#FFFFFF" width="144.462" height="192.617"/>
<rect id="DeviceRect" x="231.071" y="200.047" display="none" fill="none" stroke="#000000" stroke-miterlimit="10" width="176.4" height="318.96"/>
<rect id="ResolutionRect" x="247.053" y="246.733" display="none" fill="none" width="360" height="480"/>
</g>
</svg>
