<?xml version="1.0" encoding="utf-8"?>
<!-- Generator: Adobe Illustrator 15.0.0, SVG Export Plug-In . SVG Version: 6.00 Build 0)  -->
<!DOCTYPE svg PUBLIC "-//W3C//DTD SVG 1.1//EN" "http://www.w3.org/Graphics/SVG/1.1/DTD/svg11.dtd">
<svg version="1.1" id="Layer_1" xmlns="http://www.w3.org/2000/svg" xmlns:xlink="http://www.w3.org/1999/xlink" x="0px" y="0px"
	 width="398.97px" height="365.397px" viewBox="0 0 398.97 365.397" enable-background="new 0 0 398.97 365.397"
	 xml:space="preserve" preserveAspectRatio="none">
<g>
	<g>
		<g>
			<path fill="#FFFFFF" d="M20.589,363.079c-10.056,0-18.262-8.172-18.262-18.221V20.539c0-10.05,8.206-18.202,18.262-18.202H378.38
				c10.065,0,18.262,8.152,18.262,18.202v324.32c0,10.049-8.196,18.221-18.262,18.221H20.589z"/>
			<path fill="#333333" d="M378.38,364.565H20.589c-10.888,0-19.747-8.84-19.747-19.707V20.539c0-10.855,8.858-19.687,19.747-19.687
				H378.38c10.889,0,19.747,8.832,19.747,19.687v324.32C398.127,355.726,389.269,364.565,378.38,364.565z M20.589,3.821
				c-9.25,0-16.777,7.5-16.777,16.717v324.32c0,9.229,7.526,16.736,16.777,16.736H378.38c9.251,0,16.776-7.508,16.776-16.736V20.539
				c0-9.218-7.525-16.717-16.776-16.717H20.589z"/>
		</g>
		<g>
			<path fill="#FFFFFF" d="M20.589,363.913c-10.533,0-19.104-8.555-19.104-19.055V20.539c0-10.506,8.571-19.054,19.104-19.054
				H378.38c10.54,0,19.104,8.548,19.104,19.054v324.32c0,10.5-8.564,19.055-19.104,19.055H20.589z"/>
			<path fill="#333333" d="M378.38,365.397H20.589C9.236,365.397,0,356.185,0,344.858V20.539C0,9.213,9.236,0,20.589,0H378.38
				c11.354,0,20.59,9.213,20.59,20.539v324.32C398.97,356.185,389.734,365.397,378.38,365.397z M20.589,2.97
				c-9.715,0-17.62,7.881-17.62,17.569v324.32c0,9.688,7.904,17.568,17.62,17.568H378.38c9.716,0,17.619-7.881,17.619-17.568V20.539
				c0-9.688-7.903-17.569-17.619-17.569H20.589z"/>
		</g>
	</g>
	<g>
		<line fill="#FFFFFF" x1="2.328" y1="28.3" x2="396.642" y2="28.3"/>
		<rect x="2.328" y="26.815" fill="#333333" width="394.314" height="2.97"/>
	</g>
	<g>
		<line fill="#FFFFFF" x1="2.328" y1="51.706" x2="396.642" y2="51.706"/>
		<rect x="2.328" y="50.221" fill="#333333" width="394.314" height="2.97"/>
	</g>
	<g>
		<g>
			<path fill="#333333" d="M9.585,47.367l3.19-13.324h1.854l-3.226,13.324H9.585z"/>
			<path fill="#333333" d="M11.7,47.742H9.11l3.37-14.074h2.627L11.7,47.742z M10.061,46.992h1.049l3.044-12.574h-1.082
				L10.061,46.992z"/>
		</g>
		<g>
			<path fill="#333333" d="M15.586,47.367l3.19-13.324h1.854l-3.226,13.324H15.586z"/>
			<path fill="#333333" d="M17.701,47.742h-2.59l3.37-14.074h2.627L17.701,47.742z M16.062,46.992h1.049l3.044-12.574h-1.082
				L16.062,46.992z"/>
		</g>
		<g>
			<path fill="#333333" d="M21.906,47.147v-2.47h2.47v2.47H21.906z"/>
			<path fill="#333333" d="M24.625,47.397h-2.97v-2.97h2.97V47.397z M22.156,46.897h1.97v-1.97h-1.97V46.897z"/>
		</g>
		<g>
			<path fill="#333333" d="M27.907,47.147v-2.47h2.47v2.47H27.907z"/>
			<path fill="#333333" d="M30.626,47.397h-2.97v-2.97h2.97V47.397z M28.157,46.897h1.97v-1.97h-1.97V46.897z"/>
		</g>
		<g>
			<path fill="#333333" d="M33.908,47.147v-2.47h2.47v2.47H33.908z"/>
			<path fill="#333333" d="M36.627,47.397h-2.97v-2.97h2.97V47.397z M34.158,46.897h1.97v-1.97h-1.97V46.897z"/>
		</g>
	</g>
	<g>
		<g>
			<path fill="#333333" d="M367.255,21.081h-6.982c-1.081,0-1.961-0.859-1.961-1.914v-6.655c0-1.053,0.88-1.91,1.961-1.91h6.982
				c1.077,0,1.954,0.857,1.954,1.91v6.655C369.209,20.222,368.333,21.081,367.255,21.081z M367.229,12.511l-6.956,0.07l0.02,6.585
				l6.963-0.066c0.003,0,0.004,0,0.004,0L367.229,12.511z"/>
		</g>
		<g>
			<path fill="#333333" d="M380.431,21.081h-6.98c-1.082,0-1.962-0.859-1.962-1.914v-6.655c0-1.053,0.88-1.91,1.962-1.91h6.98
				c1.079,0,1.957,0.857,1.957,1.91v6.655C382.388,20.222,381.51,21.081,380.431,21.081z M380.408,12.511l-6.957,0.07l0.019,6.585
				l6.962-0.066c0.004,0,0.006,0,0.006,0L380.408,12.511z"/>
		</g>
		<g>
			<path fill="#333333" d="M354.076,21.081h-6.981c-1.081,0-1.96-0.859-1.96-1.914v-6.655c0-1.053,0.879-1.91,1.96-1.91h6.981
				c1.078,0,1.956,0.857,1.956,1.91v6.655C356.032,20.222,355.154,21.081,354.076,21.081z M354.051,12.511l-6.957,0.07l0.021,6.585
				l6.961-0.066c0.004,0,0.006,0,0.006,0L354.051,12.511z"/>
		</g>
	</g>
</g>
</svg>
