<?xml version="1.0" encoding="utf-8"?>
<!-- Generator: Adobe Illustrator 15.0.0, SVG Export Plug-In . SVG Version: 6.00 Build 0)  -->
<!DOCTYPE svg PUBLIC "-//W3C//DTD SVG 1.1//EN" "http://www.w3.org/Graphics/SVG/1.1/DTD/svg11.dtd">
<svg version="1.1" id="Layer_1" xmlns="http://www.w3.org/2000/svg" xmlns:xlink="http://www.w3.org/1999/xlink" x="0px" y="0px"
	 width="30px" height="30px" viewBox="0 0 16 16" enable-background="new 0 0 16 16" xml:space="preserve">
<g>
	<g>
		<path fill="#3A3A3A" d="M4.30078,15.85547c-0.42773,0-0.77832-0.3457-0.77832-0.77344V0.91748
			c0-0.42676,0.35059-0.7749,0.77832-0.7749h7.39941c0.42676,0,0.77734,0.34814,0.77734,0.7749v14.16455
			c0,0.42773-0.35059,0.77344-0.77734,0.77344H4.30078z"/>
		<g>
			<g>
				<path fill="#FCFCFC" stroke="#231F20" stroke-width="0.19283" stroke-miterlimit="10" d="M12.01563,13.70898
					c0,0.21094-0.1582,0.37988-0.35059,0.37988H4.29688c-0.19336,0-0.35156-0.16895-0.35156-0.37988V2.11035
					c0-0.20947,0.1582-0.38037,0.35156-0.38037h7.36816c0.19238,0,0.35059,0.1709,0.35059,0.38037V13.70898z"/>
				<path fill="#FFFFFF" d="M11.66504,14.12402H4.29688c-0.21289,0-0.38672-0.18555-0.38672-0.41504V2.11035
					c0-0.229,0.17383-0.41455,0.38672-0.41455h7.36816c0.21191,0,0.38574,0.18555,0.38574,0.41455v11.59863
					C12.05078,13.93848,11.87695,14.12402,11.66504,14.12402z"/>
			</g>
			<path fill="#FCFCFC" d="M10.41016,0.99707c0,0.03418-0.02637,0.0625-0.0625,0.0625H5.61328
				c-0.03516,0-0.06055-0.02832-0.06055-0.0625l0,0c0-0.03369,0.02539-0.06055,0.06055-0.06055h4.73438
				C10.38379,0.93652,10.41016,0.96338,10.41016,0.99707L10.41016,0.99707z"/>
		</g>
		<path fill="#3A3A3A" d="M11.7002,16H4.30078c-0.50684,0-0.91992-0.41113-0.91992-0.91797V0.91748
			C3.38086,0.4126,3.79395,0,4.30078,0h7.39941c0.50684,0,0.91895,0.4126,0.91895,0.91748v14.16455
			C12.61914,15.58887,12.20703,16,11.7002,16z M4.30078,0.21582c-0.38867,0-0.70508,0.31445-0.70508,0.70166v14.16455
			c0,0.3877,0.31641,0.70313,0.70508,0.70313h7.39941c0.3877,0,0.70215-0.31543,0.70215-0.70313V0.91748
			c0-0.38721-0.31445-0.70166-0.70215-0.70166H4.30078z"/>
	</g>
</g>
</svg>
