<?xml version="1.0" encoding="utf-8"?>
<!-- Generator: Adobe Illustrator 15.0.0, SVG Export Plug-In . SVG Version: 6.00 Build 0)  -->
<!DOCTYPE svg PUBLIC "-//W3C//DTD SVG 1.1//EN" "http://www.w3.org/Graphics/SVG/1.1/DTD/svg11.dtd" [
	<!ENTITY ns_extend "http://ns.adobe.com/Extensibility/1.0/">
	<!ENTITY ns_ai "http://ns.adobe.com/AdobeIllustrator/10.0/">
	<!ENTITY ns_graphs "http://ns.adobe.com/Graphs/1.0/">
	<!ENTITY ns_vars "http://ns.adobe.com/Variables/1.0/">
	<!ENTITY ns_imrep "http://ns.adobe.com/ImageReplacement/1.0/">
	<!ENTITY ns_sfw "http://ns.adobe.com/SaveForWeb/1.0/">
	<!ENTITY ns_custom "http://ns.adobe.com/GenericCustomNamespace/1.0/">
	<!ENTITY ns_adobe_xpath "http://ns.adobe.com/XPath/1.0/">
]>
<svg version="1.1" id="Layer_1" xmlns:x="&ns_extend;" xmlns:i="&ns_ai;" xmlns:graph="&ns_graphs;"
	 xmlns="http://www.w3.org/2000/svg" xmlns:xlink="http://www.w3.org/1999/xlink" x="0px" y="0px" width="16px" height="16px"
	 viewBox="0 0 16 16" enable-background="new 0 0 16 16" xml:space="preserve" preserveAspectRatio="none">
	<g>
		<path fill="none" stroke="#333333" d="M-6.457,11.688h-8.199c-1.877,0-3.4,1.6-3.4,3.572v7.855c0,1.974,1.523,3.572,3.4,3.572
			h8.199c1.878,0,3.4-1.599,3.4-3.572v-7.855C-3.057,13.288-4.579,11.688-6.457,11.688z"/>
	</g>
	<path fill="none" stroke="#333333" stroke-miterlimit="10" d="M-5.019,21.741l-2.52-2.552l2.365-2.397
		c0.496-0.503,0.496-1.318,0-1.82c-0.496-0.504-1.301-0.504-1.797,0l-2.365,2.397l-2.52-2.555c-0.496-0.503-1.3-0.503-1.797,0
		c-0.496,0.503-0.496,1.318,0,1.821l2.521,2.554l-2.365,2.396c-0.496,0.503-0.496,1.318,0,1.821
		c0.248,0.252,0.575,0.377,0.898,0.377c0.324,0,0.65-0.125,0.898-0.377l2.363-2.396l2.52,2.553
		c0.248,0.252,0.574,0.378,0.898,0.378s0.65-0.126,0.898-0.378C-4.522,23.061-4.522,22.244-5.019,21.741z"/>
	<g>
		<g>
			<path fill="none" stroke="#333333" d="M2.786,14.835v-3.717H2.007c-0.83,0-1.507-0.674-1.507-1.506V2.123
				c0-0.831,0.677-1.507,1.507-1.507h11.986c0.831,0,1.507,0.676,1.507,1.507v7.489c0,0.832-0.676,1.506-1.507,1.506H6.603
				L2.786,14.835z"/>
		</g>
	</g>
	<path fill="none" stroke="#333333" stroke-miterlimit="10" d="M13.15,148.29l-5.668,3.808c-0.367,0.248-0.841,0.271-1.232,0.063
		c-0.391-0.208-0.635-0.613-0.635-1.058v-2.139H0.352c-0.923,0-1.67-0.747-1.67-1.67c0-0.922,0.747-1.67,1.67-1.67h5.264v-2.138
		c0-0.444,0.244-0.851,0.635-1.06c0.177-0.093,0.37-0.14,0.564-0.14c0.234,0,0.467,0.067,0.669,0.204l5.668,3.809
		c0.331,0.222,0.53,0.595,0.53,0.995C13.682,147.693,13.482,148.067,13.15,148.29z"/>
	<path fill="none" stroke="#333333" stroke-miterlimit="10" d="M-0.788,211.714l5.668-3.808c0.201-0.137,0.435-0.204,0.669-0.204
		c0.193,0,0.387,0.047,0.564,0.141c0.391,0.209,0.635,0.614,0.635,1.059v2.139h5.264c0.922,0,1.67,0.747,1.67,1.67
		c0,0.922-0.748,1.67-1.67,1.67H6.748v2.138c0,0.444-0.244,0.85-0.635,1.059c-0.392,0.208-0.865,0.185-1.233-0.063l-5.668-3.809
		c-0.331-0.222-0.53-0.595-0.53-0.995C-1.318,212.311-1.119,211.937-0.788,211.714z"/>
</svg>
