<?xml version="1.0" encoding="utf-8"?>
<!-- Generator: Adobe Illustrator 15.0.0, SVG Export Plug-In . SVG Version: 6.00 Build 0)  -->
<!DOCTYPE svg PUBLIC "-//W3C//DTD SVG 1.1//EN" "http://www.w3.org/Graphics/SVG/1.1/DTD/svg11.dtd" [
	<!ENTITY ns_extend "http://ns.adobe.com/Extensibility/1.0/">
	<!ENTITY ns_ai "http://ns.adobe.com/AdobeIllustrator/10.0/">
	<!ENTITY ns_graphs "http://ns.adobe.com/Graphs/1.0/">
	<!ENTITY ns_vars "http://ns.adobe.com/Variables/1.0/">
	<!ENTITY ns_imrep "http://ns.adobe.com/ImageReplacement/1.0/">
	<!ENTITY ns_sfw "http://ns.adobe.com/SaveForWeb/1.0/">
	<!ENTITY ns_custom "http://ns.adobe.com/GenericCustomNamespace/1.0/">
	<!ENTITY ns_adobe_xpath "http://ns.adobe.com/XPath/1.0/">
]>
<svg version="1.1" id="Layer_1" xmlns:x="&ns_extend;" xmlns:i="&ns_ai;" xmlns:graph="&ns_graphs;"
	 xmlns="http://www.w3.org/2000/svg" xmlns:xlink="http://www.w3.org/1999/xlink" x="0px" y="0px" width="16px" height="16px"
	 viewBox="0 0 16 16" enable-background="new 0 0 16 16" xml:space="preserve" preserveAspectRatio="none">
	<g>
		<path fill="none" stroke="#333333" d="M12.1,0.5H3.9c-1.877,0-3.4,1.6-3.4,3.572v7.855c0,1.974,1.523,3.572,3.4,3.572H12.1
			c1.878,0,3.4-1.599,3.4-3.572V4.072C15.5,2.1,13.978,0.5,12.1,0.5z"/>
	</g>
	<path fill="none" stroke="#333333" stroke-miterlimit="10" d="M12.316,10.553L9.797,8l2.365-2.397c0.496-0.503,0.496-1.318,0-1.82
		c-0.496-0.504-1.301-0.504-1.797,0L8,6.18L5.48,3.625c-0.496-0.503-1.3-0.503-1.797,0c-0.496,0.503-0.496,1.318,0,1.821L6.205,8
		L3.84,10.396c-0.496,0.503-0.496,1.318,0,1.821c0.248,0.252,0.575,0.377,0.898,0.377c0.324,0,0.65-0.125,0.898-0.377L8,9.821
		l2.52,2.553c0.248,0.252,0.574,0.378,0.898,0.378s0.65-0.126,0.898-0.378C12.813,11.872,12.813,11.056,12.316,10.553z"/>
</svg>
