<?xml version="1.0" encoding="utf-8"?>
<!-- Generator: Adobe Illustrator 15.0.0, SVG Export Plug-In . SVG Version: 6.00 Build 0)  -->
<!DOCTYPE svg PUBLIC "-//W3C//DTD SVG 1.1//EN" "http://www.w3.org/Graphics/SVG/1.1/DTD/svg11.dtd">
<svg version="1.1" id="Layer_1" xmlns="http://www.w3.org/2000/svg" xmlns:xlink="http://www.w3.org/1999/xlink" x="0px" y="0px"
	 width="50px" height="50px" viewBox="0 0 16 16" enable-background="new 0 0 16 16" xml:space="preserve">
<g>
	
		<path fill="#3A3A3A" stroke="#3A3A3A" stroke-width="0.09217" stroke-linecap="round" stroke-linejoin="round" stroke-miterlimit="10" d="
		M15.30664,10.16602V0.63184H0.69385v9.53418h5.49463v1.14551H4.9917v0.77246h6.01514v-0.77246H9.8125v-1.14551H15.30664z
		 M1.46436,9.39063V1.44629h13.06982v7.94434H1.46436z"/>
	<g>
		<g>
			<polygon fill="#353535" points="16,14.47852 0,14.47852 2.6958,11.25977 12.9502,11.25977 			"/>
		</g>
		<g>
			<g>
				
					<line fill="none" stroke="#C4C4C6" stroke-width="0.3802" stroke-linecap="round" stroke-miterlimit="10" x1="3.55615" y1="11.97852" x2="4.6499" y2="11.97852"/>
				
					<line fill="none" stroke="#C4C4C6" stroke-width="0.3802" stroke-linecap="round" stroke-miterlimit="10" x1="6.02686" y1="11.97852" x2="7.12207" y2="11.97852"/>
				
					<line fill="none" stroke="#C4C4C6" stroke-width="0.3802" stroke-linecap="round" stroke-miterlimit="10" x1="8.49902" y1="11.97852" x2="9.59277" y2="11.97852"/>
				
					<line fill="none" stroke="#C4C4C6" stroke-width="0.3802" stroke-linecap="round" stroke-miterlimit="10" x1="10.9707" y1="11.97852" x2="12.0625" y2="11.97852"/>
			</g>
			<g>
				
					<line fill="none" stroke="#C4C4C6" stroke-width="0.41218" stroke-linecap="round" stroke-miterlimit="10" x1="2.74268" y1="12.83594" x2="4.03955" y2="12.83594"/>
				
					<line fill="none" stroke="#C4C4C6" stroke-width="0.41218" stroke-linecap="round" stroke-miterlimit="10" x1="5.67285" y1="12.83594" x2="6.9707" y2="12.83594"/>
				
					<line fill="none" stroke="#C4C4C6" stroke-width="0.41218" stroke-linecap="round" stroke-miterlimit="10" x1="8.60352" y1="12.83594" x2="9.90039" y2="12.83594"/>
				
					<line fill="none" stroke="#C4C4C6" stroke-width="0.41218" stroke-linecap="round" stroke-miterlimit="10" x1="11.69531" y1="12.83594" x2="12.99023" y2="12.83594"/>
			</g>
			<g>
				
					<line fill="none" stroke="#C4C4C6" stroke-width="0.44415" stroke-linecap="round" stroke-miterlimit="10" x1="1.9292" y1="13.69238" x2="3.4292" y2="13.69238"/>
				
					<line fill="none" stroke="#C4C4C6" stroke-width="0.44415" stroke-linecap="round" stroke-miterlimit="10" x1="5.31885" y1="13.69238" x2="6.81885" y2="13.69238"/>
				
					<line fill="none" stroke="#C4C4C6" stroke-width="0.44415" stroke-linecap="round" stroke-miterlimit="10" x1="8.7085" y1="13.69238" x2="10.20898" y2="13.69238"/>
				
					<line fill="none" stroke="#C4C4C6" stroke-width="0.44415" stroke-linecap="round" stroke-miterlimit="10" x1="12.41895" y1="13.69238" x2="13.91895" y2="13.69238"/>
			</g>
		</g>
		<line fill="none" x1="7.76367" y1="13.69238" x2="7.80957" y2="12.06543"/>
		<line fill="none" x1="7.76758" y1="13.69238" x2="7.76758" y2="11.60352"/>
		<rect y="14.47852" fill="#545454" width="16" height="0.88965"/>
	</g>
</g>
</svg>
