<?xml version="1.0" encoding="utf-8"?>
<!-- Generator: Adobe Illustrator 15.0.0, SVG Export Plug-In . SVG Version: 6.00 Build 0)  -->
<!DOCTYPE svg PUBLIC "-//W3C//DTD SVG 1.1//EN" "http://www.w3.org/Graphics/SVG/1.1/DTD/svg11.dtd">
<svg version="1.1" id="Layer_1" xmlns="http://www.w3.org/2000/svg" xmlns:xlink="http://www.w3.org/1999/xlink" x="0px" y="0px"
	 width="16px" height="16px" viewBox="0 0 16 16" enable-background="new 0 0 16 16" xml:space="preserve">
<g>
	<path fill="#3A3A3A" d="M15.98047,6.24121l-4.00391-4.04199c-0.0127-0.01318-0.03027-0.02002-0.04785-0.02002H4.35059
		c-0.03662,0-0.06689,0.03027-0.06689,0.06689v13.6875C4.28369,15.96973,4.31396,16,4.35059,16h11.58301
		C15.96973,16,16,15.96973,16,15.93359V6.28857C16,6.27051,15.99316,6.25342,15.98047,6.24121z M11.43262,6.83838h3.74219v8.35205
		H5.10645V2.98975h6.25977v3.78174C11.36621,6.80859,11.39648,6.83838,11.43262,6.83838z"/>
	<path fill="#3A3A3A" d="M0.82471,13.01172V0.81104h6.25928v1.09766c0,0.03662,0.02979,0.06689,0.06689,0.06689h2.31787
		c0.00098,0,0.00098,0,0.00195,0h0.00098c0.03809,0,0.06836-0.03027,0.06836-0.06689c0-0.02441-0.01367-0.04639-0.03418-0.05811
		L7.69385,0.02002C7.68115,0.00684,7.66455,0,7.64648,0H0.06689C0.02979,0,0,0.02979,0,0.06689v13.68799
		c0,0.03711,0.02979,0.06738,0.06689,0.06738h3.83545c0.03662,0,0.06689-0.03027,0.06689-0.06738v-0.67676
		c0-0.03613-0.03027-0.06641-0.06689-0.06641H0.82471z"/>
</g>
</svg>
