<?xml version="1.0" encoding="utf-8"?>
<!-- Generator: Adobe Illustrator 15.0.0, SVG Export Plug-In . SVG Version: 6.00 Build 0)  -->
<!DOCTYPE svg PUBLIC "-//W3C//DTD SVG 1.1//EN" "http://www.w3.org/Graphics/SVG/1.1/DTD/svg11.dtd">
<svg version="1.1" id="Layer_1" xmlns="http://www.w3.org/2000/svg" xmlns:xlink="http://www.w3.org/1999/xlink" x="0px" y="0px"
	 width="16px" height="16px" viewBox="0 0 16 16" enable-background="new 0 0 16 16" xml:space="preserve">
<path fill="#333333" d="M11.78613,1.33838L7.99951,5.12549L4.22363,1.34961C3.43359,0.55225,2.16455,0.5293,1.36865,1.31982
	C0.57373,2.10791,0.54834,3.41602,1.33887,4.21289l3.78662,3.78662l-3.77588,3.7749
	c-0.79688,0.79102-0.82031,2.05957-0.02979,2.85547c0.78809,0.79492,2.09668,0.82031,2.89307,0.0293l3.78662-3.78613
	l3.77783,3.77832c0.79004,0.79492,2.05859,0.81934,2.85059,0.0293c0.79883-0.79004,0.82422-2.09766,0.03223-2.89453
	l-3.78711-3.78662l3.77832-3.77783c0.79492-0.79004,0.81934-2.05859,0.0293-2.85107
	C13.89063,0.57227,12.58398,0.54639,11.78613,1.33838z"/>
</svg>
