<?xml version="1.0" encoding="utf-8"?>
<!-- Generator: Adobe Illustrator 15.0.0, SVG Export Plug-In . SVG Version: 6.00 Build 0)  -->
<!DOCTYPE svg PUBLIC "-//W3C//DTD SVG 1.1//EN" "http://www.w3.org/Graphics/SVG/1.1/DTD/svg11.dtd">
<svg version="1.1" id="Layer_1" xmlns="http://www.w3.org/2000/svg" xmlns:xlink="http://www.w3.org/1999/xlink" x="0px" y="0px"
	 width="16px" height="16px" viewBox="0 0 16 16" enable-background="new 0 0 16 16" xml:space="preserve">
<g>
	<g>
		<path fill="#FFFFFF" d="M15.11426,0.77734c-0.34668-0.33789-0.87988-0.46387-1.45996-0.34521l-0.06934,0.01416L2.47119,11.86914
			c0,0-2.10059,3.62305-1.98682,3.73535c0.10986,0.10547,2.50537-0.97949,3.74902-1.67871L15.47559,2.27686l0.01172-0.07129
			C15.61621,1.44727,15.35645,1.01123,15.11426,0.77734z"/>
		<path fill="#3A3A3A" d="M0.51367,16L0.51367,16H0.35693l-0.14209-0.11621c-0.25586-0.25098-0.33203-0.32617,1.92041-4.20996
			L13.39063,0.08887l0.11719-0.02393C13.74316,0.01709,13.91016,0,14.07324,0c0.5166,0,0.98242,0.17725,1.31348,0.49854
			c0.30664,0.29736,0.64063,0.84717,0.48438,1.77148l-0.02051,0.11865l-0.0957,0.1582L4.42432,14.26465
			C3.50342,14.78223,0.99023,16,0.51367,16z M13.7793,0.8042L2.75,12.13965c-0.56689,0.99414-1.19385,2.11914-1.56445,2.8291
			c0.76172-0.31836,1.95996-0.88184,2.80811-1.35449L15.10938,2.09619c0.06152-0.48291-0.03027-0.81299-0.26563-1.03955
			C14.60059,0.81787,14.21289,0.72656,13.7793,0.8042z"/>
	</g>
	<path fill="#3A3A3A" d="M13.56055,4.79053l-0.7666-0.12988c0.07227-0.42334-0.07227-0.8125-0.43066-1.1582
		c-0.25391-0.24756-0.66016-0.33447-1.11133-0.24365l-0.15723-0.76123c0.70996-0.14404,1.36914,0.01709,1.81055,0.44727
		C13.44922,3.4707,13.67578,4.10986,13.56055,4.79053z"/>
</g>
<path fill="#3A3A3A" d="M4.77686,13.7627l-0.74268-0.12695c0.06982-0.4082-0.06982-0.78516-0.41699-1.11914
	c-0.24609-0.23926-0.63965-0.32324-1.07666-0.23535L2.38818,11.5459c0.6875-0.13965,1.32617,0.0166,1.75391,0.43262
	C4.66895,12.48633,4.88818,13.10352,4.77686,13.7627z"/>
</svg>
