<?xml version="1.0" encoding="utf-8"?>
<!-- Generator: Adobe Illustrator 15.0.0, SVG Export Plug-In . SVG Version: 6.00 Build 0)  -->
<!DOCTYPE svg PUBLIC "-//W3C//DTD SVG 1.1//EN" "http://www.w3.org/Graphics/SVG/1.1/DTD/svg11.dtd">
<svg version="1.1" id="Layer_1" xmlns="http://www.w3.org/2000/svg" xmlns:xlink="http://www.w3.org/1999/xlink" x="0px" y="0px"
	 width="16px" height="16px" viewBox="0 0 16 16" enable-background="new 0 0 16 16" xml:space="preserve">
<g>
	<path fill="#FFFFFF" stroke="#333333" stroke-width="1.08971" d="M15.39551,7.99805c0,4.08594-3.31055,7.39648-7.39453,7.39648
		c-4.08301,0-7.39648-3.31055-7.39648-7.39648c0-4.08105,3.31348-7.39258,7.39648-7.39258
		C12.08496,0.60547,15.39551,3.91699,15.39551,7.99805z"/>
</g>
<path fill="#333333" d="M10.38281,3.8042L8,6.18994L5.62109,3.81152C5.12354,3.30859,4.32422,3.29443,3.82227,3.79297
	C3.32178,4.28857,3.30615,5.11279,3.80371,5.61475l2.38574,2.38574l-2.37891,2.37744
	c-0.50195,0.49805-0.5166,1.29688-0.01855,1.79883c0.49658,0.50195,1.32129,0.51758,1.82227,0.01758L8,9.80957l2.37891,2.38086
	c0.49805,0.5,1.29883,0.51563,1.79688,0.01758c0.50391-0.49805,0.51953-1.32031,0.02148-1.82422l-2.38672-2.3833l2.37891-2.37988
	c0.5-0.49805,0.51758-1.29688,0.01953-1.79639C11.71094,3.32178,10.88672,3.30469,10.38281,3.8042z"/>
</svg>
