<?xml version="1.0" encoding="utf-8"?>
<!-- Generator: Adobe Illustrator 15.0.0, SVG Export Plug-In . SVG Version: 6.00 Build 0)  -->
<!DOCTYPE svg PUBLIC "-//W3C//DTD SVG 1.1//EN" "http://www.w3.org/Graphics/SVG/1.1/DTD/svg11.dtd" [
	<!ENTITY ns_extend "http://ns.adobe.com/Extensibility/1.0/">
	<!ENTITY ns_ai "http://ns.adobe.com/AdobeIllustrator/10.0/">
	<!ENTITY ns_graphs "http://ns.adobe.com/Graphs/1.0/">
	<!ENTITY ns_vars "http://ns.adobe.com/Variables/1.0/">
	<!ENTITY ns_imrep "http://ns.adobe.com/ImageReplacement/1.0/">
	<!ENTITY ns_sfw "http://ns.adobe.com/SaveForWeb/1.0/">
	<!ENTITY ns_custom "http://ns.adobe.com/GenericCustomNamespace/1.0/">
	<!ENTITY ns_adobe_xpath "http://ns.adobe.com/XPath/1.0/">
]>
<svg version="1.1" id="Layer_1" xmlns:x="&ns_extend;" xmlns:i="&ns_ai;" xmlns:graph="&ns_graphs;"
	 xmlns="http://www.w3.org/2000/svg" xmlns:xlink="http://www.w3.org/1999/xlink" x="0px" y="0px" width="16px" height="16px"
	 viewBox="0 0 16 16" enable-background="new 0 0 16 16" xml:space="preserve" preserveAspectRatio="none">
	<g>
		<path fill="none" stroke="#333333" d="M-6.457,11.688h-8.199c-1.877,0-3.4,1.6-3.4,3.572v7.855c0,1.974,1.523,3.572,3.4,3.572
			h8.199c1.878,0,3.4-1.599,3.4-3.572v-7.855C-3.057,13.288-4.579,11.688-6.457,11.688z"/>
	</g>
	<path fill="none" stroke="#333333" stroke-miterlimit="10" d="M-5.019,21.741l-2.52-2.552l2.365-2.397
		c0.496-0.503,0.496-1.318,0-1.82c-0.496-0.504-1.301-0.504-1.797,0l-2.365,2.397l-2.52-2.555c-0.496-0.503-1.3-0.503-1.797,0
		c-0.496,0.503-0.496,1.318,0,1.821l2.521,2.554l-2.365,2.396c-0.496,0.503-0.496,1.318,0,1.821
		c0.248,0.252,0.575,0.377,0.898,0.377c0.324,0,0.65-0.125,0.898-0.377l2.363-2.396l2.52,2.553
		c0.248,0.252,0.574,0.378,0.898,0.378s0.65-0.126,0.898-0.378C-4.522,23.061-4.522,22.244-5.019,21.741z"/>
	<path fill="none" stroke="#333333" stroke-miterlimit="10" d="M13.993,0.5H2.007C1.177,0.5,0.5,1.188,0.5,2.035v11.932
		c0,0.846,0.677,1.533,1.507,1.533h11.986c0.831,0,1.507-0.688,1.507-1.533V2.035C15.5,1.188,14.824,0.5,13.993,0.5z"/>
	<path fill="none" stroke="#333333" stroke-miterlimit="10" d="M9.039,5.338c0-0.441,0.072-0.74,0.217-0.895
		c0.123-0.133,0.318-0.205,0.578-0.225c0.01,0,0.656-0.002,0.666-0.002V2.451c-0.148-0.01-0.934,0-1.084,0
		c-0.639,0-1.167,0.105-1.583,0.332s-0.703,0.52-0.858,0.879S6.741,4.566,6.741,5.297v0.654H5.5V7.76h1.241v5.793h2.298V7.76H10.5
		V5.951H9.039V5.338z"/>
	<path fill="none" stroke="#333333" stroke-miterlimit="10" d="M41.12,47.402H29.134c-0.83,0-1.507,0.688-1.507,1.533v11.932
		c0,0.848,0.677,1.535,1.507,1.535H41.12c0.831,0,1.507-0.688,1.507-1.535V48.936C42.627,48.09,41.951,47.402,41.12,47.402z"/>
	<path fill="none" stroke="#333333" stroke-miterlimit="10" d="M37.752,57.613h-3.478c-0.261,0-0.48-0.289-0.48-0.631V55.5h3.958
		c0.714,0,1.293-0.58,1.293-1.293s-0.579-1.293-1.293-1.293h-3.958V50.9c0-0.715-0.579-1.293-1.292-1.293
		c-0.714,0-1.293,0.578-1.293,1.293v6.082c0,1.773,1.375,3.215,3.065,3.215h3.478c0.714,0,1.293-0.578,1.293-1.293
		C39.045,58.191,38.466,57.613,37.752,57.613z"/>
</svg>
