<?xml version="1.0" encoding="utf-8"?>
<!-- Generator: Adobe Illustrator 15.0.0, SVG Export Plug-In . SVG Version: 6.00 Build 0)  -->
<!DOCTYPE svg PUBLIC "-//W3C//DTD SVG 1.1//EN" "http://www.w3.org/Graphics/SVG/1.1/DTD/svg11.dtd">
<svg version="1.1" id="Layer_1" xmlns="http://www.w3.org/2000/svg" xmlns:xlink="http://www.w3.org/1999/xlink" x="0px" y="0px"
	 width="16.10547px" height="16.10498px" viewBox="0 0 16.10547 16.10498" enable-background="new 0 0 16.10547 16.10498"
	 xml:space="preserve">
<g>
	<path fill="#353635" stroke="#353635" stroke-width="1.08974" d="M15.44824,8.05078c0,4.08643-3.31055,7.39697-7.39551,7.39697
		c-4.08203,0-7.39551-3.31055-7.39551-7.39697c0-4.08105,3.31348-7.39355,7.39551-7.39355
		C12.1377,0.65723,15.44824,3.96973,15.44824,8.05078z"/>
	<path fill="#FDFDFE" d="M8.05371,9.82568l2.49023,2.49023c0.48926,0.48926,1.28223,0.48926,1.77344,0
		c0.49121-0.49121,0.48926-1.28418,0-1.77539L9.82813,8.05176l2.33691-2.33594c0.49023-0.48975,0.49023-1.28564,0-1.77588
		c-0.48926-0.48926-1.28516-0.48926-1.77637,0.00098L8.05371,6.27734L5.5625,3.78711
		C5.07324,3.29785,4.27686,3.29736,3.78662,3.78613c-0.49072,0.49072-0.48877,1.28662,0,1.77637l2.49121,2.48926l-2.33594,2.33447
		c-0.48926,0.49121-0.48926,1.28711,0,1.77637c0.49023,0.48828,1.28467,0.48828,1.77588,0L8.05371,9.82568z"/>
</g>
</svg>
