<?xml version="1.0" encoding="utf-8"?>
<!-- Generator: Adobe Illustrator 15.0.0, SVG Export Plug-In . SVG Version: 6.00 Build 0)  -->
<!DOCTYPE svg PUBLIC "-//W3C//DTD SVG 1.1//EN" "http://www.w3.org/Graphics/SVG/1.1/DTD/svg11.dtd">
<svg version="1.1" id="Layer_1" xmlns="http://www.w3.org/2000/svg" xmlns:xlink="http://www.w3.org/1999/xlink" x="0px" y="0px"
	 width="16px" height="16px" viewBox="0 0 16 16" enable-background="new 0 0 16 16" xml:space="preserve">
<g>
	<path fill="#FCFCFC" stroke="#3A3A3A" stroke-width="0.69335" d="M12.96094,6.41846V4.85547
		c0-0.64551-0.29883-0.80615-0.75879-0.80615H6.0498L5.71777,3.04199C5.64209,2.79541,5.47754,2.59033,5.17773,2.59033H2.71875
		c-0.29785,0-0.45215,0.20508-0.54102,0.45166l-0.3291,1.00732h-0.7251c-0.3584,0.01611-0.66455,0.42529-0.66455,0.72412v8.1875"/>
	<path fill="none" stroke="#3A3A3A" stroke-width="0.69335" d="M8.02539,6.8623"/>
	<g>
		<path fill="#3A3A3A" d="M4.34326,6.63379c0.00146,0,0.00293,0,0.00439,0l10.69238,0.00977
			c0.20215,0,0.29785,0.13525,0.2168,0.30273l-3.03906,6.16504c-0.08203,0.16797-0.3125,0.29883-0.51465,0.29883H1.01025
			c-0.20166,0-0.29834-0.14063-0.21582-0.30859l3.03857-6.16748C3.91553,6.76904,4.14355,6.63379,4.34326,6.63379 M4.34326,5.94043
			c-0.46436,0-0.9292,0.28125-1.13037,0.68359l-3.04053,6.1709c-0.14355,0.29297-0.13232,0.62305,0.03027,0.88379
			c0.16553,0.26563,0.46777,0.4248,0.80762,0.4248h10.69287c0.47168,0,0.93945-0.2832,1.1377-0.6875l3.03809-6.16309
			c0.14258-0.29541,0.12988-0.62305-0.03125-0.88086C15.67969,6.104,15.38477,5.9502,15.04004,5.9502L4.34814,5.94043H4.34326
			L4.34326,5.94043z"/>
	</g>
</g>
</svg>
