<?xml version="1.0" encoding="utf-8"?>
<!-- Generator: Adobe Illustrator 15.0.0, SVG Export Plug-In . SVG Version: 6.00 Build 0)  -->
<!DOCTYPE svg PUBLIC "-//W3C//DTD SVG 1.1//EN" "http://www.w3.org/Graphics/SVG/1.1/DTD/svg11.dtd" [
	<!ENTITY ns_extend "http://ns.adobe.com/Extensibility/1.0/">
	<!ENTITY ns_ai "http://ns.adobe.com/AdobeIllustrator/10.0/">
	<!ENTITY ns_graphs "http://ns.adobe.com/Graphs/1.0/">
	<!ENTITY ns_vars "http://ns.adobe.com/Variables/1.0/">
	<!ENTITY ns_imrep "http://ns.adobe.com/ImageReplacement/1.0/">
	<!ENTITY ns_sfw "http://ns.adobe.com/SaveForWeb/1.0/">
	<!ENTITY ns_custom "http://ns.adobe.com/GenericCustomNamespace/1.0/">
	<!ENTITY ns_adobe_xpath "http://ns.adobe.com/XPath/1.0/">
]>
<svg version="1.1" id="Layer_1" xmlns:x="&ns_extend;" xmlns:i="&ns_ai;" xmlns:graph="&ns_graphs;"
	 xmlns="http://www.w3.org/2000/svg" xmlns:xlink="http://www.w3.org/1999/xlink" x="0px" y="0px" width="175.803px" height="24px"
	 viewBox="0 0 175.803 24" enable-background="new 0 0 175.803 24" xml:space="preserve" preserveAspectRatio="none">
	<g>
		<path fill="none" stroke="#333333" stroke-width="1.3807" stroke-miterlimit="10" d="M174.468,20.489
			c0,1.524-1.237,2.761-2.762,2.761H4.096c-1.524,0-2.761-1.236-2.761-2.761V3.511c0-1.525,1.237-2.761,2.761-2.761h167.61
			c1.525,0,2.762,1.236,2.762,2.761V20.489z"/>
		<g>
			<path fill="#010101" d="M11.552,10.64c0-0.612-0.033-2.623-0.049-2.887c-0.049-0.959-0.313-0.991-0.857-0.991h-0.529
				c-0.115,0-0.115-0.019-0.115-0.15V6.233c0-0.099,0.018-0.148,0.132-0.148c0.213,0,1.006,0.05,2.573,0.05
				c0.529,0,1.519-0.05,2.642-0.05c1.188,0,2.244,0.115,2.821,0.445c0.94,0.512,1.271,1.271,1.271,2.245
				c0,1.089-0.66,2.144-2.409,2.723v0.033c2.046,0.529,3.118,1.519,3.118,3.269c0,0.89-0.495,2.112-1.288,2.508
				c-0.676,0.346-1.83,0.609-3.877,0.609c-0.147,0-0.578-0.033-1.04-0.049c-0.478-0.033-0.99-0.051-1.304-0.051
				c-0.825,0-1.368,0.018-1.731,0.018c-0.347,0.017-0.529,0.033-0.645,0.033c-0.165,0-0.182-0.051-0.182-0.183v-0.362
				c0-0.099,0.018-0.132,0.166-0.132h0.578c0.495,0,0.578-0.197,0.643-0.693c0.05-0.379,0.083-2.558,0.083-3.911V10.64z
				 M13.961,11.314c0.678,0.068,1.732-0.032,2.211-0.46c0.545-0.479,0.793-1.221,0.793-1.947c0-0.626-0.2-1.288-0.678-1.667
				c-0.561-0.446-1.369-0.593-1.55-0.593c-0.348,0-0.711,0.016-0.726,0.279c-0.033,0.331-0.05,1.767-0.05,3.136V11.314z
				 M13.961,15.144c0,1.567,0.364,2.212,1.236,2.212c1.172,0,2.278-0.578,2.278-2.64c0-1.338-0.593-2.212-1.486-2.559
				c-0.824-0.313-1.617-0.28-2.029-0.28V15.144z"/>
		</g>
		<g>
			
				<line fill="none" stroke="#333333" stroke-width="1.3807" stroke-linecap="round" stroke-miterlimit="10" x1="124.161" y1="6.822" x2="136.934" y2="6.822"/>
			
				<line fill="none" stroke="#333333" stroke-width="1.3807" stroke-linecap="round" stroke-miterlimit="10" x1="124.161" y1="10.274" x2="133.138" y2="10.274"/>
			
				<line fill="none" stroke="#333333" stroke-width="1.3807" stroke-linecap="round" stroke-miterlimit="10" x1="124.161" y1="13.725" x2="132.102" y2="13.725"/>
			
				<line fill="none" stroke="#333333" stroke-width="1.3807" stroke-linecap="round" stroke-miterlimit="10" x1="124.161" y1="17.178" x2="136.934" y2="17.178"/>
		</g>
		<g>
			
				<line fill="none" stroke="#333333" stroke-width="1.3807" stroke-linecap="round" stroke-miterlimit="10" x1="153.028" y1="6.737" x2="165.802" y2="6.737"/>
			
				<line fill="none" stroke="#333333" stroke-width="1.3807" stroke-linecap="round" stroke-miterlimit="10" x1="156.825" y1="10.245" x2="165.802" y2="10.245"/>
			
				<line fill="none" stroke="#333333" stroke-width="1.3807" stroke-linecap="round" stroke-miterlimit="10" x1="157.862" y1="13.755" x2="165.802" y2="13.755"/>
			
				<line fill="none" stroke="#333333" stroke-width="1.3807" stroke-linecap="round" stroke-miterlimit="10" x1="153.028" y1="17.263" x2="165.802" y2="17.263"/>
		</g>
		<g>
			
				<line fill="none" stroke="#333333" stroke-width="1.3807" stroke-linecap="round" stroke-miterlimit="10" x1="95.292" y1="6.737" x2="108.065" y2="6.737"/>
			
				<line fill="none" stroke="#333333" stroke-width="1.3807" stroke-linecap="round" stroke-miterlimit="10" x1="97.191" y1="10.245" x2="106.166" y2="10.245"/>
			
				<line fill="none" stroke="#333333" stroke-width="1.3807" stroke-linecap="round" stroke-miterlimit="10" x1="97.708" y1="13.755" x2="105.65" y2="13.755"/>
			
				<line fill="none" stroke="#333333" stroke-width="1.3807" stroke-linecap="round" stroke-miterlimit="10" x1="95.292" y1="17.263" x2="108.065" y2="17.263"/>
		</g>
		<g>
			<path fill="#010101" d="M70.46,15.856c-0.986-0.393-1.492-1.029-1.725-1.943c-0.173-0.651-0.232-1.623-0.232-3.523V6.938
				c0-0.507-0.102-0.739-0.55-0.739h-0.681c-0.087,0-0.103-0.028-0.103-0.13V5.75c0-0.086,0.016-0.116,0.13-0.116
				c0.147,0,0.856,0.044,1.986,0.044c1.133,0,1.829-0.044,1.988-0.044c0.116,0,0.13,0.03,0.13,0.087v0.376
				c0,0.074-0.014,0.103-0.116,0.103h-0.725c-0.421,0-0.667,0.275-0.696,0.594c-0.016,0.131-0.029,1.146-0.029,1.884v0.958
				c0,0.768,0.058,2.611,0.072,3.076c0.015,0.666,0.132,1.347,0.465,1.841c0.537,0.782,1.465,1.043,2.305,1.043
				c0.827,0,1.668-0.275,2.175-0.796c0.566-0.61,0.753-1.48,0.753-2.552V9.144c0-1.103-0.028-1.944-0.072-2.306
				c-0.042-0.377-0.274-0.638-0.653-0.638h-0.637c-0.088,0-0.102-0.044-0.102-0.116V5.735c0-0.071,0.014-0.102,0.102-0.102
				c0.145,0,0.812,0.044,1.785,0.044c1,0,1.463-0.044,1.593-0.044c0.132,0,0.146,0.06,0.146,0.102v0.319
				c0,0.087-0.015,0.146-0.088,0.146h-0.594c-0.536,0-0.58,0.406-0.624,0.58c-0.027,0.146-0.027,2.205-0.027,2.407
				c0,0.205-0.03,2.742-0.074,3.306c-0.087,1.189-0.406,2.104-1.217,2.798c-0.58,0.538-1.465,0.871-2.727,0.871
				C71.666,16.161,70.939,16.059,70.46,15.856z"/>
			
				<line fill="none" stroke="#333333" stroke-width="0.872" stroke-linecap="round" stroke-miterlimit="10" x1="67.115" y1="18.366" x2="78.507" y2="18.366"/>
		</g>
		<path fill="#010101" d="M44.36,8.123c0.216-0.808-0.014-1.088-0.593-1.088h-0.758C42.875,7.034,42.843,7,42.86,6.9l0.082-0.378
			c0.017-0.067,0.066-0.101,0.214-0.101c0.198,0,1.071,0.049,2.228,0.049c1.354,0,2.063-0.049,2.293-0.049
			c0.166,0,0.214,0.068,0.182,0.166L47.776,6.9c-0.016,0.083-0.049,0.134-0.18,0.134h-0.314c-1.005,0-1.255,0.164-1.535,1.17
			l-2.063,7.642c-0.215,0.792,0.016,1.122,0.875,1.122h0.578c0.099,0,0.115,0.065,0.099,0.163l-0.049,0.314
			c-0.017,0.1-0.034,0.133-0.2,0.133c-0.179,0-0.955-0.05-2.392-0.05c-1.336,0-2.26,0.05-2.442,0.05
			c-0.115,0-0.149-0.05-0.132-0.133l0.066-0.314c0.034-0.13,0.051-0.163,0.148-0.163h0.71c0.974,0,1.106-0.33,1.352-1.222
			L44.36,8.123z"/>
	</g>
</svg>
