<?xml version="1.0" encoding="utf-8"?>
<!-- Generator: Adobe Illustrator 15.0.0, SVG Export Plug-In . SVG Version: 6.00 Build 0)  -->
<!DOCTYPE svg PUBLIC "-//W3C//DTD SVG 1.1//EN" "http://www.w3.org/Graphics/SVG/1.1/DTD/svg11.dtd">
<svg version="1.1" id="Layer_1" xmlns="http://www.w3.org/2000/svg" xmlns:xlink="http://www.w3.org/1999/xlink" x="0px" y="0px"
	 width="100px" height="100px" viewBox="0 0 150 150" enable-background="new 0 0 150 150" xml:space="preserve">
<g>
	<g>
		<path fill="#FFFFFF" d="M70.1084,147.5c-37.12988,0-67.33691-30.20703-67.33691-67.33691
			c0-36.29297,28.85986-65.97217,64.83691-67.29053v69.79053h69.79102C136.08105,118.64014,106.40186,147.5,70.1084,147.5z"/>
		<path fill="#333333" d="M65.1084,15.51758v64.64551v5h5h64.646C132.19336,118.58691,104.17725,145,70.1084,145
			c-35.75098,0-64.83691-29.08594-64.83691-64.83691C5.27148,46.09473,31.68457,18.07861,65.1084,15.51758 M70.1084,10.32666
			c-38.56934,0-69.83691,31.2666-69.83691,69.83643C0.27148,118.7334,31.53906,150,70.1084,150
			c38.57031,0,69.83691-31.2666,69.83691-69.83691H70.1084V10.32666L70.1084,10.32666z"/>
	</g>
	<g>
		<path fill="#FFFFFF" d="M82.39258,67.33691V2.5459c35.14746,1.28809,63.50195,29.64307,64.79004,64.79102H82.39258z"/>
		<path fill="#333333" d="M84.89258,5.19092c31.77246,2.43457,57.21045,27.87305,59.64502,59.646H84.89258V5.19092 M79.89258,0
			v69.83691h69.83594C149.72852,31.26709,118.46094,0,79.89258,0L79.89258,0z"/>
	</g>
</g>
</svg>
