<?xml version="1.0" encoding="utf-8"?>
<!-- Generator: Adobe Illustrator 15.0.0, SVG Export Plug-In . SVG Version: 6.00 Build 0)  -->
<!DOCTYPE svg PUBLIC "-//W3C//DTD SVG 1.1//EN" "http://www.w3.org/Graphics/SVG/1.1/DTD/svg11.dtd" [
	<!ENTITY ns_extend "http://ns.adobe.com/Extensibility/1.0/">
	<!ENTITY ns_ai "http://ns.adobe.com/AdobeIllustrator/10.0/">
	<!ENTITY ns_graphs "http://ns.adobe.com/Graphs/1.0/">
	<!ENTITY ns_vars "http://ns.adobe.com/Variables/1.0/">
	<!ENTITY ns_imrep "http://ns.adobe.com/ImageReplacement/1.0/">
	<!ENTITY ns_sfw "http://ns.adobe.com/SaveForWeb/1.0/">
	<!ENTITY ns_custom "http://ns.adobe.com/GenericCustomNamespace/1.0/">
	<!ENTITY ns_adobe_xpath "http://ns.adobe.com/XPath/1.0/">
]>
<svg version="1.1" id="Layer_1" xmlns:x="&ns_extend;" xmlns:i="&ns_ai;" xmlns:graph="&ns_graphs;"
	 xmlns="http://www.w3.org/2000/svg" xmlns:xlink="http://www.w3.org/1999/xlink" x="0px" y="0px" width="16px" height="16px"
	 viewBox="0 0 16 16" enable-background="new 0 0 16 16" xml:space="preserve" preserveAspectRatio="none">
	<g>
		<path fill="none" stroke="#333333" d="M-6.457,11.688h-8.199c-1.877,0-3.4,1.6-3.4,3.572v7.855c0,1.974,1.523,3.572,3.4,3.572
			h8.199c1.878,0,3.4-1.599,3.4-3.572v-7.855C-3.057,13.288-4.579,11.688-6.457,11.688z"/>
	</g>
	<path fill="none" stroke="#333333" stroke-miterlimit="10" d="M-5.019,21.741l-2.52-2.552l2.365-2.397
		c0.496-0.503,0.496-1.318,0-1.82c-0.496-0.504-1.301-0.504-1.797,0l-2.365,2.397l-2.52-2.555c-0.496-0.503-1.3-0.503-1.797,0
		c-0.496,0.503-0.496,1.318,0,1.821l2.521,2.554l-2.365,2.396c-0.496,0.503-0.496,1.318,0,1.821
		c0.248,0.252,0.575,0.377,0.898,0.377c0.324,0,0.65-0.125,0.898-0.377l2.363-2.396l2.52,2.553
		c0.248,0.252,0.574,0.378,0.898,0.378s0.65-0.126,0.898-0.378C-4.522,23.061-4.522,22.244-5.019,21.741z"/>
	<path fill="none" stroke="#333333" stroke-miterlimit="10" d="M41.12,47.402H29.134c-0.83,0-1.507,0.688-1.507,1.533v11.932
		c0,0.848,0.677,1.535,1.507,1.535H41.12c0.831,0,1.507-0.688,1.507-1.535V48.936C42.627,48.09,41.951,47.402,41.12,47.402z"/>
	<path fill="none" stroke="#333333" stroke-miterlimit="10" d="M37.752,57.613h-3.478c-0.261,0-0.48-0.289-0.48-0.631V55.5h3.958
		c0.714,0,1.293-0.58,1.293-1.293s-0.579-1.293-1.293-1.293h-3.958V50.9c0-0.715-0.579-1.293-1.292-1.293
		c-0.714,0-1.293,0.578-1.293,1.293v6.082c0,1.773,1.375,3.215,3.065,3.215h3.478c0.714,0,1.293-0.578,1.293-1.293
		C39.045,58.191,38.466,57.613,37.752,57.613z"/>
	<g>
		<g>
			<path fill="#333333" d="M8,1c3.859,0,7,3.14,7,7c0,3.859-3.141,7-7,7c-3.86,0-7-3.141-7-7C1,4.14,4.14,1,8,1 M8,0
				C3.581,0,0,3.581,0,8c0,4.418,3.581,8,8,8c4.418,0,8-3.582,8-8C16,3.581,12.418,0,8,0L8,0z"/>
		</g>
		<g>
			<path fill="#333333" d="M8.762,10.32H7.129c-0.004-0.234-0.006-0.378-0.006-0.429c0-0.53,0.088-0.965,0.262-1.306
				C7.56,8.244,7.91,7.86,8.435,7.434C8.96,7.006,9.273,6.727,9.377,6.595c0.157-0.209,0.236-0.439,0.236-0.691
				c0-0.35-0.141-0.649-0.42-0.899S8.538,4.63,8.063,4.63c-0.456,0-0.839,0.13-1.146,0.39C6.609,5.28,6.398,5.677,6.284,6.211
				L4.633,6.006C4.68,5.241,5.004,4.593,5.608,4.06s1.397-0.8,2.378-0.8c1.033,0,1.854,0.27,2.466,0.81
				c0.61,0.54,0.915,1.168,0.915,1.885c0,0.397-0.112,0.772-0.337,1.127c-0.224,0.354-0.702,0.837-1.437,1.447
				C9.214,8.844,8.979,9.098,8.887,9.29C8.795,9.481,8.754,9.825,8.762,10.32z M7.129,12.74v-1.799h1.799v1.799H7.129z"/>
		</g>
	</g>
</svg>
