<?xml version="1.0" encoding="utf-8"?>
<!-- Generator: Adobe Illustrator 15.0.0, SVG Export Plug-In . SVG Version: 6.00 Build 0)  -->
<!DOCTYPE svg PUBLIC "-//W3C//DTD SVG 1.1//EN" "http://www.w3.org/Graphics/SVG/1.1/DTD/svg11.dtd" [
	<!ENTITY ns_extend "http://ns.adobe.com/Extensibility/1.0/">
	<!ENTITY ns_ai "http://ns.adobe.com/AdobeIllustrator/10.0/">
	<!ENTITY ns_graphs "http://ns.adobe.com/Graphs/1.0/">
	<!ENTITY ns_vars "http://ns.adobe.com/Variables/1.0/">
	<!ENTITY ns_imrep "http://ns.adobe.com/ImageReplacement/1.0/">
	<!ENTITY ns_sfw "http://ns.adobe.com/SaveForWeb/1.0/">
	<!ENTITY ns_custom "http://ns.adobe.com/GenericCustomNamespace/1.0/">
	<!ENTITY ns_adobe_xpath "http://ns.adobe.com/XPath/1.0/">
]>
<svg version="1.1" id="Layer_1" xmlns:x="&ns_extend;" xmlns:i="&ns_ai;" xmlns:graph="&ns_graphs;"
	 xmlns="http://www.w3.org/2000/svg" xmlns:xlink="http://www.w3.org/1999/xlink" x="0px" y="0px" width="355px" height="16px"
	 viewBox="0 0 355 16" enable-background="new 0 0 355 16" xml:space="preserve" preserveAspectRatio="none">
	<g>
		<path fill="#FFFFFF" stroke="#222222" stroke-width="1.225" d="M0.739,2.248C0.739,1.56,1.298,1,1.988,1h351.003
			c0.691,0,1.25,0.56,1.25,1.248v11.505c0,0.69-0.559,1.248-1.25,1.248H1.988c-0.69,0-1.249-0.558-1.249-1.248V2.248z"/>
		<g>
			<g>
				<polygon fill="#FFFFFF" points="11.395,13.065 2.809,13.065 2.787,2.898 11.395,2.935 11.416,13.101 					"/>
				<path fill="#222222" d="M10.827,3.523v8.954H3.375V3.523H10.827 M11.395,2.347H2.809c-0.337,0-0.61,0.247-0.61,0.552v10.202
					c0,0.303,0.273,0.553,0.61,0.553h8.586c0.336,0,0.609-0.25,0.609-0.553V2.898C12.004,2.594,11.73,2.347,11.395,2.347
					L11.395,2.347z"/>
			</g>
			<g>
				<polygon fill="#FFFFFF" points="6.31,7.999 8.875,5.979 8.875,10.021 					"/>
				<path fill="#222222" d="M8.262,7.241v0.757v0.761L8.163,8.681L7.299,7.999l0.863-0.68L8.262,7.241 M9.487,4.716L7.404,6.357
					L5.32,7.998l2.084,1.645l2.083,1.641V7.998V4.716L9.487,4.716z"/>
			</g>
		</g>
		<g>
			<g>
				<polygon fill="#FFFFFF" points="352.171,13.065 343.587,13.065 343.566,2.898 352.171,2.935 352.193,13.101 					"/>
				<path fill="#222222" d="M351.605,3.523v8.954h-7.451V3.523H351.605 M352.171,2.347h-8.584c-0.338,0-0.609,0.247-0.609,0.552
					v10.202c0,0.303,0.271,0.553,0.609,0.553h8.584c0.338,0,0.611-0.25,0.611-0.553V2.898
					C352.782,2.594,352.509,2.347,352.171,2.347L352.171,2.347z"/>
			</g>
			<g>
				<polygon fill="#FFFFFF" points="346.105,5.979 348.67,7.999 346.105,10.021 					"/>
				<path fill="#222222" d="M346.718,7.242l0.1,0.078l0.863,0.679l-0.863,0.681l-0.1,0.078v-0.76V7.242 M345.493,4.716v3.282v3.285
					l2.082-1.641l2.084-1.645l-2.084-1.641L345.493,4.716L345.493,4.716z"/>
			</g>
		</g>
		<g>
			<g>
				<polygon fill="#FFFFFF" points="251.235,13.052 103.746,13.052 103.713,2.898 251.235,2.949 251.268,13.1 					"/>
				<path fill="#222222" d="M250.666,3.551v8.899H104.314V3.551H250.666 M251.235,2.347H103.746c-0.352,0-0.636,0.246-0.636,0.552
					V13.1c0,0.307,0.284,0.554,0.636,0.554h147.489c0.35,0,0.635-0.247,0.635-0.554V2.898
					C251.87,2.593,251.585,2.347,251.235,2.347L251.235,2.347z"/>
			</g>
			
				<line fill="#FFFFFF" stroke="#222222" stroke-width="1.1977" stroke-linecap="round" x1="173.41" y1="11.77" x2="173.41" y2="4.23"/>
			
				<line fill="#FFFFFF" stroke="#222222" stroke-width="1.1977" stroke-linecap="round" x1="176.131" y1="11.77" x2="176.131" y2="4.23"/>
			
				<line fill="#FFFFFF" stroke="#222222" stroke-width="1.1977" stroke-linecap="round" x1="178.851" y1="11.77" x2="178.851" y2="4.23"/>
			
				<line fill="#FFFFFF" stroke="#222222" stroke-width="1.1977" stroke-linecap="round" x1="181.571" y1="11.77" x2="181.571" y2="4.23"/>
		</g>
	</g>
</svg>
