<?xml version="1.0" encoding="utf-8"?>
<!-- Generator: Adobe Illustrator 15.0.0, SVG Export Plug-In . SVG Version: 6.00 Build 0)  -->
<!DOCTYPE svg PUBLIC "-//W3C//DTD SVG 1.1//EN" "http://www.w3.org/Graphics/SVG/1.1/DTD/svg11.dtd" [
	<!ENTITY ns_extend "http://ns.adobe.com/Extensibility/1.0/">
	<!ENTITY ns_ai "http://ns.adobe.com/AdobeIllustrator/10.0/">
	<!ENTITY ns_graphs "http://ns.adobe.com/Graphs/1.0/">
	<!ENTITY ns_vars "http://ns.adobe.com/Variables/1.0/">
	<!ENTITY ns_imrep "http://ns.adobe.com/ImageReplacement/1.0/">
	<!ENTITY ns_sfw "http://ns.adobe.com/SaveForWeb/1.0/">
	<!ENTITY ns_custom "http://ns.adobe.com/GenericCustomNamespace/1.0/">
	<!ENTITY ns_adobe_xpath "http://ns.adobe.com/XPath/1.0/">
]>
<svg version="1.1" id="Layer_1" xmlns:x="&ns_extend;" xmlns:i="&ns_ai;" xmlns:graph="&ns_graphs;"
	 xmlns="http://www.w3.org/2000/svg" xmlns:xlink="http://www.w3.org/1999/xlink" x="0px" y="0px" width="100px" height="100px"
	 viewBox="0 0 100 100" enable-background="new 0 0 100 100" xml:space="preserve" preserveAspectRatio="none">
	<path fill="none" stroke="#333333" stroke-miterlimit="10" d="M143.148-60.247l-2.52-2.555"/>
	<g>
		<path fill="#333333" stroke="#333333" stroke-width="0.7164" stroke-miterlimit="10" d="M27.489,78.567
			c0,0-5.601-10.034-5.255-13.196c0.345-3.164,6.721-2.837,6.721-2.837l7.927,1.092l0.218-0.218l3.4-3.383L30.161,61.99
			c0,0-3.549-1.31-4.662-0.873c-1.111,0.436-3.281,2.072-3.281,2.072s-0.071-10.58,5.444-11.889c5.515-1.31,6.461-0.98,6.461-0.98
			l4.912,0.653l7.237-4.368l-6.98,3.386c0,0-5.169-0.437-6.461-0.437c-1.293,0-6.307-0.652-7.333,1.201
			c-1.025,1.854,1.387-4.15,1.387-4.15s3.274-10.573,3.791-11.338c0.518-0.763,4.309-5.671,6.377-3.489
			c2.067,2.181,3.188,5.562,3.188,5.562l-0.517-3.271l-2.326-2.846h-0.776c0,0,5.773-1.954,6.289-3.153
			c0.517-1.2,0.861-3.492,0.861-3.492s-0.048,2.908-4.221,4.8c-4.172,1.893-5.858,1.527-5.858,1.527v-1.527l2.929-6.053
			l-0.948-6.489l0.517,6.489l-2.843,4.528l-0.26,3.488c0,0-2.097,1.207-3.016,2.999c-0.152,0.295-0.271,0.604-0.343,0.927
			c-0.462,2.049-1.337-12.201-3.118-15.561c-0.212-0.398-0.436-0.643-0.673-0.689c-2.241-0.437-0.862-0.437-0.862-0.437
			s2.586,3.163,2.327,7.308c-0.258,4.144,1.377,5.473,1.119,10.907c-0.257,5.434-1.98,8.616-1.98,8.616s-1.897-6.326-2.413-6.108
			c-0.517,0.219,0.603-2.727,0.603-2.727s-1.724-5.563-1.637-7.199c0.085-1.635,0.431-3.926,0.431-3.926l-0.947,4.472l1.034,5.563
			l-0.087,2.618L18.96,33.74l-3.791-4.253l3.791,5.345c0,0,7.997,6.859,6.54,11.773c-1.456,4.914-1.369,3.06-1.369,3.06
			s-4.05,8.616-3.792,10.143c0.26,1.526-5.168-5.562-5.168-5.562s1.034-12.324,0-15.815c-1.035-3.489-5.342-10.906-6.721-11.561
			c-1.379-0.655,2.154,1.527,3.619,5.998c1.465,4.472,2.068,1.637,2.413,8.071c0.344,6.436-0.172,12.979-0.172,12.979
			s0.258,2.4,1.981,3.816c1.723,1.418,3.705,4.363,3.705,4.363l1.378,16.469H27.489z"/>
		<path fill="none" stroke="#333333" stroke-width="3.8208" stroke-miterlimit="10" d="M2.606,80.686
			c11.261-2.104,22.573-2.859,33.834-3.28c9.567-0.321,44.018,6.24,61.56,1.629"/>
		<g>
			<polyline fill="none" stroke="#333333" stroke-width="1.9104" stroke-miterlimit="10" points="73.54,80.562 73.333,72.375 
				75.839,74.472 75.839,68.744 72.707,66.124 72.707,58.867 68.945,58.867 68.945,62.982 64.56,59.314 53.282,68.744 
				53.282,74.472 55.789,72.375 55.789,79.041 				"/>
			<g>
				<rect x="61.636" y="69.616" fill="none" stroke="#333333" stroke-width="1.9104" width="6.199" height="4.752"/>
				<line fill="none" stroke="#333333" stroke-width="1.9104" x1="64.735" y1="69.616" x2="64.735" y2="74.368"/>
				<line fill="none" stroke="#333333" stroke-width="1.9104" x1="61.636" y1="71.993" x2="67.835" y2="71.993"/>
			</g>
		</g>
		<path fill="none" stroke="#333333" stroke-width="1.9104" d="M72.427,15.474c-2.338,0-4.249,1.474-4.432,3.346
			c-0.319-0.141-0.676-0.228-1.059-0.228c-1.313,0-2.376,0.932-2.376,2.081c0,1.148,1.064,2.08,2.376,2.08
			c0.017,0,0.034-0.004,0.051-0.004c-0.03,0.146-0.051,0.295-0.051,0.449c0,1.395,1.229,2.526,2.744,2.526
			c1.517,0,4.297,1.473,4.297-0.689c0-0.238-1.571-2.14-1.6-2.284c0.017,0,0.033,0.002,0.049,0.002
			c2.457,0,4.449-1.629,4.449-3.641C76.875,17.103,74.884,15.474,72.427,15.474z"/>
		<path fill="none" stroke="#333333" stroke-width="1.9104" d="M80.856,33.025c-0.018,0-0.034,0.004-0.049,0.004
			c-0.382-1.087-1.49-1.879-2.813-1.879c-1.638,0-2.965,1.207-2.965,2.694c0,1.183,0.843,2.176,2.008,2.539
			c-0.078,0.26-0.127,0.538-0.127,0.831c0,1.339,0.876,2.426,1.957,2.426c1.082,0,1.957-1.087,1.957-2.426
			c0-0.239-0.035-0.467-0.088-0.685c0.041,0.002,0.081,0.011,0.121,0.011c1.099,0,1.989-0.787,1.989-1.758
			C82.846,33.812,81.956,33.025,80.856,33.025z"/>
		<path fill="none" stroke="#333333" stroke-width="1.9104" d="M76.544,50.972c0-1.525-1.207-2.763-2.695-2.763
			c-1.488,0-2.694,1.237-2.694,2.763c0,0.976,0.494,1.827,1.24,2.32c-0.265,0.317-0.432,0.729-0.432,1.183
			c0,1.006,0.784,1.82,1.752,1.82c0.967,0,1.752-0.814,1.752-1.82c0-0.405-0.132-0.776-0.349-1.079
			C75.962,52.929,76.544,52.024,76.544,50.972z"/>
		<path fill="none" stroke="#333333" stroke-width="3.8208" stroke-linecap="round" stroke-miterlimit="10" d="M97.521,90.118
			c0,4.221-3.421,7.643-7.642,7.643H9.642C5.421,97.761,2,94.339,2,90.118V9.882c0-4.221,3.421-7.643,7.642-7.643h80.237
			c4.22,0,7.642,3.422,7.642,7.643V90.118z"/>
	</g>
</svg>
