<?xml version="1.0" encoding="utf-8"?>
<!-- Generator: Adobe Illustrator 15.0.0, SVG Export Plug-In . SVG Version: 6.00 Build 0)  -->
<!DOCTYPE svg PUBLIC "-//W3C//DTD SVG 1.1//EN" "http://www.w3.org/Graphics/SVG/1.1/DTD/svg11.dtd">
<svg version="1.1" id="Layer_1" xmlns="http://www.w3.org/2000/svg" xmlns:xlink="http://www.w3.org/1999/xlink" x="0px" y="0px"
	 width="16px" height="16px" viewBox="0 0 16 16" enable-background="new 0 0 16 16" xml:space="preserve">
<g>
	<g>
		<path fill="#353635" d="M14,1.00098c0.55176,0,1,0.44824,1,0.99902v11.99902c0,0.55176-0.44824,1-1,1H2c-0.55127,0-1-0.44824-1-1
			V2c0-0.55078,0.44873-0.99902,1-0.99902H14 M14,0.00098H2C0.896,0.00098,0,0.89648,0,2v11.99902c0,1.10547,0.896,2,2,2h12
			c1.10352,0,2-0.89453,2-2V2C16,0.89648,15.10352,0.00098,14,0.00098L14,0.00098z"/>
	</g>
	<g>
		<g>
			<polygon fill="#333333" points="9.56738,13.58008 9.56738,7.00781 9.56738,6.50781 9.56738,6.33008 5.21143,6.33008 
				5.21143,7.00781 6.71875,7.00781 6.71875,13.58008 5.21143,13.58008 5.21143,14.25684 10.99414,14.25684 10.99414,13.58008 			
				"/>
			<path fill="#353635" d="M9.56738,6.33008v0.17773v0.5v6.57227h1.42676v0.67676H5.21143v-0.67676h1.50732V7.00781H5.21143V6.33008
				H9.56738"/>
		</g>
		<g>
			<circle fill="#353635" cx="7.75513" cy="3.50195" r="1.84155"/>
		</g>
	</g>
</g>
</svg>
