<?xml version="1.0" encoding="utf-8"?>
<!-- Generator: Adobe Illustrator 15.0.0, SVG Export Plug-In . SVG Version: 6.00 Build 0)  -->
<!DOCTYPE svg PUBLIC "-//W3C//DTD SVG 1.1//EN" "http://www.w3.org/Graphics/SVG/1.1/DTD/svg11.dtd">
<svg version="1.1" id="Layer_1" xmlns="http://www.w3.org/2000/svg" xmlns:xlink="http://www.w3.org/1999/xlink" x="0px" y="0px"
	 preserveAspectRatio="none"  viewBox="280.04 242.205 167.041 324" enable-background="new 0 0 824 830" xml:space="preserve">
<!-- original values: width="385.5645px" height="747.8577px" (no preserveAspectRatio) -->
<g>
	<rect x="282.094" y="244.68" width="500" height="500"/>
	<linearGradient id="SVGID_1_" gradientUnits="userSpaceOnUse" x1="366.1265" y1="184.0239" x2="366.1264" y2="678.4069">
		<stop  offset="0" style="stop-color:#FFFFFF"/>
		<stop  offset="0.0078" style="stop-color:#F9F9F9"/>
		<stop  offset="0.0864" style="stop-color:#C6C6C6"/>
		<stop  offset="0.1703" style="stop-color:#979797"/>
		<stop  offset="0.2577" style="stop-color:#6E6E6E"/>
		<stop  offset="0.3492" style="stop-color:#4C4C4C"/>
		<stop  offset="0.4462" style="stop-color:#303030"/>
		<stop  offset="0.5505" style="stop-color:#1B1B1B"/>
		<stop  offset="0.6656" style="stop-color:#0C0C0C"/>
		<stop  offset="0.8" style="stop-color:#030303"/>
		<stop  offset="1" style="stop-color:#000000"/>
	</linearGradient>
	<path fill="url(#SVGID_1_)" d="M450.904,244.461c-68.024,80.041-114.728,152.844-169.555,456.98
		c2.857-151.561,1.148-457.403,1.148-457.403S388.822,243.898,450.904,244.461z"/>
</g>
<g>
	<g>
		<path fill="#FFFFFF" d="M16,52.175v755h774v-755H16z M442.256,540.096c0,11.49-9.35,20.84-20.842,20.84H305.585
			c-11.493,0-20.843-9.35-20.843-20.84v-271.84c0-11.492,9.35-20.842,20.843-20.842h115.829c11.492,0,20.842,9.35,20.842,20.842
			V540.096z"/>
	</g>
</g>
<g>
	<g>
		<circle fill="#4D4D4F" cx="338.511" cy="273.396" r="3.738"/>
		<path fill="#282829" d="M342.625,273.416c-0.045,1.038-0.547,2.098-1.329,2.766c-0.77,0.695-1.771,1.061-2.791,1.078
			c-2.027,0.07-4.032-1.637-4.107-3.883c-0.06-1.035,0.328-2.191,1.09-3.004c0.771-0.828,1.849-1.328,3.055-1.34l0.367,0.017
			l0.451,0.063c0.284,0.06,0.553,0.148,0.817,0.26c0.521,0.233,0.985,0.578,1.366,0.99c0.749,0.84,1.135,1.957,1.08,3.033
			L342.625,273.416z M341.874,273.396c-0.049-0.885-0.466-1.712-1.109-2.254c-0.647-0.559-1.405-0.837-2.285-0.859
			c-1.574-0.059-3.256,1.288-3.331,3.132c-0.057,0.843,0.247,1.794,0.87,2.474c0.624,0.689,1.537,1.104,2.499,1.121
			c0.94,0.023,1.884-0.416,2.495-1.111c0.611-0.713,0.914-1.6,0.862-2.521L341.874,273.396z"/>
	</g>
	<circle fill="#58595B" cx="338.417" cy="274.259" r="1.583"/>
	<ellipse fill="#4D4D4F" cx="338.572" cy="274.486" rx="1.052" ry="1.141"/>
</g>
<path fill="none" stroke="#6D6E71" stroke-width="1.1792" stroke-miterlimit="10" d="M306.024,565.145
	c-13.76,0-24.955-11.193-24.955-24.946V268.452c0-13.757,11.194-24.948,24.955-24.948h114.821c13.76,0,24.955,11.191,24.955,24.948
	v271.747c0,13.753-11.195,24.946-24.955,24.946H306.024z"/>
<path fill="none" stroke="#A7A9AC" stroke-width="1.18" stroke-miterlimit="10" d="M305.618,564.221
	c-13.38,0-24.267-10.868-24.267-24.226V268.251c0-13.36,10.886-24.228,24.267-24.228h114.979c13.382,0,24.27,10.868,24.27,24.228
	v271.744c0,13.357-10.888,24.226-24.27,24.226H305.618z"/>
<path fill="none" stroke="#000000" stroke-width="2.0059" stroke-miterlimit="10" d="M305.709,560.936
	c-11.561,0-20.967-9.35-20.967-20.84v-271.84c0-11.492,9.406-20.842,20.967-20.842h115.513c11.561,0,20.966,9.35,20.966,20.842
	v271.84c0,11.49-9.405,20.84-20.966,20.84H305.709z"/>
<radialGradient id="SVGID_2_" cx="471.8887" cy="507.4688" r="58.5314" gradientTransform="matrix(-0.9848 -0.1736 0.1736 -0.9848 707.8758 1118.3937)" gradientUnits="userSpaceOnUse">
	<stop  offset="0.0313" style="stop-color:#000000"/>
	<stop  offset="0.2856" style="stop-color:#030303"/>
	<stop  offset="0.4613" style="stop-color:#0C0C0C"/>
	<stop  offset="0.5515" style="stop-color:#141414"/>
	<stop  offset="0.8182" style="stop-color:#3E3E40"/>
	<stop  offset="0.8492" style="stop-color:#424244"/>
	<stop  offset="0.8765" style="stop-color:#4D4D4F"/>
	<stop  offset="0.9023" style="stop-color:#5C5D60"/>
	<stop  offset="0.9273" style="stop-color:#717275"/>
	<stop  offset="0.9516" style="stop-color:#898B8E"/>
	<stop  offset="0.9754" style="stop-color:#A8AAAD"/>
	<stop  offset="0.9985" style="stop-color:#CED0D2"/>
	<stop  offset="1" style="stop-color:#D1D3D4"/>
	<stop  offset="1" style="stop-color:#D1D3D4"/>
	<stop  offset="1" style="stop-color:#D1D3D4"/>
</radialGradient>
<path fill="url(#SVGID_2_)" d="M365.992,519.242c-8.248-0.432-15.281,5.904-15.712,14.154c-0.431,8.246,5.905,15.281,14.154,15.711
	c8.247,0.432,15.282-5.904,15.712-14.152C380.577,526.705,374.24,519.674,365.992,519.242z"/>
<g>
	<g>
		<path fill="#414042" d="M379.29,273.516c0,1.82-1.47,3.3-3.29,3.3h-22c-1.82,0-3.29-1.479-3.29-3.3c0-0.91,0.37-1.74,0.96-2.33
			c0.6-0.6,1.42-0.971,2.33-0.971h22C377.82,270.215,379.29,271.695,379.29,273.516z"/>
		<path fill="#282829" d="M379.623,273.531c-0.003,1.465-1.037,2.885-2.428,3.33c-0.701,0.26-1.436,0.174-2.086,0.172l-2.021-0.037
			c-2.696-0.05-5.392-0.063-8.087-0.049l-8.087,0.082l-2.022,0.037c-0.653,0-1.387,0.088-2.096-0.176
			c-1.402-0.457-2.443-1.865-2.446-3.375c-0.037-1.517,0.932-2.971,2.396-3.512c0.357-0.135,0.736-0.221,1.119-0.234
			c0.369-0.019,0.683-0.016,1.027-0.023l2.022-0.027l8.087-0.069c2.695-0.005,5.392,0.022,8.087,0.077l2.022,0.039
			c0.643,0.024,1.408-0.039,2.138,0.258c1.436,0.524,2.426,1.996,2.376,3.492V273.531z M378.957,273.516
			c-0.008-1.225-0.859-2.356-1.988-2.717c-0.543-0.208-1.165-0.138-1.859-0.133l-2.022,0.039c-2.695,0.054-5.392,0.08-8.087,0.076
			l-8.087-0.07l-2.022-0.025l-0.994-0.013c-0.292-0.002-0.581,0.055-0.857,0.146c-1.101,0.346-1.974,1.491-1.968,2.696
			c-0.044,1.211,0.757,2.405,1.918,2.834c0.564,0.241,1.218,0.194,1.902,0.215l2.022,0.037l8.087,0.082
			c2.696,0.014,5.391,0.001,8.087-0.049l2.021-0.037c0.687-0.022,1.34,0.025,1.912-0.22c1.174-0.44,1.98-1.624,1.936-2.88V273.516z"
			/>
	</g>
	<path fill="#636466" d="M377.565,274.086c0,0.71-0.575,1.285-1.285,1.285h-22.134c-0.71,0-1.286-0.575-1.286-1.285l0,0
		c0-0.709,0.576-1.285,1.286-1.285h22.134C376.99,272.801,377.565,273.377,377.565,274.086L377.565,274.086z"/>
</g>
<rect id="ScreenRect" x="293.495" y="300.051" display="inline" fill="#FFFFFF" width="138.636" height="207.955"/>
<rect id="DeviceRect" x="280.04" y="242.205" display="none" fill="none" stroke="#000000" stroke-miterlimit="10" width="167.041" height="324"/>
<rect id="ResolutionRect" x="293.495" y="300.051" display="none" width="320" height="480" fill="none"/>
</svg>
