<?xml version="1.0" encoding="utf-8"?>
<!-- Generator: Adobe Illustrator 15.0.0, SVG Export Plug-In . SVG Version: 6.00 Build 0)  -->
<!DOCTYPE svg PUBLIC "-//W3C//DTD SVG 1.1//EN" "http://www.w3.org/Graphics/SVG/1.1/DTD/svg11.dtd" [
	<!ENTITY ns_extend "http://ns.adobe.com/Extensibility/1.0/">
	<!ENTITY ns_ai "http://ns.adobe.com/AdobeIllustrator/10.0/">
	<!ENTITY ns_graphs "http://ns.adobe.com/Graphs/1.0/">
	<!ENTITY ns_vars "http://ns.adobe.com/Variables/1.0/">
	<!ENTITY ns_imrep "http://ns.adobe.com/ImageReplacement/1.0/">
	<!ENTITY ns_sfw "http://ns.adobe.com/SaveForWeb/1.0/">
	<!ENTITY ns_custom "http://ns.adobe.com/GenericCustomNamespace/1.0/">
	<!ENTITY ns_adobe_xpath "http://ns.adobe.com/XPath/1.0/">
]>
<svg version="1.1" id="Layer_1" xmlns:x="&ns_extend;" xmlns:i="&ns_ai;" xmlns:graph="&ns_graphs;"
	 xmlns="http://www.w3.org/2000/svg" xmlns:xlink="http://www.w3.org/1999/xlink" x="0px" y="0px" width="16px" height="16px"
	 viewBox="0 0 16 16" enable-background="new 0 0 16 16" xml:space="preserve" preserveAspectRatio="none">
	<g>
		<path fill="#333333" d="M13.058,6.063l-0.005-1.976C12.958,1.795,10.739,0,8,0C5.257,0,3.039,1.795,2.949,4.106L2.943,6.063
			H0.699V16h14.602V6.063H13.058z M3.949,4.127C4.016,2.403,5.833,1,8,1c2.164,0,3.982,1.403,4.053,3.108l0.005,1.954h-0.662
			l-0.002-1.685c-0.12-1.567-1.673-2.891-3.39-2.891c-1.779,0-3.264,1.18-3.382,2.721L4.608,6.063H3.943L3.949,4.127z
			 M10.396,6.063H5.608L5.621,4.25c0.076-0.989,1.123-1.763,2.383-1.763c1.32,0,2.321,1.037,2.392,1.93V6.063z M14.301,15H1.699
			V7.063h12.602V15z"/>
		<path fill="#333333" d="M9.904,13.51l-0.929-2.163c0.407-0.298,0.657-0.77,0.657-1.29c0-0.893-0.735-1.618-1.64-1.618
			c-0.903,0-1.638,0.726-1.638,1.618c0,0.524,0.262,1.007,0.678,1.306L6.109,13.51H9.904z M7.627,12.51l0.379-0.883l0.379,0.883
			H7.627z M7.992,9.438c0.353,0,0.64,0.277,0.64,0.618c0,0.267-0.18,0.5-0.447,0.583l-0.189,0.058l-0.182-0.052
			c-0.271-0.076-0.46-0.318-0.46-0.589C7.354,9.716,7.641,9.438,7.992,9.438z"/>
	</g>
</svg>
