<?xml version="1.0" encoding="utf-8"?>
<!-- Generator: Adobe Illustrator 15.0.0, SVG Export Plug-In . SVG Version: 6.00 Build 0)  -->
<!DOCTYPE svg PUBLIC "-//W3C//DTD SVG 1.1//EN" "http://www.w3.org/Graphics/SVG/1.1/DTD/svg11.dtd" [
	<!ENTITY ns_extend "http://ns.adobe.com/Extensibility/1.0/">
	<!ENTITY ns_ai "http://ns.adobe.com/AdobeIllustrator/10.0/">
	<!ENTITY ns_graphs "http://ns.adobe.com/Graphs/1.0/">
	<!ENTITY ns_vars "http://ns.adobe.com/Variables/1.0/">
	<!ENTITY ns_imrep "http://ns.adobe.com/ImageReplacement/1.0/">
	<!ENTITY ns_sfw "http://ns.adobe.com/SaveForWeb/1.0/">
	<!ENTITY ns_custom "http://ns.adobe.com/GenericCustomNamespace/1.0/">
	<!ENTITY ns_adobe_xpath "http://ns.adobe.com/XPath/1.0/">
]>
<svg version="1.1" id="Layer_1" xmlns:x="&ns_extend;" xmlns:i="&ns_ai;" xmlns:graph="&ns_graphs;"
	 xmlns="http://www.w3.org/2000/svg" xmlns:xlink="http://www.w3.org/1999/xlink" x="0px" y="0px" width="16px" height="16px"
	 viewBox="0 0 16 16" enable-background="new 0 0 16 16" xml:space="preserve" preserveAspectRatio="none">
	<g>
		<path fill="none" stroke="#333333" d="M-6.457,11.688h-8.199c-1.877,0-3.4,1.6-3.4,3.572v7.855c0,1.974,1.523,3.572,3.4,3.572
			h8.199c1.878,0,3.4-1.599,3.4-3.572v-7.855C-3.057,13.288-4.579,11.688-6.457,11.688z"/>
	</g>
	<path fill="none" stroke="#333333" stroke-miterlimit="10" d="M-5.019,21.741l-2.52-2.552l2.365-2.397
		c0.496-0.503,0.496-1.318,0-1.82c-0.496-0.504-1.301-0.504-1.797,0l-2.365,2.397l-2.52-2.555c-0.496-0.503-1.3-0.503-1.797,0
		c-0.496,0.503-0.496,1.318,0,1.821l2.521,2.554l-2.365,2.396c-0.496,0.503-0.496,1.318,0,1.821
		c0.248,0.252,0.575,0.377,0.898,0.377c0.324,0,0.65-0.125,0.898-0.377l2.363-2.396l2.52,2.553
		c0.248,0.252,0.574,0.378,0.898,0.378s0.65-0.126,0.898-0.378C-4.522,23.061-4.522,22.244-5.019,21.741z"/>
	<path fill="#333333" d="M15.271,2.363c-0.283-0.236-0.614-0.25-0.831-0.25l-0.161,0l-10.914,0l-1.656,0l-0.071,0
		c-0.005,0-0.014,0-0.02,0H1.545c-0.008,0-0.017,0.002-0.025,0.002C1.221,2.12,0.783,2.164,0.513,2.53
		C0.203,2.821,0.004,3.237,0.004,3.704L0,12.29c0,0.879,0.692,1.594,1.543,1.594l12.91,0.005c0.852,0,1.544-0.715,1.544-1.593
		L16,3.71C16,3.142,15.707,2.645,15.271,2.363z M14.217,3.116c-0.021,0.017-0.043,0.035-0.064,0.054L8.376,8.199
		C8.142,8.427,8.027,8.445,7.998,8.445c-0.099,0-0.288-0.163-0.351-0.217L1.83,3.253C1.775,3.206,1.716,3.159,1.657,3.112
		L14.217,3.116z M14.453,12.889l-12.91-0.005C1.244,12.884,1,12.617,1,12.29l0.004-8.419c0.006,0.005,0.014,0.011,0.02,0.016
		l5.971,5.099c0.264,0.227,0.588,0.458,1.002,0.458c0.357,0,0.709-0.173,1.055-0.51l5.753-5.007
		c0.061-0.053,0.127-0.099,0.189-0.143C14.996,3.783,14.998,3.782,15,3.781l-0.003,8.515
		C14.997,12.623,14.753,12.889,14.453,12.889z"/>
</svg>
