<?xml version="1.0" encoding="utf-8"?>
<!-- Generator: Adobe Illustrator 15.0.0, SVG Export Plug-In . SVG Version: 6.00 Build 0)  -->
<!DOCTYPE svg PUBLIC "-//W3C//DTD SVG 1.1//EN" "http://www.w3.org/Graphics/SVG/1.1/DTD/svg11.dtd">
<svg version="1.1" id="Layer_1" xmlns="http://www.w3.org/2000/svg" xmlns:xlink="http://www.w3.org/1999/xlink" x="0px" y="0px"
	 width="393px" height="314.01px" viewBox="0 0 393 314.01" enable-background="new 0 0 393 314.01" xml:space="preserve" preserveAspectRatio="none">
<g>
	<path fill="#FFFFFF" stroke="#333333" stroke-width="2" stroke-miterlimit="10" d="M1,1v312.01h391V1H1z"/>
	<g>
		<g>
			<path fill="#999999" d="M48.669,116.657c1.604-0.106,2.801-0.667,3.857-1.162c0.896-0.42,1.742-0.816,2.807-0.949
				c3.332-0.409,5.563,1.451,8.147,3.611c1.02,0.853,2.073,1.734,3.231,2.485c2.743,1.78,5.244,2.671,7.482,2.671
				c1.643,0,3.143-0.479,4.493-1.439c0.954-0.677,1.565-1.526,2.156-2.346c0.454-0.63,0.883-1.226,1.45-1.722
				c1.496-1.306,13.74-6.48,19.624-8.967c2.306-0.975,3.972-1.679,4.64-1.989l-0.84-1.814c-0.638,0.295-2.377,1.03-4.578,1.961
				c-9.322,3.94-18.559,7.904-20.16,9.304c-0.742,0.647-1.259,1.365-1.759,2.059c-0.519,0.72-1.008,1.399-1.692,1.885
				c-2.49,1.771-5.672,1.352-9.729-1.279c-1.056-0.686-2.063-1.527-3.037-2.341c-2.694-2.252-5.477-4.589-9.676-4.061
				c-1.381,0.171-2.412,0.655-3.41,1.123c-0.982,0.461-1.912,0.896-3.141,0.977c-2.028,0.134-4.041-0.458-6.168-1.084
				c-2.495-0.735-5.074-1.497-7.877-1.106c-1.148,0.16-2.303,0.784-3.418,1.388c-1.192,0.645-2.426,1.313-3.352,1.223
				c-0.929-0.088-2.141-1.022-3.313-1.925c-1.125-0.867-2.289-1.764-3.512-2.196c-1.5-0.53-3.096-0.708-4.639-0.879
				c-1.156-0.128-2.248-0.25-3.256-0.508l-0.496,1.938c1.143,0.293,2.357,0.428,3.531,0.559c1.431,0.159,2.91,0.323,4.193,0.777
				c0.92,0.326,1.956,1.124,2.957,1.895c1.396,1.076,2.84,2.188,4.344,2.332c1.528,0.149,3.036-0.668,4.492-1.455
				c0.96-0.519,1.953-1.056,2.744-1.167c2.371-0.328,4.637,0.337,7.035,1.044C44.005,116.144,46.284,116.811,48.669,116.657z"/>
			<path fill="#999999" d="M153.666,283.656c-1.327,0.849-2.102,1.569-2.667,2.098c-1.029,0.958-1.113,1.039-3.818,0.166
				c-0.85-0.272-1.988-0.64-2.322-0.828c-0.006-0.032-0.011-0.065-0.018-0.104c-0.088-0.478-0.233-1.277-1.121-2.648
				c-0.41-0.636-0.506-1.023-0.59-1.367c-0.301-1.23-0.847-1.688-2.917-2.443c-1.969-0.721-3.587-0.771-4.812-0.151
				c-0.367,0.187-0.69,0.429-0.968,0.724c-0.009-0.02-0.017-0.037-0.025-0.055c-0.552-1.175-1.239-2.637-3.007-3.107
				c-2.074-0.558-4.403,1.357-6.464,3.043c-0.702,0.574-1.365,1.117-1.81,1.369c-3.93,2.234-9.055,2.823-14.01,3.394
				c-1.855,0.213-3.606,0.414-5.287,0.698c-2.891,0.488-10.225,1.248-15.891-2.26c-0.641-0.396-1.254-0.926-1.903-1.486
				c-1.896-1.641-4.252-3.68-7.86-2.068l-0.555,0.247l-0.036,0.606c-0.335,5.603-3.813,5.857-9.938,5.802
				c-4.543-0.031-9.686-0.074-12.822,3.907c-0.727,0.922-1.171,1.711-1.527,2.345c-0.783,1.394-1.107,1.969-3.699,2.407
				c-1.236,0.211-2.408,0.186-3.539,0.156c-2.602-0.058-5.292-0.125-7.545,3.063c-0.482,0.683-0.88,1.366-1.182,2.032l1.822,0.824
				c0.249-0.551,0.584-1.123,0.992-1.703c1.639-2.317,3.319-2.276,5.865-2.219c1.167,0.025,2.494,0.06,3.92-0.183
				c3.369-0.572,4.102-1.612,5.108-3.399c0.339-0.604,0.725-1.287,1.354-2.088c2.531-3.213,6.955-3.177,11.237-3.146
				c5.228,0.034,11.138,0.085,11.896-7.038c2.014-0.662,3.322,0.34,5.201,1.964c0.68,0.588,1.383,1.196,2.158,1.676
				c6.246,3.864,14.164,3.058,17.277,2.53c1.627-0.275,3.354-0.475,5.182-0.684c5.154-0.594,10.486-1.205,14.77-3.643
				c0.591-0.336,1.284-0.902,2.088-1.561c1.348-1.103,3.606-2.953,4.68-2.659c0.83,0.222,1.176,0.881,1.715,2.026
				c0.291,0.621,0.592,1.26,1.049,1.849l1.203,1.549l0.547-1.883c0.182-0.623,0.479-1.031,0.907-1.248
				c0.69-0.353,1.834-0.263,3.222,0.245c1.545,0.564,1.571,0.675,1.661,1.041c0.104,0.422,0.26,1.06,0.854,1.978
				c0.671,1.036,0.765,1.55,0.832,1.923c0.25,1.367,0.843,1.56,3.694,2.478c3.472,1.118,4.197,0.884,5.795-0.607
				c0.538-0.501,1.207-1.125,2.382-1.877c1.851-1.184,4.26-1.034,5.176-0.106c0.777,0.785,0.251,2.004-0.328,2.888
				c-0.384,0.586-0.974,0.935-1.659,1.337c-0.938,0.553-2,1.18-2.618,2.529c-0.835,1.822-0.429,4.964,0.079,7.797l1.969-0.354
				c-0.227-1.265-0.916-5.111-0.229-6.611c0.356-0.778,1.001-1.157,1.815-1.639c0.787-0.463,1.678-0.988,2.316-1.965
				c1.945-2.97,0.701-4.759,0.076-5.39C159.644,282.11,156.2,282.034,153.666,283.656z"/>
			<path fill="#999999" d="M374.992,251.196c1.145-0.196,3.09-0.262,4.596-0.008l0.334-1.973c-1.805-0.306-3.998-0.209-5.271,0.01
				c-1.993,0.346-3.5,1.746-4.827,2.982c-0.865,0.805-1.693,1.575-2.486,1.884c-0.604-1.932-1.631-3.526-2.629-5.077
				c-0.959-1.492-1.864-2.899-2.326-4.504c-0.479-1.671-0.315-3.916-0.157-6.087c0.121-1.661,0.248-3.38,0.078-4.86l-0.076-0.684
				l-0.666-0.172c-1.429-0.367-2.734-0.857-3.998-1.332c-1.672-0.628-3.4-1.275-5.461-1.675c-2.094-0.406-3.482-0.902-4.832-2.36
				c-2.125-2.299-3.785-5.35-5.31-8.508c0.779-0.9,1.029-2.102,1.248-3.204c0.238-1.211,0.465-2.354,1.312-3.136
				c1.225-1.133,2.285-1.799,3.219-2.389c2.027-1.275,3.627-2.285,4.508-6.514c0.492-2.361,0.637-4.087,0.754-5.475
				c0.281-3.348,0.357-4.246,5.074-7.454l-0.111-0.164c2.322,1.229,4.977,2.04,7.504,2.198c0.312,0.021,0.615,0.029,0.916,0.029
				c2.859,0,5.277-0.877,7.037-2.563c1.605-1.537,1.84-3.709,2.047-5.625c0.146-1.354,0.285-2.631,0.896-3.047
				c0.438-0.301,1.297-0.291,2.489,0.029l0.519-1.933c-1.822-0.489-3.177-0.405-4.14,0.252c-1.366,0.937-1.563,2.739-1.752,4.481
				c-0.178,1.652-0.362,3.363-1.44,4.396c-1.935,1.85-4.574,2.104-6.445,1.98c-4.051-0.256-8.641-2.475-10.911-5.276
				c-2.375-2.933-2.425-5.207-2.48-7.842c-0.031-1.5-0.064-3.052-0.531-4.795c-0.385-1.448-0.777-2.695-1.121-3.796
				c-0.92-2.932-1.594-5.127-1.682-9.034c4.086-0.88,4.902-3.211,5.617-5.28c0.477-1.376,0.926-2.676,2.332-3.718
				c1.225-0.909,2.449-0.902,3.731-0.892c2.629-0.008,4.798-0.352,5.933-4.955c1.873,0.061,3.727,0.317,5.674,0.587
				c1.766,0.245,3.59,0.498,5.443,0.592c0.006,0.006,0.012,0.012,0.018,0.017c-0.006-0.005-0.01-0.011-0.016-0.017
				c0.104,0.005,0.211,0.01,0.317,0.015l0.002-0.037l0.195,0.195c-0.173,0.171-0.363,0.213-0.425,0.214
				c0.084,0.005,0.164,0.016,0.242,0.026c0.265,0.037,1.07,0.152,1.383-0.613c0.322-0.792-0.358-1.292-0.766-1.591l-0.246-0.181
				l-0.305-0.012c-1.867-0.076-3.75-0.337-5.572-0.589c-2.193-0.304-4.461-0.619-6.746-0.62h-0.82L364.7,143.9
				c-0.841,4.186-2.021,4.167-4.14,4.165c-1.414-0.009-3.176-0.021-4.938,1.285c-1.902,1.41-2.502,3.143-3.029,4.671
				c-0.623,1.802-1.09,3.152-3.568,3.841c-0.278-1.049-0.51-2.247-0.75-3.499c-0.571-2.968-1.161-6.038-2.59-8.217
				c-1.377-2.098-4.399-3.356-7.326-4.572c-2.913-1.212-5.928-2.465-6.631-4.297c-0.403-1.053-1.631-4.26-3.903-3.909
				c-4.343,0.663-6.69,15.576-7.443,22.396c-0.178-0.107-0.354-0.224-0.521-0.356c-1.184-0.928-2.279-2.029-3.439-3.196
				c-1.393-1.4-2.832-2.848-4.482-4.028c-3.452-2.467-6.758-5.17-9.954-7.783c-0.494-0.405-0.992-0.812-1.492-1.218
				c-1.041-3.322-0.306-9.25,0.021-11.882c0.463-3.74,2.289-5.583,4.603-7.916c0.784-0.792,1.598-1.611,2.422-2.568
				c2.76-3.207,2.959-3.968,3.358-6.678c0.101-0.673,0.22-1.487,0.42-2.535c0.16-0.837,0.339-1.609,0.513-2.35
				c0.435-1.872,0.847-3.64,0.778-5.754c-0.049-1.52-0.559-2.776-1.051-3.99c-0.567-1.396-1.059-2.603-0.842-4.099
				c0.111-0.787,0.508-1.365,0.965-2.034c1.752-2.563,2.555-4.982-2.867-12.364c0.957-2.274,0.894-5.118,0.849-6.884
				c-0.008-0.317-0.017-0.6-0.017-0.84l-0.008-0.126c-0.174-1.375-0.277-2.775-0.377-4.129c-0.313-4.266-0.609-8.296-3.16-10.291
				c-0.365-0.286-0.766-0.521-1.199-0.706c1.105-0.816,1.837-1.867,2.525-2.896c0.68-1.012,1.318-1.967,2.268-2.531
				c1.798-1.067,3.916-1.076,6.164-1.066c1.23-0.001,2.543,0,3.839-0.184c0.866-0.124,1.36-0.868,1.758-1.465
				c0.112-0.17,0.291-0.438,0.403-0.556c0.386,0.019,1.005,0.185,1.511,0.321c0.776,0.208,1.392,0.374,1.907,0.305
				c0.605-0.085,1.23,0.156,1.957,0.431c0.863,0.326,1.925,0.725,3.115,0.52c-0.207,1.608,0.142,4.001,2.943,6.322
				c2.557,2.115,5.988,2.142,9.307,2.168c1.617,0.012,3.146,0.024,4.469,0.282c4.132,0.804,10.882,4.314,12.81,8.816
				c0.799,1.868,0.938,3.516,1.076,5.109c0.256,3.01,0.498,5.853,5.172,8.482c0.996,0.561,1.879,0.991,2.658,1.371
				c1.614,0.786,2.889,1.407,4.575,2.813c0.703,0.587,1.203,1.121,1.687,1.637c1.151,1.233,2.146,2.297,4.938,3.069l0.533-1.928
				c-2.25-0.622-2.951-1.372-4.012-2.507c-0.5-0.535-1.066-1.141-1.865-1.808c-1.875-1.562-3.313-2.263-4.979-3.075
				c-0.791-0.385-1.609-0.784-2.556-1.316c-3.752-2.11-3.914-4.02-4.16-6.909c-0.143-1.669-0.305-3.562-1.229-5.726
				c-2.299-5.371-9.871-9.138-14.264-9.992c-1.507-0.293-3.199-0.307-4.837-0.319c-2.969-0.023-6.038-0.047-8.047-1.709
				c-1.694-1.404-2.446-2.933-2.231-4.544c0.394-2.946,3.883-5.793,6.959-7.191c3.131-1.421,5.271-2.451,8.563-4.766
				c2.098-1.474,3.414-1.684,5.082-1.949c1.067-0.169,2.278-0.362,3.809-0.915c3.578-1.294,9.629-4.907,11.254-8.55
				c0.613-1.374,0.688-3.321,0.76-5.205c0.057-1.487,0.115-3.025,0.451-3.904l-1.869-0.714c-0.453,1.188-0.516,2.817-0.58,4.542
				c-0.063,1.694-0.131,3.445-0.588,4.465c-1.311,2.939-6.809,6.292-10.107,7.485c-1.352,0.488-2.414,0.657-3.44,0.82
				c-1.771,0.282-3.442,0.547-5.92,2.288c-3.045,2.14-4.935,3.081-8.238,4.581c-2.633,1.197-5.711,3.39-7.227,6.154
				c-1.191,1.017-2.041,0.708-3.302,0.231c-0.854-0.324-1.828-0.689-2.912-0.544c-0.202,0.014-0.758-0.149-1.141-0.252
				c-0.764-0.206-1.561-0.422-2.227-0.389c-0.938,0.039-1.457,0.821-1.873,1.449c-0.127,0.189-0.33,0.497-0.449,0.602
				c-1.131,0.153-2.332,0.145-3.48,0.153c-2.418-0.005-4.918-0.001-7.186,1.347c-1.336,0.795-2.135,1.985-2.906,3.137
				c-0.67,1-1.303,1.944-2.248,2.561c-1.315,0.858-2.043,0.882-2.963,0.913c-0.682,0.023-1.455,0.049-2.473,0.384
				c-1.234,0.407-2.463,0.993-3.65,1.561c-3.059,1.461-5.949,2.839-9.369,1.74c-3.026-0.975-5.985-3.366-8.85-5.679
				c-1.959-1.583-3.811-3.079-5.717-4.187c-1.48-0.859-2.807-1.45-3.979-1.97c-3.072-1.366-5.103-2.268-7.002-6.714
				c-1.052-2.459-3.236-7.576-2.277-10.4l0.084-0.251c0.887-2.603,1.992-5.852,2.002-9.397l0.262-0.058
				c-0.115-0.514-0.223-0.979-0.322-1.4c-0.108-1.266-0.375-2.561-0.854-3.872l-0.178-0.487l-0.5-0.136
				c-0.482-0.131-0.869-0.043-1.156,0.256c-0.451,0.467-0.291,0.991-0.104,1.598c0.151,0.492,0.432,1.398,0.813,2.977
				c0.272,3.612-0.884,7.008-1.856,9.875l-0.086,0.253c-0.312,0.914-0.386,1.95-0.31,3.033c-1.06,2.289-2.002,2.269-4.222,2.213
				c-0.451-0.012-0.932-0.023-1.444-0.016l-0.746,0.01c-4.478,0.059-4.922,0.121-9.383,2.576c-5.229,2.876-8.396,3.322-13.642,4.06
				c-1.604,0.226-3.406,0.479-5.512,0.835c-1.752-1.226-4.316-1.206-6.795-1.189c-1.26,0.01-2.447,0.019-3.391-0.144l-0.34,1.971
				c1.119,0.192,2.393,0.184,3.744,0.173c2.299-0.018,4.68-0.035,5.854,0.999l0.359,0.317l0.471-0.082
				c2.266-0.391,4.189-0.662,5.887-0.9c5.285-0.743,8.775-1.234,14.328-4.288c4.127-2.271,4.209-2.272,8.445-2.328l0.748-0.01
				c0.485-0.008,0.94,0.004,1.365,0.016c1.784,0.045,3.393,0.081,4.766-1.346c0.576,2.244,1.504,4.423,2.146,5.929
				c0.226,0.524,0.453,0.998,0.687,1.443c-2.939,1.361-5.656,4.097-7.729,6.192c-1.299,1.313-2.188,1.548-3.315,1.847
				c-0.949,0.251-2.025,0.537-3.354,1.479c-2.205,1.566-2.392,4.157-2.555,6.442c-0.188,2.648-0.404,4.303-2.369,4.925l-0.824,0.261
				l0.142,0.854c0.106,0.665,0.229,1.323,0.348,1.978c0.215,1.179,0.42,2.307,0.559,3.437c-1.52,0.098-2.42-0.529-3.512-1.297
				c-0.871-0.613-1.857-1.307-3.209-1.572c-2.301-0.452-4.266,0.078-6.168,0.591c-0.871,0.235-1.771,0.478-2.684,0.615
				c-2.465,0.371-3.076,0.041-3.724-0.311c-0.758-0.413-1.508-0.729-2.993-0.654c0.102-0.495,0.143-1.019,0.08-1.59
				c-0.33-3.016-2.363-4.308-4.511-5.256l-0.808,1.83c1.949,0.86,3.119,1.732,3.328,3.644c0.183,1.652-0.914,2.842-2.182,4.221
				c-1.166,1.268-2.488,2.706-2.783,4.685c-0.662,4.438,2.715,6.554,5.18,8.099c4.132,2.589,5.582,1.34,7.326-0.863
				c0.715-0.904,1.527-1.929,2.869-2.828c1.568-1.052,2.894-1.382,3.938-0.979c2.485,0.961,3.709,5.887,4.603,9.484
				c0.241,0.979,0.469,1.889,0.696,2.655c1.021,3.394,3.455,4.844,5.603,6.125c1.646,0.981,3.201,1.909,4.072,3.623
				c0.811,1.595,0.28,2.571-0.453,3.922c-0.685,1.261-1.535,2.831-0.9,4.944c0.908,3.021,3.449,3.332,5.49,3.581
				c1.252,0.153,2.438,0.298,3.334,0.936c0.901,0.639,1.514,2.084,2.104,3.481c0.82,1.937,1.668,3.939,3.523,4.603
				c1.363,0.485,2.721-0.014,4.031-0.499c1.075-0.399,2.194-0.81,3.258-0.645c2.096,0.326,3.817,1.88,5.481,3.382
				c0.69,0.624,1.406,1.269,2.132,1.806c2.348,1.739,4.885,2.814,7.34,3.854c1.817,0.771,3.537,1.499,5.203,2.48
				c5.02,2.959,9.545,6.513,13.893,10.051c0.033,0.082,0.055,0.177,0.09,0.256l0.145-0.065c0.56,0.454,1.113,0.907,1.664,1.358
				c3.223,2.633,6.553,5.357,10.057,7.862c1.517,1.083,2.896,2.471,4.229,3.812c1.152,1.158,2.345,2.355,3.623,3.358
				c0.494,0.388,1.017,0.68,1.55,0.917c-0.019,0.205-0.031,0.396-0.041,0.553l1.995,0.127c0-0.018,0.003-0.035,0.005-0.053
				c0.62,0.139,1.237,0.236,1.827,0.326c1.578,0.244,3.07,0.474,4.177,1.42c2.239,1.918,1.828,7.487,1.498,11.965
				c-0.14,1.867-0.271,3.631-0.201,4.998c0.172,3.367-0.162,5.101-1.486,7.724c-0.314,0.62-0.729,1.259-1.166,1.935
				c-1.189,1.832-2.537,3.906-2.174,6.313c0.307,2.033,2.213,3.969,3.896,5.676c0.632,0.641,1.226,1.244,1.636,1.758
				c1.717,2.15,2.977,4.723,4.196,7.211c0.576,1.178,1.175,2.396,1.814,3.563c0.907,1.652,1.758,3.482,2.655,5.418
				c1.978,4.253,4.021,8.65,6.994,11.865c1.707,1.847,3.531,2.504,5.922,2.967c1.896,0.367,3.469,0.958,5.138,1.584
				c1.112,0.418,2.256,0.847,3.51,1.208c0.058,1.147-0.039,2.453-0.14,3.821c-0.17,2.347-0.348,4.771,0.23,6.783
				c0.541,1.889,1.57,3.487,2.566,5.035c1.107,1.721,2.152,3.344,2.605,5.355l0.174,0.768l0.787,0.014c0.02,0,0.036,0,0.057,0
				c1.783,0,3.182-1.301,4.535-2.561C372.363,252.576,373.583,251.44,374.992,251.196z M280.5,126.033
				c-2.455-1.04-4.773-2.022-6.93-3.62c-0.646-0.479-1.295-1.064-1.98-1.683c-1.795-1.62-3.83-3.457-6.516-3.875
				c-1.58-0.246-3.004,0.282-4.26,0.746c-1.064,0.394-1.986,0.732-2.662,0.49c-1.029-0.368-1.674-1.889-2.355-3.499
				c-0.699-1.655-1.424-3.365-2.787-4.333c-1.311-0.931-2.873-1.121-4.25-1.29c-2.158-0.264-3.309-0.48-3.816-2.171
				c-0.395-1.316,0.107-2.242,0.742-3.415c0.787-1.448,1.765-3.25,0.479-5.782c-1.133-2.23-3.015-3.351-4.832-4.435
				c-2.013-1.2-3.912-2.333-4.709-4.982c-0.222-0.738-0.438-1.616-0.672-2.561c-1.056-4.247-2.365-9.533-5.822-10.869
				c-1.687-0.651-3.629-0.253-5.771,1.183c-1.603,1.073-2.557,2.279-3.324,3.248c-1.398,1.767-1.775,2.24-4.695,0.41
				c-2.859-1.792-4.699-3.186-4.264-6.11c0.203-1.372,1.211-2.467,2.277-3.626c0.592-0.645,1.211-1.332,1.715-2.099
				c1.844-0.272,2.365-0.007,2.94,0.306c1.043,0.568,2.074,0.969,4.978,0.532c1.022-0.154,1.979-0.413,2.904-0.662
				c1.76-0.474,3.418-0.923,5.262-0.559c0.936,0.184,1.635,0.676,2.445,1.246c1.129,0.794,2.377,1.673,4.33,1.673
				c0.495,0,1.038-0.057,1.637-0.187l0.858-0.186l-0.073-0.875c-0.132-1.541-0.41-3.075-0.683-4.559
				c-0.067-0.384-0.14-0.769-0.207-1.156c2.578-1.282,2.776-4.076,2.94-6.361c0.146-2.023,0.279-3.934,1.718-4.954
				c1.03-0.732,1.846-0.948,2.707-1.176c1.192-0.316,2.545-0.673,4.26-2.409c1.981-2.002,4.638-4.667,7.312-5.827
				c1.809,2.576,3.864,3.49,6.307,4.576c1.18,0.524,2.4,1.067,3.787,1.872c1.773,1.03,3.566,2.479,5.465,4.013
				c3.004,2.427,6.111,4.938,9.492,6.026c1.07,0.345,2.1,0.49,3.092,0.49c2.875,0,5.43-1.22,7.752-2.329
				c1.184-0.565,2.303-1.099,3.416-1.466c0.586-0.192,1.063-0.245,1.531-0.269l0.031,0.173c2.09-0.359,3.594-0.153,4.596,0.63
				c1.854,1.449,2.119,5.05,2.398,8.862c0.1,1.36,0.202,2.766,0.379,4.173c0.002,0.24,0.008,0.518,0.016,0.826
				c0.053,2.133,0.152,6.103-1.822,7.64c-1.033,0.804-2.629,0.913-4.74,0.323c-1.904-0.533-2.99-1.996-4.139-3.545
				c-0.947-1.276-1.924-2.595-3.389-3.305c-1.572-0.762-3.674-0.572-5.703-0.39c-0.832,0.076-1.662,0.148-2.318,0.145
				c-0.537-1.425-1.227-2.282-2.139-2.677c-1.416-0.612-2.898,0.113-4.33,0.813c-0.637,0.312-1.297,0.634-1.963,0.856
				c-3.357,1.12-3.592,1.079-6.484,0.554l-0.48-0.087c-0.596-0.107-1.258-0.294-1.957-0.493c-2.164-0.612-4.854-1.374-7.161,0.017
				c-1.394,0.839-1.771,2.279-2.105,3.549c-0.372,1.413-0.67,2.344-1.745,2.826c-0.39-0.526-0.955-1.657-0.98-2.102l-0.037-0.682
				l-0.945-0.31c-2.473-0.817-5.277-1.742-8.111,1.017l-0.293,0.285L246.775,76c-0.09,3.103-0.148,5.058,2.024,7.823
				c-2.563,4.792,6.406,14.222,11.341,19.408c0.735,0.776,1.493,1.571,1.889,2.028l-0.025,0.047l0.389,0.51
				c1.842,2.421,4.041,3.984,6.367,5.64c1.324,0.942,2.695,1.917,4.006,3.073c2.074,1.828,2.353,2.416,2.646,3.038
				c0.346,0.733,0.738,1.564,2.809,3.553c1.932,1.856,3.451,2.399,4.92,2.925c1.479,0.529,2.875,1.029,4.91,2.947
				c0.852,0.804,0.945,1.223,1.064,1.753c0.227,1.016,0.547,1.904,2.391,3.302c0.578,0.437,1.045,0.835,1.436,1.244
				c-2.235-1.639-4.555-3.216-7.002-4.659C284.158,127.583,282.298,126.794,280.5,126.033z M296.273,135.81
				c-0.396-2.504-1.568-3.848-3.56-5.357c-1.405-1.066-1.514-1.542-1.647-2.145c-0.154-0.69-0.346-1.548-1.646-2.772
				c-2.338-2.205-4.075-2.826-5.606-3.375c-1.387-0.496-2.584-0.925-4.209-2.484c-1.806-1.733-2.101-2.359-2.388-2.965
				c-0.45-0.956-0.913-1.729-3.131-3.683c-1.389-1.226-2.803-2.231-4.17-3.203c-2.129-1.516-4.146-2.95-5.776-5.019
				c-0.232-0.517-0.961-1.281-2.552-2.955c-3.719-3.908-13.594-14.289-10.793-17.417l0.588-0.655l-0.575-0.666
				c-2.168-2.506-2.129-3.838-2.033-7.057l0.014-0.555c1.787-1.528,3.479-1.049,5.555-0.367c0.361,1.217,1.338,3.025,2.277,3.346
				c0.35,0.121,0.713,0.081,1.008-0.099c2.316-0.826,2.822-2.742,3.229-4.288c0.314-1.194,0.541-1.946,1.205-2.346
				c1.564-0.944,3.609-0.364,5.582,0.194c0.75,0.212,1.457,0.413,2.15,0.537l0.477,0.086c3.215,0.583,3.771,0.61,7.476-0.625
				c0.791-0.265,1.545-0.632,2.209-0.957c1.071-0.524,2.088-1.021,2.657-0.774c0.314,0.136,0.789,0.612,1.253,2.104l0.196,0.636
				l0.662,0.063c0.996,0.094,2.123-0.008,3.318-0.115c1.676-0.152,3.576-0.323,4.65,0.197c1.022,0.495,1.815,1.564,2.653,2.696
				c1.24,1.67,2.644,3.563,5.207,4.28c2.761,0.771,4.947,0.544,6.509-0.67c0.221-0.171,0.416-0.362,0.6-0.562
				c4.486,6.286,3.457,7.811,2.361,9.413c-0.521,0.765-1.115,1.632-1.293,2.879c-0.293,2.031,0.377,3.68,0.969,5.135
				c0.447,1.1,0.867,2.138,0.904,3.3c0.059,1.854-0.308,3.422-0.729,5.239c-0.179,0.765-0.363,1.563-0.527,2.427
				c-0.207,1.083-0.332,1.924-0.434,2.619c-0.349,2.352-0.41,2.776-2.896,5.665c-0.779,0.904-1.564,1.697-2.326,2.464
				c-2.377,2.397-4.621,4.661-5.166,9.079c-0.431,3.459-0.756,7.17-0.429,10.193C297.494,136.771,296.886,136.289,296.273,135.81z
				 M337.902,210.452c-0.619-1.127-1.207-2.322-1.773-3.479c-1.268-2.584-2.576-5.257-4.43-7.58
				c-0.473-0.594-1.105-1.232-1.773-1.912c-1.395-1.416-3.133-3.18-3.342-4.569c-0.25-1.655,0.781-3.243,1.871-4.925
				c0.449-0.69,0.914-1.405,1.275-2.122c1.653-3.278,1.867-5.427,1.699-8.728c-0.063-1.242,0.063-2.945,0.196-4.748
				c0.383-5.184,0.815-11.057-2.19-13.633c-1.539-1.317-3.388-1.601-5.175-1.876c-0.678-0.104-1.338-0.209-1.973-0.365
				c0.918-9.861,3.883-20.867,5.834-21.165c0.153-0.029,0.869,0.39,1.735,2.649c1.011,2.633,4.427,4.053,7.73,5.427
				c2.646,1.1,5.383,2.238,6.42,3.822c1.211,1.849,1.764,4.721,2.299,7.499c0.303,1.572,0.594,3.055,0.994,4.353h-0.457
				c0,4.784,0.789,7.303,1.791,10.492c0.355,1.135,0.723,2.307,1.098,3.713c0.402,1.512,0.433,2.877,0.463,4.322
				c0.062,2.75,0.121,5.594,2.927,9.059c0.832,1.025,1.91,1.975,3.139,2.801c-4.577,3.229-4.946,4.781-5.258,8.465
				c-0.11,1.333-0.25,2.992-0.717,5.232c-0.709,3.397-1.742,4.049-3.617,5.229c-0.957,0.604-2.147,1.354-3.51,2.61
				c-1.324,1.225-1.64,2.813-1.916,4.218c-0.107,0.546-0.205,1.005-0.326,1.388c-0.101-0.213-0.201-0.427-0.299-0.64
				C339.705,214.022,338.841,212.165,337.902,210.452z"/>
			<path fill="#999999" d="M377.074,287.375c-0.508-1.024-1.326-1.688-2.074-2.298c-0.734-0.596-1.367-1.11-1.697-1.908
				c-0.559-1.361-0.344-3.729-0.154-5.814c0.109-1.209,0.213-2.351,0.175-3.299c-0.062-1.553-0.382-3.033-0.693-4.467
				c-0.403-1.861-0.784-3.62-0.582-5.389c0.293-2.53,0.509-2.577,2.175-2.945c0.496-0.109,1.112-0.247,1.823-0.47
				c0.14-0.044,0.494-0.146,0.979-0.288c0.787-0.229,1.908-0.555,3.021-0.891l-0.577-1.914c-1.104,0.334-2.218,0.656-2.998,0.884
				c-0.509,0.147-0.877,0.255-1.021,0.301c-0.631,0.197-1.178,0.317-1.66,0.425c-2.324,0.514-3.313,1.08-3.727,4.67
				c-0.242,2.098,0.192,4.104,0.615,6.043c0.305,1.409,0.596,2.741,0.647,4.119c0.032,0.819-0.063,1.896-0.168,3.038
				c-0.211,2.315-0.449,4.94,0.297,6.759c0.522,1.27,1.459,2.028,2.285,2.699c0.928,0.754,1.659,1.35,1.803,2.544l0.229,1.918
				l1.435-1.294c0.549-0.495,1.554-1.283,2.092-1.006l0.916-1.777C379.076,286.426,377.932,286.841,377.074,287.375z"/>
			<path fill="#999999" d="M144.013,29.005c1.547,0.537,2.455,0.68,3.119,0.785c0.884,0.14,1.094,0.172,2.192,1.247
				c0.573,0.561,1.765,2.466,2.917,4.308c1.411,2.255,2.869,4.587,3.909,5.667l1.44-1.387c-0.895-0.93-2.36-3.273-3.653-5.34
				c-1.325-2.119-2.471-3.949-3.215-4.677c-1.488-1.457-2.114-1.609-3.28-1.793c-0.621-0.098-1.396-0.22-2.773-0.699
				c-3.723-1.292-3.683-3.879-3.292-8.341c0.126-1.428,0.255-2.905,0.184-4.391l-1.998,0.096c0.065,1.351-0.059,2.759-0.178,4.121
				C139.034,22.603,138.637,27.139,144.013,29.005z"/>
			<path fill="#999999" d="M84.585,37.065l0.975-0.117l-0.099-0.976c-0.021-0.208,0.058-0.686,0.12-1.069
				c0.041-0.251,0.084-0.505,0.114-0.757c2.575-0.411,4.673,0.087,6.399,1.509c5.109,4.208,5.279,15.373,5.209,18.694l2,0.042
				c0.096-4.549-0.292-15.631-5.938-20.28c-2.359-1.943-5.33-2.542-8.838-1.779l-0.83,0.18l0.045,0.849
				c0.016,0.302-0.064,0.789-0.135,1.217c-0.029,0.176-0.059,0.349-0.082,0.518c-1.457-0.104-3.02-0.897-3.491-2.281
				c-0.286-0.84-0.344-1.254-0.349-1.439c0.154-0.026,0.394-0.042,0.582-0.055c0.717-0.049,1.697-0.117,2.67-0.683
				c0.742-0.432,1.476-0.726,2.186-1.01c2.279-0.914,4.441-1.78,4.131-6.435c2.119-0.367,4.766-1.441,6.439-3.534
				c1.22-1.525,1.707-3.384,1.406-5.375l-1.977,0.298c0.217,1.446-0.117,2.734-0.992,3.829c-1.453,1.816-4.08,2.773-6.039,2.915
				L87.04,21.4l0.133,1.047c0.506,4.002-0.527,4.417-2.793,5.324c-0.74,0.296-1.578,0.632-2.447,1.138
				c-0.569,0.331-1.195,0.374-1.801,0.416c-0.762,0.052-1.625,0.111-2.133,0.876c-0.455,0.684-0.414,1.628,0.144,3.26
				C79.04,36.093,82.124,37.366,84.585,37.065z"/>
		</g>
		<path fill="none" stroke="#333333" stroke-width="2" stroke-miterlimit="10" d="M249.609,249.021
			c-3.371,0.928-5.816,4.166-8.805,5.275c-2.328,0.864-5.925,0.525-8.425,0.403c-2.754-0.134-3.965-0.291-6.603,0.403
			c-4.711,1.238-3.702,0.469-8.643-0.797c-3.51-0.898-3.488,1.551-6.691,1.707c-3.024,0.146-4.78-3.197-7.377-3.945
			c-2.614-0.756-5.392,0.767-7.434,0.893c-2.432,0.146-4.299-0.979-6.624-1.001c-4.051-0.039-4.458,5.666-3.285,9.671
			c1.56,5.323,9.062,6.619,13.067,10.339c2.973,2.761,3.639,3.11,7.682,3.166c5.457,0.076,4.914,1.425,9.086,3.757
			c2.42,1.354,6.131,0.473,8.422,2.424c2.427,2.068,2.476,5.295,5.92,6.908c3.224,1.51,7.17,1.639,10.632,3.11
			c0.399-2.271,2.221-4.099,2.989-6.188c0.627-1.697,0.586-3.476,0.853-5.285c0.558-3.782-0.31-7.022-0.011-10.797
			c0.238-3.045,0.507-9.225,1.656-11.892c0.42-0.976,7.066-8.542,0.541-7.282"/>
		<path fill="none" stroke="#333333" stroke-width="2" stroke-miterlimit="10" d="M98.304,54.37
			c-0.19,1.971,0.155,3.533,0.874,5.332c0.706,1.768,3.996,4.034,4.181,5.497c0.516,4.089-6.063,5.47-9.257,5.502
			c-0.198,1.461,1.634,3.818,2.266,4.957c1.167,2.103,0.521,3.45,3.855,3.459c-0.702,2.68-0.95,5.793-1.54,8.184
			c-1.004,4.067-0.287,4.483,3.884,5.801c3.295,1.04,6.298,0.614,6.197,4.573c-0.087,3.445-6.121,4.459-2.626,8.267
			c2.261-1.431,7.553-1.974,9.987-3.05c3.885-1.717,3.291-5.312,7.13-6.554c4.607-1.491,6.176-4.108,10.457-2.652
			c3.955,1.346,4.688,2.924,7.982,4.974c2.503,1.557,5.07,0.791,7.361,3.031c2.888,2.825,3.581,6.455,3.874,10.23
			c0.295,3.799,1.073,7.234,2.79,10.644c1.881,3.732,3.35,6.116-2.01,7.268c2.585-0.12,4.907,1.76,6.968,3.153
			c1.862,1.26,3.77,1.618,5.53,2.716c2.818,1.757,3.068,5.798,5.662,7.64c1.427,1.014,3.258,0.247,4.701,1.262
			c1.733,1.217,2.045,5.527,2.982,7.354c1.592,3.102,2.185,2.489,4.707,4.239c1.354,0.94,2.116,2.92,3.132,3.822
			c1.262,1.123,2.151,1.281,3.627,2.041c2.454,1.265,4.917,2.321,4.585,5.772c3.14-0.339,5.387,2.79,8.163,3.158
			c1.867,0.247,1.943-0.976,4.041-0.464c2.496,0.611,2.432,3.802,5.402,1.322c1.133,5.934,2.434,6.709,8.02,7.678
			c3.607,0.625,8.695,2.892,11.592,5.473c4.177,3.721,2.181,8.459,5.438,11.861c1.83,1.912,7.229,3.83,8.773,0.867
			c2.397,0.992,1.598,4.104,1.959,6.236c0.563,3.348,2.067,5.697,4.27,8.02c5.087,5.365,5.47,10.637,7.283,17.518
			c-2.41,0.76-5.724-0.811-6.817,1.941c-1.019,2.563,2.282,4.961,0.629,7.898c-1.371,2.432-5.246,8.208-2.244,11.68
			c1.238,1.432,0.756-4.455,2.021-3.715c1.738,1.017,6.173-0.16,7.949,1.592c1.685-4.092,0.604-5.145,1.627-9.398
			c0.625-2.605,0.467-5.039,0.797-7.699c0.981-7.93,7.416-7.271,14.09-6.615c0.859-1.678,1.007-4.228,0.563-6.074
			c-0.502-2.096-1.199-5.293-1.867-7.369c-1.715-5.321-6.773-1.994-10.84-4.246c-6.197-3.434,2.873-8.969,3.479-13.576
			c0.486-3.691-0.994-12.043,6.027-9.382c2.436,0.924,3.486,3.226,6.367,4.276c2.479,0.902,7.291,1.191,8.943,3.555
			c1.118,1.6,0.241,15.507,5.692,8.352c1.793-2.353,1.791-11.441,0.783-13.938c-2.332-5.78-9.318-6.395-13.923-9.361
			c-5.069-3.268-10.623-3.42-15.829-7.125c-4.919-3.499-8.371-7.736-14.296-8.365c-0.071-1.265-0.401-3.246,0.021-4.445
			c0.394-1.11,2.022-0.876,2.275-2.376c0.756-4.49-3.421-4.674-6.613-4.656c-4.002,0.021-8.508,0.608-12.178-0.661
			c-4.468-1.546-6.623-5.937-9.867-9.013c-2.349-2.227-5.162-3.378-7.164-5.774c-2.115-2.536-3.597-6.008-5.166-8.892
			c-2.351-4.315-4.144-10.024-7.438-13.741c-3.852-4.344-9.928-7.122-14.287-11.158c-4.011-3.713-6.23-8.711-10.021-12.746
			c2.979-2.588,7.29-4.161,7.639-8.051c0.245-2.728-2.013-5.131-3.043-7.503c-1.543-3.551-1.927-2.908,1.438-5.003
			c3.313-2.063,7.099-3.671,10.4-5.448c2.83-1.523,3.972-1.886,7.377-1.899c1.498-0.007,3.99,0.961,5.064-0.834
			c1.424-2.378-1.637-8.1-2.65-9.888c-3.467-6.113,1.104-2.739,1.574-7.46c0.49-4.921-10.426-2.61-13.252-3.12
			c-4.593-0.827-7.66-4.279-10.658-7.853c4.688-6.278-8.827-3.402-11.767-2.993c-4.946,0.689-2.09,2.566-5,4.987
			c-2.773,2.308-7.209-1.647-10.088-0.723c-3.786,1.216-0.525,2.905-1.253,5.724c-1.159,4.494-3.733,0.411-6.196-1.142
			c-3.958-2.495-3.317-0.834-2.692,2.672c0.391,2.19,0.433,4.963,1.662,6.69c-0.938,1.081-4.242-0.529-5.752-1.162
			c-1.468-0.616-1.637,0.364-2.845-1.156c-0.879-1.105,0.319-2.941-0.505-3.887c-2.664-3.054-2.957,0.021-3.729,1.645
			c-0.905,1.903-2.462,5.104-3.098,7.281c-1.312,4.483-0.583,9.371-6.104,3.575c-2.755-2.892-3.352-4.029-3.97-7.798
			c-0.405-2.467,0.061-3.787-2.317-5.45c-5.837,1.962-5.872,11.246-10.854,13.151c-5.126,1.961-10.771,0.001-15.885,2.324"/>
		<path fill="none" stroke="#333333" stroke-width="2" stroke-miterlimit="10" d="M114.517,172.573
			c1.269,0.146,1.335,0.82,2.469,1.423c0.628,0.333,2.787,2.724,2.996,2.767c3.213,0.649,6.273-4.658,8.531-6.176
			c9.134-6.136,6.712,2.88,8.138,8.605c0.549,2.201,1.654,2.713,3.127,4.488c2.009,2.42,1.912,2.018,1.127,4.637
			c-1.327,4.429-2.735,5.283-2.32,10.192c0.607,7.195-0.808,14.737,0.679,22.019c-4.022,0.17-5.908-0.997-9.607-1.959
			c-4.637-1.205-1.816,0.773-6.009,3.471c-1.339,0.861-6.736,1.859-8.401,0.736c-2.551-1.721,0.287-7.338,0.113-10.362
			c-0.392-6.786,2.278-15.421,0.493-22.062c-1.077-4.006-4.637-5.529-4.416-9.965c0.032-0.645,1.16-1.32,1.249-2.229
			c0.093-0.955-1.093-1.637-0.849-2.508C112.327,173.901,112.049,172.539,114.517,172.573"/>
	</g>
	<g opacity="0.54">
		<g>
			<g>
				<polygon fill="#333333" stroke="#333333" stroke-width="2" stroke-miterlimit="10" points="39.904,239.759 46.034,219.209 
					52.162,239.759 				"/>
			</g>
		</g>
		<text transform="matrix(1 0 0 1 39.6904 209.5166)" fill="#333333" font-family="'MyriadPro-Regular'" font-size="19.9607">N</text>
		
			<text transform="matrix(1 0 0 1 39.6904 209.5166)" fill="none" stroke="#333333" stroke-width="2" stroke-miterlimit="10" font-family="'MyriadPro-Regular'" font-size="19.9607">N</text>
	</g>
	
		<rect x="12.755" y="13.716" fill="none" stroke="#333333" stroke-width="1.9927" stroke-miterlimit="10" width="367" height="285.891"/>
</g>
</svg>
