<?xml version="1.0" encoding="utf-8"?>
<!-- Generator: Adobe Illustrator 15.0.0, SVG Export Plug-In . SVG Version: 6.00 Build 0)  -->
<!DOCTYPE svg PUBLIC "-//W3C//DTD SVG 1.1//EN" "http://www.w3.org/Graphics/SVG/1.1/DTD/svg11.dtd" [
	<!ENTITY ns_extend "http://ns.adobe.com/Extensibility/1.0/">
	<!ENTITY ns_ai "http://ns.adobe.com/AdobeIllustrator/10.0/">
	<!ENTITY ns_graphs "http://ns.adobe.com/Graphs/1.0/">
	<!ENTITY ns_vars "http://ns.adobe.com/Variables/1.0/">
	<!ENTITY ns_imrep "http://ns.adobe.com/ImageReplacement/1.0/">
	<!ENTITY ns_sfw "http://ns.adobe.com/SaveForWeb/1.0/">
	<!ENTITY ns_custom "http://ns.adobe.com/GenericCustomNamespace/1.0/">
	<!ENTITY ns_adobe_xpath "http://ns.adobe.com/XPath/1.0/">
]>
<svg version="1.1" id="Layer_1" xmlns:x="&ns_extend;" xmlns:i="&ns_ai;" xmlns:graph="&ns_graphs;"
	 xmlns="http://www.w3.org/2000/svg" xmlns:xlink="http://www.w3.org/1999/xlink" x="0px" y="0px" width="16px" height="16px"
	 viewBox="0 0 16 16" enable-background="new 0 0 16 16" xml:space="preserve" preserveAspectRatio="none">
	<g>
		<path fill="none" stroke="#333333" d="M-6.457,11.688h-8.199c-1.877,0-3.4,1.6-3.4,3.572v7.855c0,1.974,1.523,3.572,3.4,3.572
			h8.199c1.878,0,3.4-1.599,3.4-3.572v-7.855C-3.057,13.288-4.579,11.688-6.457,11.688z"/>
	</g>
	<path fill="none" stroke="#333333" stroke-miterlimit="10" d="M-5.019,21.741l-2.52-2.552l2.365-2.397
		c0.496-0.503,0.496-1.318,0-1.82c-0.496-0.504-1.301-0.504-1.797,0l-2.365,2.397l-2.52-2.555c-0.496-0.503-1.3-0.503-1.797,0
		c-0.496,0.503-0.496,1.318,0,1.821l2.521,2.554l-2.365,2.396c-0.496,0.503-0.496,1.318,0,1.821
		c0.248,0.252,0.575,0.377,0.898,0.377c0.324,0,0.65-0.125,0.898-0.377l2.363-2.396l2.52,2.553
		c0.248,0.252,0.574,0.378,0.898,0.378s0.65-0.126,0.898-0.378C-4.522,23.061-4.522,22.244-5.019,21.741z"/>
	<g>
		<g>
			<path fill="none" stroke="#333333" d="M3.393,85.328v-3.716H2.613c-0.83,0-1.507-0.675-1.507-1.506v-7.489
				c0-0.831,0.677-1.507,1.507-1.507H14.6c0.831,0,1.507,0.676,1.507,1.507v7.489c0,0.831-0.676,1.506-1.507,1.506H7.209
				L3.393,85.328z"/>
		</g>
	</g>
	<path fill="none" stroke="#333333" stroke-miterlimit="10" d="M10.179,2.698c-0.028-1.191-1-2.148-2.197-2.148
		c-1.198,0-2.17,0.957-2.198,2.148L5.781,2.895c0,0,0,5.736,0,5.935c0,1.214,0.985,2.201,2.2,2.201
		c1.214,0,2.199-0.986,2.199-2.201c0-0.033,0-5.982,0-5.982L10.179,2.698z"/>
	<path fill="#333333" stroke="#333333" stroke-width="0.2" stroke-miterlimit="10" d="M11.394,6.325v0.019c0,0.292,0,0.581,0,0.861
		c0,1.442,0,1.569,0,1.588c0,1.864-1.512,3.375-3.376,3.375c-0.002,0-0.003,0-0.005,0v-0.003c-0.011,0-0.022,0.001-0.032,0.002
		c-0.01-0.001-0.021-0.002-0.031-0.002v0.003c-0.002,0-0.003,0-0.005,0c-1.866,0-3.376-1.511-3.376-3.375c0-0.019,0-0.146,0-1.588
		c0-0.28,0-0.568,0-0.861V6.325H2.643v0.406c0,0.261,0.211,0.473,0.473,0.473h0.593v1.588c0,1.931,1.3,3.561,3.071,4.07v1.989
		H6.489c-0.261,0-0.474,0.213-0.474,0.474v0.724h0.165h1.761h0.007h0.063H8.02h1.761h0.165v-0.724c0-0.261-0.213-0.474-0.474-0.474
		H9.182v-1.989c1.771-0.509,3.072-2.139,3.072-4.07V7.204h0.593c0.261,0,0.474-0.212,0.474-0.473V6.325H11.394z"/>
	<path fill="none" stroke="#333333" stroke-miterlimit="10" d="M13.15,148.29l-5.668,3.808c-0.367,0.248-0.841,0.271-1.232,0.063
		c-0.391-0.208-0.635-0.613-0.635-1.058v-2.139H0.352c-0.923,0-1.67-0.747-1.67-1.67c0-0.922,0.747-1.67,1.67-1.67h5.264v-2.138
		c0-0.444,0.244-0.851,0.635-1.06c0.177-0.093,0.37-0.14,0.564-0.14c0.234,0,0.467,0.067,0.669,0.204l5.668,3.809
		c0.331,0.222,0.53,0.595,0.53,0.995C13.682,147.693,13.482,148.067,13.15,148.29z"/>
	<path fill="none" stroke="#333333" stroke-miterlimit="10" d="M-0.788,211.714l5.668-3.808c0.201-0.137,0.435-0.204,0.669-0.204
		c0.193,0,0.387,0.047,0.564,0.141c0.391,0.209,0.635,0.614,0.635,1.059v2.139h5.264c0.922,0,1.67,0.747,1.67,1.67
		c0,0.922-0.748,1.67-1.67,1.67H6.748v2.138c0,0.444-0.244,0.85-0.635,1.059c-0.392,0.208-0.865,0.185-1.233-0.063l-5.668-3.809
		c-0.331-0.222-0.53-0.595-0.53-0.995C-1.318,212.311-1.119,211.937-0.788,211.714z"/>
</svg>
