<?xml version="1.0" encoding="utf-8"?>
<!-- Generator: Adobe Illustrator 15.0.0, SVG Export Plug-In . SVG Version: 6.00 Build 0)  -->
<!DOCTYPE svg PUBLIC "-//W3C//DTD SVG 1.1//EN" "http://www.w3.org/Graphics/SVG/1.1/DTD/svg11.dtd">
<svg version="1.1" id="Layer_1" xmlns="http://www.w3.org/2000/svg" xmlns:xlink="http://www.w3.org/1999/xlink" x="0px" y="0px"
	 width="16px" height="16px" viewBox="0 0 16 16" enable-background="new 0 0 16 16" xml:space="preserve">
<g>
	<path fill="#333333" d="M4.03613,2.69922c0.00488,0.01563,0.01172,0.03027,0.01855,0.04297
		C4.06055,2.75,4.06445,2.75781,4.06934,2.7627c0.00781,0.01074,0.01855,0.02051,0.0293,0.02832
		c0.00488,0.00586,0.01074,0.01074,0.01758,0.01367c0.0127,0.00879,0.02637,0.01465,0.04004,0.01953
		c0.00586,0.00195,0.0127,0.00488,0.02051,0.00684c0.01855,0.00684,0.04102,0.01074,0.0625,0.01367
		c0,0,0.00391,0.00098,0.00586,0.00195c0.02637,0.00391,0.05566,0.00586,0.08496,0.00586h0.01367
		c0.01953,0.00098,0.03711,0.00098,0.05664,0.00098c0.04199,0,0.08594-0.00098,0.13086-0.00098h5.54785
		c0.04492,0,0.08691,0.00098,0.12891,0.00098c0.01953,0,0.03906,0,0.05762-0.00098c0.00586,0,0.01074,0,0.01465,0
		c0.03027,0,0.05762-0.00195,0.08398-0.00586c0.00098-0.00098,0.00391-0.00195,0.00391-0.00195
		c0.02539-0.00293,0.04785-0.00684,0.06543-0.01367c0.00684-0.00195,0.0127-0.00488,0.01953-0.00684
		c0.01465-0.00488,0.02734-0.01074,0.03906-0.01953C10.5,2.80176,10.50586,2.79688,10.51172,2.79102
		c0.01074-0.00781,0.02051-0.0166,0.02734-0.02832c0.00586-0.00488,0.01074-0.0127,0.0166-0.02051
		c0.00684-0.0127,0.01172-0.02734,0.01855-0.04297c0.00195-0.00781,0.00488-0.01465,0.00684-0.02344
		c0.00586-0.02539,0.00977-0.05371,0.00977-0.08691V2.0752V1.92578c0-0.29492-0.22949-0.53516-0.51172-0.53516H9.39063
		L9.21289,0.80078C8.98633,0.16211,8.87012,0,8.44434,0H6.16602c-0.4248,0-0.51953,0.21191-0.7666,0.80078L5.21875,1.39063h-0.6875
		c-0.2832,0-0.5127,0.24023-0.5127,0.53516V2.0752v0.51367c0,0.0332,0.00488,0.06152,0.01074,0.08691
		C4.03027,2.68457,4.03418,2.69141,4.03613,2.69922z"/>
	<g>
		<g>
			<path fill="#333333" d="M12.58594,3.16699v2.40918l0.8584,0.86914V3.16699c0-0.83887-0.63672-1.52051-1.41895-1.52051h-1.00684
				v0.8584h1.00684C12.33398,2.50488,12.58594,2.80176,12.58594,3.16699z"/>
			<path fill="#333333" d="M6.10938,14.58008H2.61621c-0.30957,0-0.56152-0.29785-0.56152-0.66211V3.16699
				c0-0.36523,0.25195-0.66211,0.56152-0.66211h1.00684v-0.8584H2.61621c-0.7832,0-1.41992,0.68164-1.41992,1.52051v10.75098
				c0,0.83789,0.63672,1.52051,1.41992,1.52051h3.49316V14.58008z"/>
		</g>
		<g>
			
				<path fill="#3A3A3A" stroke="#3A3A3A" stroke-width="0.30515" stroke-linecap="round" stroke-linejoin="round" stroke-miterlimit="10" d="
				M11.8457,5.84375h-5v9.95703h7.95801V9.01563L11.8457,5.84375z M14.29395,15.26953H7.35547V6.37305h4.28223v2.49219v0.30273
				h0.35254h2.30371V15.26953z"/>
		</g>
		<g>
			<rect x="8.41504" y="8.60742" fill="#3A3A3A" width="2.30371" height="0.66016"/>
			<rect x="8.41504" y="12.63184" fill="#3A3A3A" width="4.83789" height="0.66113"/>
			<rect x="8.41504" y="10.65039" fill="#3A3A3A" width="4.83789" height="0.66211"/>
		</g>
	</g>
</g>
</svg>
