<?xml version="1.0" encoding="utf-8"?>
<!-- Generator: Adobe Illustrator 15.0.0, SVG Export Plug-In . SVG Version: 6.00 Build 0)  -->
<!DOCTYPE svg PUBLIC "-//W3C//DTD SVG 1.1//EN" "http://www.w3.org/Graphics/SVG/1.1/DTD/svg11.dtd" [
	<!ENTITY ns_extend "http://ns.adobe.com/Extensibility/1.0/">
	<!ENTITY ns_ai "http://ns.adobe.com/AdobeIllustrator/10.0/">
	<!ENTITY ns_graphs "http://ns.adobe.com/Graphs/1.0/">
	<!ENTITY ns_vars "http://ns.adobe.com/Variables/1.0/">
	<!ENTITY ns_imrep "http://ns.adobe.com/ImageReplacement/1.0/">
	<!ENTITY ns_sfw "http://ns.adobe.com/SaveForWeb/1.0/">
	<!ENTITY ns_custom "http://ns.adobe.com/GenericCustomNamespace/1.0/">
	<!ENTITY ns_adobe_xpath "http://ns.adobe.com/XPath/1.0/">
]>
<svg version="1.1" id="Layer_1" xmlns:x="&ns_extend;" xmlns:i="&ns_ai;" xmlns:graph="&ns_graphs;"
	 xmlns="http://www.w3.org/2000/svg" xmlns:xlink="http://www.w3.org/1999/xlink" x="0px" y="0px" width="32px" height="32px"
	 viewBox="0 0 32 32" enable-background="new 0 0 32 32" xml:space="preserve" preserveAspectRatio="none">
	<g>
		<g>
			<rect x="0.556" y="0.508" fill="#FFFFFF" width="30.888" height="30.984"/>
			<path fill="#333333" d="M30.952,1v30H1.048V1H30.952 M31.936,0.017h-0.983H1.048H0.064V1v30v0.983h0.983h29.904h0.983V31V1
				V0.017L31.936,0.017z"/>
		</g>
		<g>
			<path fill="#FFFFFF" d="M3.279,31.492l-0.072-0.406c-0.081-0.457-0.755-4.517,0.583-6.144c1.155-1.404,3.611-2.358,5.585-3.125
				c1.046-0.405,2.478-0.962,2.646-1.269l0.115-0.204c0.204-0.354,0.457-0.796,0.508-1.347c0.068-0.747,0.039-1.869,0.023-2.313
				c-0.32-0.376-0.5-0.993-0.682-1.693c-0.027-0.104-0.05-0.199-0.072-0.279c-0.379-0.103-0.64-0.5-0.918-1.086l-0.055-0.098
				c-0.221-0.387-0.738-1.293-0.616-2.195c0.047-0.343,0.251-0.602,0.553-0.731c-0.034-0.604-0.093-1.729-0.11-2.631
				c-0.04-2.082,2.233-4.169,4.769-4.38c0.104-0.014,0.341-0.043,0.445-0.043c0.141,0,0.378,0.029,0.473,0.042
				c2.544,0.212,4.818,2.3,4.778,4.381c-0.018,0.908-0.077,2.042-0.112,2.644c0.314,0.131,0.508,0.385,0.554,0.718
				c0.122,0.903-0.396,1.81-0.616,2.197l-0.055,0.097c-0.277,0.586-0.538,0.982-0.917,1.085c-0.021,0.081-0.045,0.175-0.071,0.278
				c-0.182,0.701-0.362,1.318-0.683,1.694c-0.016,0.445-0.045,1.566,0.023,2.315c0.051,0.549,0.304,0.989,0.507,1.343l0.116,0.208
				c0.168,0.305,1.601,0.861,2.646,1.267c1.974,0.767,4.43,1.721,5.585,3.125c1.338,1.627,0.664,5.687,0.583,6.144l-0.072,0.406
				H3.279z"/>
			<g>
				<path fill="#333333" d="M16.019,4.039c0.109,0,0.392,0.041,0.404,0.042c2.413,0.201,4.351,2.154,4.317,3.88
					c-0.024,1.298-0.136,3.042-0.136,3.042s0.017-0.001,0.045-0.001c0.127,0,0.487,0.033,0.537,0.396
					c0.117,0.864-0.538,1.829-0.627,2.016c-0.33,0.696-0.514,0.832-0.679,0.832c-0.034,0-0.067-0.006-0.102-0.014
					c-0.002,0-0.004,0-0.006,0c-0.183,0-0.365,1.815-0.926,2.238c0,0-0.072,1.581,0.018,2.573c0.072,0.775,0.462,1.337,0.682,1.741
					c0.597,1.088,6.412,2.194,8.283,4.47C29.063,26.754,28.309,31,28.309,31H16.954h-0.778h-0.352h-0.778H3.691
					c0,0-0.754-4.246,0.479-5.745c1.871-2.275,7.686-3.382,8.283-4.47c0.22-0.404,0.61-0.966,0.682-1.741
					c0.09-0.992,0.017-2.573,0.017-2.573c-0.56-0.423-0.742-2.238-0.925-2.238c-0.002,0-0.004,0-0.006,0
					c-0.034,0.008-0.067,0.014-0.102,0.014c-0.166,0-0.349-0.136-0.679-0.832c-0.088-0.187-0.745-1.152-0.627-2.016
					c0.05-0.364,0.41-0.396,0.538-0.396c0.028,0,0.044,0.001,0.044,0.001s-0.11-1.745-0.135-3.042
					c-0.033-1.726,1.905-3.68,4.317-3.88c0.013-0.001,0.295-0.042,0.404-0.042c0.007,0,0.013,0,0.019,0
					C16.005,4.039,16.012,4.039,16.019,4.039 M16.019,3.056h-0.032h-0.001h-0.004c-0.128,0-0.293,0.019-0.501,0.046
					c-2.81,0.234-5.249,2.514-5.204,4.878c0.015,0.786,0.06,1.719,0.094,2.352c-0.286,0.219-0.478,0.542-0.532,0.931
					c-0.145,1.069,0.43,2.078,0.675,2.508l0.044,0.079c0.166,0.349,0.442,0.933,0.939,1.216c0.004,0.016,0.008,0.032,0.012,0.048
					c0.177,0.683,0.356,1.298,0.671,1.745c0.015,0.502,0.032,1.45-0.026,2.096c-0.042,0.441-0.247,0.799-0.445,1.145
					c-0.034,0.059-0.066,0.114-0.096,0.168c-0.281,0.262-1.513,0.74-2.418,1.092c-2.027,0.787-4.55,1.767-5.787,3.271
					c-1.447,1.761-0.826,5.759-0.687,6.542l0.144,0.812h0.824h11.355h0.778h0.352h0.778h11.355h0.824l0.145-0.812
					c0.139-0.783,0.76-4.781-0.688-6.542c-1.236-1.504-3.76-2.483-5.787-3.271c-0.904-0.352-2.137-0.83-2.418-1.092
					c-0.029-0.053-0.062-0.109-0.096-0.169c-0.198-0.346-0.403-0.702-0.444-1.146c-0.059-0.646-0.042-1.592-0.026-2.094
					c0.315-0.447,0.495-1.063,0.672-1.746c0.004-0.016,0.009-0.032,0.013-0.048c0.497-0.284,0.775-0.871,0.945-1.23l0.037-0.063
					c0.245-0.431,0.82-1.439,0.676-2.507c-0.054-0.391-0.246-0.715-0.532-0.935c0.035-0.633,0.08-1.566,0.095-2.352
					c0.046-2.364-2.394-4.644-5.219-4.879C16.412,3.087,16.138,3.056,16.019,3.056L16.019,3.056z"/>
			</g>
		</g>
	</g>
</svg>
