<?xml version="1.0" encoding="utf-8"?>
<!-- Generator: Adobe Illustrator 15.0.0, SVG Export Plug-In . SVG Version: 6.00 Build 0)  -->
<!DOCTYPE svg PUBLIC "-//W3C//DTD SVG 1.1//EN" "http://www.w3.org/Graphics/SVG/1.1/DTD/svg11.dtd">
<svg version="1.1" id="Layer_1" xmlns="http://www.w3.org/2000/svg" xmlns:xlink="http://www.w3.org/1999/xlink" x="0px" y="0px"
	 width="16px" height="16px" viewBox="0 0 16 16" enable-background="new 0 0 16 16" xml:space="preserve">
<g>
	<path fill="#333333" d="M3.64551,11.83789c2.11621,2.40137,5.78906,2.63477,8.19238,0.51758
		c0.89941-0.79199,1.52539-1.82617,1.80371-2.98828c0.09277-0.38281,0.14453-0.77539,0.15918-1.16797l2.13867,0.07422
		c-0.01953,0.53711-0.0918,1.0752-0.21777,1.5957c-0.38379,1.5918-1.23633,3.00586-2.46973,4.0918
		c-3.28613,2.89551-8.31543,2.57715-11.2124-0.70801"/>
	<path fill="#333333" d="M2.03955,13.25293C-0.85449,9.96484-0.53809,4.93604,2.74854,2.03906
		c3.21143-2.8291,8.08447-2.58936,11.00732,0.48779l2.06641-1.78857v5.75098l-5.65918-0.8042l1.9834-1.73877
		c-2.14355-2.19141-5.6582-2.35107-7.9834-0.30273c-2.40283,2.11719-2.63574,5.79297-0.51758,8.19434"/>
</g>
</svg>
