<?xml version="1.0" encoding="utf-8"?>
<!-- Generator: Adobe Illustrator 15.0.0, SVG Export Plug-In . SVG Version: 6.00 Build 0)  -->
<!DOCTYPE svg PUBLIC "-//W3C//DTD SVG 1.1//EN" "http://www.w3.org/Graphics/SVG/1.1/DTD/svg11.dtd" [
	<!ENTITY ns_extend "http://ns.adobe.com/Extensibility/1.0/">
	<!ENTITY ns_ai "http://ns.adobe.com/AdobeIllustrator/10.0/">
	<!ENTITY ns_graphs "http://ns.adobe.com/Graphs/1.0/">
	<!ENTITY ns_vars "http://ns.adobe.com/Variables/1.0/">
	<!ENTITY ns_imrep "http://ns.adobe.com/ImageReplacement/1.0/">
	<!ENTITY ns_sfw "http://ns.adobe.com/SaveForWeb/1.0/">
	<!ENTITY ns_custom "http://ns.adobe.com/GenericCustomNamespace/1.0/">
	<!ENTITY ns_adobe_xpath "http://ns.adobe.com/XPath/1.0/">
]>
<svg version="1.1" id="Layer_1" xmlns:x="&ns_extend;" xmlns:i="&ns_ai;" xmlns:graph="&ns_graphs;"
	 xmlns="http://www.w3.org/2000/svg" xmlns:xlink="http://www.w3.org/1999/xlink" x="0px" y="0px" width="16px" height="16px"
	 viewBox="0 0 16 16" enable-background="new 0 0 16 16" xml:space="preserve" preserveAspectRatio="none">
	<g>
		<path fill="none" stroke="#333333" d="M-6.457,11.688h-8.199c-1.877,0-3.4,1.6-3.4,3.572v7.855c0,1.974,1.523,3.572,3.4,3.572
			h8.199c1.878,0,3.4-1.599,3.4-3.572v-7.855C-3.057,13.288-4.579,11.688-6.457,11.688z"/>
	</g>
	<path fill="none" stroke="#333333" stroke-miterlimit="10" d="M-5.019,21.741l-2.52-2.552l2.365-2.397
		c0.496-0.503,0.496-1.318,0-1.82c-0.496-0.504-1.301-0.504-1.797,0l-2.365,2.397l-2.52-2.555c-0.496-0.503-1.3-0.503-1.797,0
		c-0.496,0.503-0.496,1.318,0,1.821l2.521,2.554l-2.365,2.396c-0.496,0.503-0.496,1.318,0,1.821
		c0.248,0.252,0.575,0.377,0.898,0.377c0.324,0,0.65-0.125,0.898-0.377l2.363-2.396l2.52,2.553
		c0.248,0.252,0.574,0.378,0.898,0.378s0.65-0.126,0.898-0.378C-4.522,23.061-4.522,22.244-5.019,21.741z"/>
	<g>
		<path fill="none" stroke="#333333" stroke-miterlimit="10" d="M12.277,0.5H3.723C1.943,0.5,0.5,1.943,0.5,3.723v8.555
			c0,1.78,1.443,3.223,3.223,3.223h8.555c1.779,0,3.223-1.442,3.223-3.223V3.723C15.5,1.943,14.057,0.5,12.277,0.5z"/>
		<circle fill="none" stroke="#333333" cx="4.484" cy="11.574" r="1.406"/>
		<path fill="none" stroke="#333333" d="M9.875,12.98H7.883c0-2.653-2.151-4.805-4.805-4.805l0,0V6.184
			C6.832,6.184,9.875,9.227,9.875,12.98z"/>
		<path fill="none" stroke="#333333" d="M11.281,12.98c0-4.53-3.673-8.203-8.203-8.203V2.727c5.663,0,10.254,4.591,10.254,10.254
			H11.281z"/>
	</g>
</svg>
