<?xml version="1.0" encoding="utf-8"?>
<!-- Generator: Adobe Illustrator 15.0.0, SVG Export Plug-In . SVG Version: 6.00 Build 0)  -->
<!DOCTYPE svg PUBLIC "-//W3C//DTD SVG 1.1//EN" "http://www.w3.org/Graphics/SVG/1.1/DTD/svg11.dtd">
<svg version="1.1" id="Layer_1" xmlns="http://www.w3.org/2000/svg" xmlns:xlink="http://www.w3.org/1999/xlink" x="0px" y="0px"
	 width="16px" height="16px" viewBox="0 0 16 16" enable-background="new 0 0 16 16" xml:space="preserve">
<g>
	<path fill="#3A3A3A" d="M14.50586,0.41602H1.49268C0.66992,0.41602,0,1.08594,0,1.90869V14.0918
		c0,0.82227,0.66992,1.49219,1.49268,1.49219h13.01318C15.33008,15.58398,16,14.91406,16,14.0918V1.90869
		C16,1.08594,15.33008,0.41602,14.50586,0.41602z M11.21875,6.27979v0.59277V6.27979L11.21875,6.27979z M4.78223,1.60059h6.43652
		l-0.00098,4.6792H4.78223V1.60059z M7.98242,13.12891v1.27148H5.60107v-3.59375h4.79932v3.59375H9.31152v-1.27148H7.98242z
		 M14.81543,14.0918c0,0.16992-0.13965,0.30859-0.30957,0.30859h-2.92188v-3.59375c0-0.6543-0.53125-1.18555-1.18359-1.18555
		H5.60107c-0.6543,0-1.18555,0.53125-1.18555,1.18555v3.59375H1.49268c-0.16992,0-0.30713-0.13867-0.30713-0.30859V1.90869
		c0-0.16846,0.13721-0.30811,0.30713-0.30811h2.10547v4.6792c0,0.65283,0.53125,1.18408,1.18408,1.18408h6.43652
		c0.65332,0,1.18555-0.53125,1.18555-1.18408v-4.6792h2.10156c0.16992,0,0.30957,0.13965,0.30957,0.30811V14.0918z"/>
</g>
</svg>
