<?xml version="1.0" encoding="utf-8"?>
<!-- Generator: Adobe Illustrator 15.0.0, SVG Export Plug-In . SVG Version: 6.00 Build 0)  -->
<!DOCTYPE svg PUBLIC "-//W3C//DTD SVG 1.1//EN" "http://www.w3.org/Graphics/SVG/1.1/DTD/svg11.dtd">
<svg version="1.1" id="Layer_1" xmlns="http://www.w3.org/2000/svg" xmlns:xlink="http://www.w3.org/1999/xlink" x="0px" y="0px"
	 width="32.01411096774186px" height="60px" viewBox="0 0 41.35156 77.5" enable-background="new 0 0 41.35156 77.5" xml:space="preserve">
<g>
	<g>
		<g>
			<rect x="1.25" y="1.25" fill="#FBFBFB" stroke="#3A3B3B" stroke-width="2.49998" width="38.85156" height="75"/>
			<g>
				<g>
					<g>
						<g>
							<polygon fill="#3A3B3B" points="5.22949,50.45068 36.76807,50.45068 36.69482,48.81006 5.15332,48.81006 							"/>
						</g>
					</g>
					<g>
						<polygon fill="#3A3B3B" points="5.15137,55.9624 36.68848,55.9624 36.6167,54.32227 5.07666,54.32227 						"/>
					</g>
					<g>
						<polygon fill="#3A3B3B" points="5.22949,61.47754 36.76807,61.47754 36.69482,59.8374 5.15332,59.8374 						"/>
					</g>
					<g>
						<polygon fill="#3A3B3B" points="5.22949,66.90771 36.76807,66.90771 36.69482,65.26758 5.15332,65.26758 						"/>
					</g>
					<g>
						<g>
							<polygon fill="#3A3B3B" points="5.17969,72.33496 36.71826,72.33496 36.64551,70.69629 5.10352,70.69629 							"/>
						</g>
					</g>
				</g>
			</g>
			<rect x="17.80859" y="27.36475" fill="#3A3B3B" width="17.06494" height="2.24219"/>
			<rect x="0.93066" y="12.40625" opacity="0.72" fill="#333333" width="39.1709" height="9.96387"/>
		</g>
		<g>
			<path fill="#3A3B3B" stroke="#3A3B3B" stroke-width="1.70155" d="M10.93408,6.86475c0,0.50049-0.40527,0.9043-0.90576,0.9043
				H6.60693c-0.49854,0-0.90381-0.40381-0.90381-0.9043l0,0c0-0.49512,0.40527-0.90039,0.90381-0.90039h3.42139
				C10.52881,5.96436,10.93408,6.36963,10.93408,6.86475L10.93408,6.86475z"/>
		</g>
		<rect x="4.33545" y="16.45947" fill="#FBFBFB" width="31.98242" height="1.9707"/>
	</g>
</g>
</svg>
