<?xml version="1.0" encoding="utf-8"?>
<!-- Generator: Adobe Illustrator 15.0.0, SVG Export Plug-In . SVG Version: 6.00 Build 0)  -->
<!DOCTYPE svg PUBLIC "-//W3C//DTD SVG 1.1//EN" "http://www.w3.org/Graphics/SVG/1.1/DTD/svg11.dtd" [
	<!ENTITY ns_extend "http://ns.adobe.com/Extensibility/1.0/">
	<!ENTITY ns_ai "http://ns.adobe.com/AdobeIllustrator/10.0/">
	<!ENTITY ns_graphs "http://ns.adobe.com/Graphs/1.0/">
	<!ENTITY ns_vars "http://ns.adobe.com/Variables/1.0/">
	<!ENTITY ns_imrep "http://ns.adobe.com/ImageReplacement/1.0/">
	<!ENTITY ns_sfw "http://ns.adobe.com/SaveForWeb/1.0/">
	<!ENTITY ns_custom "http://ns.adobe.com/GenericCustomNamespace/1.0/">
	<!ENTITY ns_adobe_xpath "http://ns.adobe.com/XPath/1.0/">
]>
<svg version="1.1" id="Layer_1" xmlns:x="&ns_extend;" xmlns:i="&ns_ai;" xmlns:graph="&ns_graphs;"
	 xmlns="http://www.w3.org/2000/svg" xmlns:xlink="http://www.w3.org/1999/xlink" x="0px" y="0px" width="16px" height="16px"
	 viewBox="0 0 16 16" enable-background="new 0 0 16 16" xml:space="preserve" preserveAspectRatio="none">
	<g>
		<path fill="none" stroke="#333333" d="M-6.457,11.688h-8.199c-1.877,0-3.4,1.6-3.4,3.572v7.855c0,1.974,1.523,3.572,3.4,3.572
			h8.199c1.878,0,3.4-1.599,3.4-3.572v-7.855C-3.057,13.288-4.579,11.688-6.457,11.688z"/>
	</g>
	<path fill="none" stroke="#333333" stroke-miterlimit="10" d="M-5.019,21.741l-2.52-2.552l2.365-2.397
		c0.496-0.503,0.496-1.318,0-1.82c-0.496-0.504-1.301-0.504-1.797,0l-2.365,2.397l-2.52-2.555c-0.496-0.503-1.3-0.503-1.797,0
		c-0.496,0.503-0.496,1.318,0,1.821l2.521,2.554l-2.365,2.396c-0.496,0.503-0.496,1.318,0,1.821
		c0.248,0.252,0.575,0.377,0.898,0.377c0.324,0,0.65-0.125,0.898-0.377l2.363-2.396l2.52,2.553
		c0.248,0.252,0.574,0.378,0.898,0.378s0.65-0.126,0.898-0.378C-4.522,23.061-4.522,22.244-5.019,21.741z"/>
	<g>
		<path fill="none" stroke="#333333" stroke-miterlimit="10" d="M22.496,111.265h-0.761l-0.538-1.487
			c0-0.2-0.162-0.361-0.361-0.361h-4.133c-0.199,0-0.361,0.161-0.361,0.361l-0.538,1.487h-1.468v-0.817
			c0-0.2-0.162-0.362-0.361-0.362h-2.291c-0.199,0-0.361,0.162-0.361,0.362v0.817h-1.196c-0.744,0-1.307,0.652-1.307,1.461
			l-0.001,7.755c-0.001,0.809,0.815,1.525,1.562,1.525h12.066c0.744-0.001,1.37-0.616,1.371-1.425l0.001-7.846
			C23.819,111.928,23.24,111.263,22.496,111.265z"/>
		<g>
			<circle fill="none" stroke="#333333" stroke-miterlimit="10" cx="18.563" cy="116.765" r="3.304"/>
			<circle fill="none" stroke="#333333" stroke-miterlimit="10" cx="18.563" cy="116.766" r="1.551"/>
		</g>
	</g>
	<path fill="none" stroke="#333333" d="M44.346,15.066c0,4.145-3.357,7.502-7.5,7.502c-4.141,0-7.5-3.357-7.5-7.502
		c0-4.139,3.359-7.499,7.5-7.499C40.988,7.568,44.346,10.928,44.346,15.066z"/>
	<g>
		<g>
			<polygon fill="none" stroke="#333333" stroke-miterlimit="10" points="34.423,19.256 41.428,15.068 34.423,10.879 				"/>
		</g>
	</g>
	<g>
		<polygon fill="none" stroke="#333333" stroke-miterlimit="10" points="13.761,9.977 4.413,9.977 3.383,4.218 15.5,4.218 			"/>
		<polyline fill="none" stroke="#333333" stroke-linecap="round" stroke-miterlimit="10" points="0.5,0.78 3.235,4.26 4.413,9.977 
			3.383,12.125 15.367,12.125 			"/>
		<line fill="none" stroke="#333333" stroke-miterlimit="10" x1="5.541" y1="4.218" x2="5.541" y2="9.977"/>
		<line fill="none" stroke="#333333" stroke-miterlimit="10" x1="7.482" y1="4.218" x2="7.482" y2="9.977"/>
		<line fill="none" stroke="#333333" stroke-miterlimit="10" x1="9.423" y1="4.218" x2="9.423" y2="9.977"/>
		<line fill="none" stroke="#333333" stroke-miterlimit="10" x1="13.305" y1="4.218" x2="13.305" y2="9.977"/>
		<line fill="none" stroke="#333333" stroke-miterlimit="10" x1="11.363" y1="4.218" x2="11.363" y2="9.977"/>
		<line fill="none" stroke="#333333" stroke-miterlimit="10" x1="3.732" y1="6.195" x2="14.902" y2="6.195"/>
		<line fill="none" stroke="#333333" stroke-miterlimit="10" x1="4.122" y1="8.108" x2="14.325" y2="8.108"/>
		<circle fill="none" stroke="#333333" stroke-miterlimit="10" cx="6.652" cy="13.895" r="1.326"/>
		<circle fill="none" stroke="#333333" stroke-miterlimit="10" cx="12.232" cy="13.895" r="1.326"/>
	</g>
	<g>
		<path fill="none" stroke="#333333" stroke-miterlimit="10" d="M83.006-12.128l-9.834-0.007c-0.667,0-1.172,0.588-1.172,1.313
			l-0.001,1.809h-1.424v-0.885c0-0.174-0.141-0.313-0.313-0.313h-0.757c-0.173,0-0.313,0.14-0.313,0.313v4.791
			c0,0.174,0.141,0.314,0.313,0.314h0.757c0.173,0,0.313-0.141,0.313-0.314v-1.11h1.424v1.72c-0.001,0.726,0.731,1.368,1.4,1.368
			h9.562c0.667-0.002,1.229-0.554,1.229-1.278l0.001-6.405C84.191-11.537,83.672-12.129,83.006-12.128z"/>
		<path fill="none" stroke="#333333" stroke-miterlimit="10" d="M79.967-4.894c0,0.174-0.141,0.314-0.314,0.314h-5.267
			c-0.173,0-0.313-0.141-0.313-0.314v-2.752c0-0.174,0.141-0.314,0.313-0.314h5.267c0.174,0,0.314,0.141,0.314,0.314V-4.894z"/>
		<circle fill="none" stroke="#333333" stroke-miterlimit="10" cx="81.298" cy="-9.742" r="0.966"/>
	</g>
</svg>
