<?xml version="1.0" encoding="utf-8"?>
<!-- Generator: Adobe Illustrator 15.0.0, SVG Export Plug-In . SVG Version: 6.00 Build 0)  -->
<!DOCTYPE svg PUBLIC "-//W3C//DTD SVG 1.1//EN" "http://www.w3.org/Graphics/SVG/1.1/DTD/svg11.dtd">
<svg version="1.1" id="Layer_1" xmlns="http://www.w3.org/2000/svg" xmlns:xlink="http://www.w3.org/1999/xlink" x="0px" y="0px"
	 width="400px" height="375.182px" viewBox="0 0 400 375.182" enable-background="new 0 0 400 375.182" xml:space="preserve" preserveAspectRatio="none">
<g>
	<g>
		<path fill="#FFFFFF" d="M1.018,1.018v373.146h397.964V1.018H1.018z M376.358,351.525H23.642V23.652h352.716V351.525z"/>
		<path fill="#333333" d="M400,375.182H0V0h400V375.182z M2.036,373.146h395.929V2.036H2.036V373.146z M377.375,352.543H22.624
			V22.635h354.751V352.543z M24.66,350.507h350.68V24.67H24.66V350.507z"/>
	</g>
	<rect x="16.756" y="14.458" fill="#FEFEFE" width="373.539" height="346.672"/>
	<path fill="#333333" d="M14.071,360.087h371.858l0.59-346.238H12.982L14.071,360.087z M387.61,361.768H12.392V13.415H387.61
		V361.768z"/>
	<path fill="#333333" d="M12.458,202.655c0.387,0.419-0.338,15.546,0.054,15.962c45.535,48.377,127.063,66.234,184.95,30.394
		c16.764-10.379,29.822-25.698,39.124-42.764c5.313-9.749,8.279-20.332,12.257-30.619c4.173-10.79,9.292-21.24,15.673-30.932
		c10.242-15.564,23.451-28.479,41.749-34.057c20.113-6.132,41.147-0.719,59.329,8.507c7.402,3.755,14.307,8.384,20.923,13.353
		c0.755,0.567,0.547-23.52,0.547-23.52c-15.189-9.342-31.871-16.054-50.022-17.359c-20.474-1.471-40.466,6.098-56.506,18.295
		c-18.564,14.117-31.893,34.1-41.584,54.889c-5.018,10.761-8.148,22.171-12.794,33.058c-1.654,3.879-3.851,8.228-5.765,11.404
		c-2.04,3.381-5.898,8.765-7.382,10.532c-10.481,12.495-23.425,20.944-39.458,26.171c-16.64,5.428-34.34,6.431-51.693,4.7
		c-34.962-3.484-69.114-19.817-93.638-44.613c-0.82-0.829-9.71-9.334-10.507-10.182"/>
	<path fill="#333333" d="M354.194,360.075c-6.533-21.935-14.813-44.817-29.463-62.782c-6.062-7.434-14.226-14.944-24.033-16.635
		c-7.391-1.274-15.081,1.862-22.307-0.287c-5.781-1.72-10.177-6.884-14.45-10.833c-5.37-4.961-10.7-9.964-15.825-15.179
		c-6.491-6.603-12.01-14.01-18.393-20.69c-2.402-2.513-5.171-5.431-8.511-6.653c-1.898-0.695-4.068,0.679-5.486,1.885
		c0.757-0.646,1.878-0.875,2.645-1.526c-2.159,1.838-2.036,0.738-0.411,1.003c0.679,0.11,1.323,0.44,1.925,0.755
		c1.804,0.943,3.37,2.371,4.851,3.742c3.217,2.978,6.067,6.353,8.853,9.728c8.663,10.503,18.422,19.881,28.411,29.11
		c4.548,4.203,9.019,9.195,15.311,10.589c4.528,1.004,9.401-0.239,13.96-0.432c4.751-0.201,9.074,0.449,13.385,2.429
		c9.275,4.263,16.399,12.511,22.091,20.734c11.733,16.955,18.961,36.953,24.806,56.568
		C351.489,361.397,354.268,360.322,354.194,360.075L354.194,360.075z"/>
	<path fill="#333333" d="M230.562,300.851c-6.766-3.741-13.135-10.897-17.935-20.154c-1.575-3.038-2.865-6.557-4.229-10.282
		c-3.097-8.456-6.299-17.201-13.261-21.502l0.534-0.866c7.262,4.487,10.527,13.398,13.683,22.018
		c1.353,3.694,2.631,7.184,4.177,10.164c4.708,9.081,10.933,16.088,17.523,19.732L230.562,300.851z"/>
	<path fill="#333333" d="M386.578,212.897c-10.415,1.294-19.178,5.649-25.187,14.308c-6.301,9.073-14.721,14.015-25.609,16
		c-5.429,0.99-11.134,0.43-16.626,0.743c-6.775,0.389-12.3,3.063-17.923,6.656c-4.838,3.089-9.674,6.41-13.9,10.298
		c-4.317,3.97-7.894,8.726-11.744,13.128c-3.539,4.044-7.417,7.617-12.015,10.416c-5.183,3.154-11.05,4.966-16.582,7.376
		c-5.283,2.302-10.389,5.13-15.533,7.728c-5.137,2.595-9.2,7.098-13.166,11.152c-8.762,8.956-19.472,15.561-28.495,24.216
		c-4.423,4.242-7.395,9.771-11.52,14.282c-1.829,1.999-4.193,2.859-6.418,4.286c-1.647,1.056-6.79,8.364-8.442,6.775
		c0.546,0.526,5.407-0.856,6.312,0.015c1.488,1.432,0,0,1.141-1.292c1.641-1.86,4.25-2.589,6.22-4.036
		c4.687-3.442,7.756-9.924,11.531-14.23c8.214-9.368,19.718-15.513,28.549-24.3c3.743-3.723,7.285-7.544,11.592-10.636
		c4.939-3.548,11.17-6.001,16.637-8.645c4.997-2.417,10.297-4.122,15.295-6.556c5.39-2.625,9.772-6.426,13.825-10.785
		c3.635-3.904,6.891-8.142,10.534-12.04c4.284-4.58,9.489-8.052,14.645-11.559c5.017-3.41,10.016-6.197,16.035-7.291
		c6.161-1.12,12.556-0.321,18.771-0.939c8.913-0.889,19.159-5.431,24.515-12.799c3.521-4.843,6.431-9.458,11.685-12.585
		c4.768-2.837,10.403-4.426,15.874-5.106C387.093,217.413,386.739,212.877,386.578,212.897L386.578,212.897z"/>
	<path fill="none" stroke="#FEFEFE" stroke-width="7.1247" stroke-miterlimit="10" d="M76.603,23.652"/>
	<g>
		<defs>
			<polygon id="SVGID_1_" points="386.519,360.521 14.071,360.087 12.982,13.849 386.519,13.849 			"/>
		</defs>
		<clipPath id="SVGID_2_">
			<use xlink:href="#SVGID_1_"  overflow="visible"/>
		</clipPath>
		<path clip-path="url(#SVGID_2_)" fill="#FEFEFE" stroke="#333333" stroke-width="1.0178" stroke-miterlimit="10" d="
			M179.946,41.875l-36.94-21.016l8.01-11.327l1.56-0.035l-0.067-3.054l-2.513,0.056l-3.707-2.621l-1.941,2.746L91.757,7.784
			l0.142-0.271l-6.007-3.159l-1.893,3.601 M56.979,207.183L7.851,286.131l6.049,3.765l22.65-36.396l34.022,22.941l-28.634,38.237
			l-0.413,0.526c-20.554-14.376-33.596-30.08-29.134-24.428c-0.001-0.001-9.067,4.264-2.839,3.438l0.628,2.178
			c0.727,0.923,10.283,12.878,26.856,24.54L4.005,363.078l108.733,9.256l46.576,0.013l-3.54-25.181
			c18.729-1.032,66.042-4.162,95.706-10.732l10.933,25.796l8.129-0.627l-12.048-26.881c4.799-1.299,40.042-11.379,54.217-17.175
			l-7.403,54.986l64.425-2.901l-5.698-65.471l26.647,1.192l0.955-7.032l-28.684-6.585l-3.112-35.74l29.012,12.294l3.972-9.372
			l-29.467-12.486l9.727-90.214l3.108-10.502c16.591,15.974,20.718,26.368,20.753,26.458l6.678-2.485
			c-0.192-0.515-4.922-12.821-24.841-31.334c-0.107-0.098-0.219-0.192-0.325-0.291l11.724-39.616l2.161-0.467l-3.008-13.93
			l-84.482,18.239l-25.153-95.15l-6.285,1.662L295.25,91.41l-53.127-24.833L268.845,7.35l-6.741-2.831l-14.868,35.406
			 M3.772,205.405l5.817,4.112l16.441-23.248 M54.429,64.189l-16.296,30.99L13.487,80.446l-5.222,8.737l25.124,15.018L7.872,152.727
			l6.007,3.159l25.344-48.197l23.653,14.139l-27.293,38.595l-24.916,5.379 M75.51,24.099L53.571,65.82 M13.277,189.489
			l-0.076-10.149l10.215-1.712L13.277,189.489z M297.171,218.383l15.123-64.072 M323.854,282.761l0.748-5.905l4.637-33.828
			l23.178,9.821l3.238,37.214L323.854,282.761z M355.927,296.125l-35.173,10.401l2.201-16.662L355.927,296.125z M312.294,154.312
			l20.517,79.175l-35.64-15.104 M219.024,259.845c-13.973,1.673-27.418,17.668-31.14,22.433l-40.668,4.006l-3.781-26.9l-0.026-0.19
			l-9.147-36.241l131.867,38.483c-7.093,2.146-19.762,3.5-40.852-1.305c-0.006-0.001-0.012-0.002-0.018-0.003L219.024,259.845z
			 M131.165,159.091l155.632,65.95 M185.625,142.608l-15.623,21.886l-28.942-12.264L185.625,142.608z M175.761,166.935
			l18.733-26.242l2.19-0.472c11.431,4.423,21.679,10.431,28.529,18.632c6.397,7.66,10.317,24.579,12.112,34.171L175.761,166.935z
			 M196.048,126.63l-77.629,16.035l-43.514-25.508l23.513-33.25 M103.973,145.405l-10.059,2.424l-24.245,5.234 M61.815,212.897
			l31.314-50.319l30.648-6.618l0.319,0.135l-0.671,35.054 M131.165,159.091l155.632,65.95l-14.882,33.282l-139.062-40.945
			L131.165,159.091z M123.359,218.859l2.855,1.333l10.192,40.372l3.713,26.417l-35.926,3.539l-23.433-15.803L123.359,218.859z
			 M279.271,262.184l0.372-0.438l13.713-33.925l29.085,12.325l-4.902,35.778l-0.663,5.234l-52.028-11.944
			C274.711,267.06,278.589,262.989,279.271,262.184z M242.495,130.33l59.642-12.876l7.098,25.572L290,215.621l-44.854-19.283
			c-1.288-8.054-5.677-31.532-14.462-42.05c-5.724-6.854-13.471-12.288-22.207-16.612l34.675-7.486 M238.221,72.794
			c0.768,0.564,59.056,26.272,59.056,26.272l1.214,4.596l-90.545,22.002L238.221,72.794z M247.646,38.949l-12.06,24.34
			l-55.641-21.414 M177.649,48.765l53.672,21.103l-35.273,56.763 M98.417,83.908l40.534-57.16l0,0l38.698,22.016 M82.373,11.045
			l-8.408,15.992 M60.434,67.352l29.462-53.503h50.37L90.282,83.074 M90.282,83.074l-21.51,30.418L43.968,98.666l16.466-31.314
			 M69.668,153.064L45.881,158.2l10.512-14.866c4.655-5.498,9.519-11.114,14.514-16.707l33.066,18.778 M25.854,186.518l7.859-11.113
			l33.635-7.262 M65.184,168.61l18.25-3.94l-28.36,45.573 M123.453,189.685l-0.317,16.56l-48.29,64.486l-34.53-23.285l22.57-36.27
			 M47.594,319.011l28.892-38.583l25.853,17.434l38.774-3.818l6.519,46.379l-50.692-4.149c-19.487-1.596-36.274-8.899-49.452-17.126
			L47.594,319.011z M113.192,365.222l-99.121-5.135l28.911-35.193c14.013,8.839,32.078,16.736,53.377,18.479l51.085,4.183
			l0.223,0.018l0.223-0.009c0.138-0.006,0.392-0.017,0.74-0.032l2.487,17.689H113.192z M154.778,340.075l-6.569-46.731l41.92-4.128
			l1.588-0.157l0.941-1.289c4.593-6.291,18.363-21.614,29.331-20.924l26.676,62.946
			C219.609,335.998,172.635,339.081,154.778,340.075z M255.701,328.128l-25.215-59.492l85.491,19.628l-2.019,20.299
			C303.459,315.238,260.404,326.891,255.701,328.128z M361.991,362.849l-48.553,2.187l6.685-50.207l36.714-11.205L361.991,362.849z
			 M366.071,154.814l-9.565,88.714l-16.121-6.833l-27.833-105.28c5.438-0.504,39.498-3.09,57.705,9.249L366.071,154.814z
			 M311.008,124.41L311.008,124.41l-2.511-8.33l73.746-15.92l-9.888,33.408C350.095,120.19,312.749,124.214,311.008,124.41z"/>
		<use xlink:href="#SVGID_1_"  overflow="visible" fill="none" stroke="#333333" stroke-width="1.0178" stroke-miterlimit="10"/>
	</g>
	<g opacity="0.54">
		<g>
			<g>
				<polygon fill="#333333" stroke="#333333" stroke-width="2.0356" stroke-miterlimit="10" points="348.065,69.389 354.306,48.472 
					360.542,69.389 				"/>
			</g>
		</g>
		
			<text transform="matrix(1 0 0 1 347.8491 38.6074)" fill="#333333" stroke="#333333" stroke-width="2.0356" stroke-miterlimit="10" font-family="'MyriadPro-Regular'" font-size="20.3162">N</text>
	</g>
</g>
</svg>
