<?xml version="1.0" encoding="utf-8"?>
<!-- Generator: Adobe Illustrator 15.0.0, SVG Export Plug-In . SVG Version: 6.00 Build 0)  -->
<!DOCTYPE svg PUBLIC "-//W3C//DTD SVG 1.1//EN" "http://www.w3.org/Graphics/SVG/1.1/DTD/svg11.dtd">
<svg version="1.1" id="Layer_1" xmlns="http://www.w3.org/2000/svg" xmlns:xlink="http://www.w3.org/1999/xlink" x="0px" y="0px"
	 width="40px" height="40px" viewBox="0 0 16 16" enable-background="new 0 0 16 16" xml:space="preserve">
<path fill="#3A3A3A" d="M0.63477,14.48438c-0.29492,0-0.53613-0.23926-0.53613-0.53418V2.0498
	c0-0.29346,0.24121-0.53418,0.53613-0.53418h14.73047c0.29492,0,0.53613,0.24072,0.53613,0.53418V13.9502
	c0,0.29492-0.24121,0.53418-0.53613,0.53418H0.63477z"/>
<g>
	<g>
		<path fill="#FCFCFC" stroke="#231F20" stroke-width="0.13318" stroke-miterlimit="10" d="M15.59766,13.27344
			c0,0.14648-0.10938,0.26367-0.24316,0.26367H0.64746c-0.13379,0-0.24512-0.11719-0.24512-0.26367V3.4834
			c0-0.146,0.11133-0.2627,0.24512-0.2627h14.70703c0.13379,0,0.24316,0.1167,0.24316,0.2627V13.27344z"/>
	</g>
	<path fill="#FCFCFC" d="M13.95117,2.5249c0,0.03369-0.01758,0.06152-0.03613,0.06152H2.49609
		c-0.02051,0-0.03613-0.02686-0.03613-0.06152l0,0c0-0.03418,0.01563-0.06152,0.03613-0.06152h11.41895
		C13.93359,2.46338,13.95117,2.49072,13.95117,2.5249L13.95117,2.5249z"/>
</g>
<path fill="#3A3A3A" d="M15.36523,14.58301H0.63525C0.28564,14.58301,0,14.29883,0,13.9502V2.0498
	c0-0.34863,0.28564-0.63281,0.63525-0.63281h14.72998C15.71484,1.41699,16,1.70117,16,2.0498V13.9502
	C16,14.29883,15.71484,14.58301,15.36523,14.58301z M0.63525,1.56543c-0.26855,0-0.4873,0.21777-0.4873,0.48438V13.9502
	c0,0.26758,0.21875,0.48438,0.4873,0.48438h14.72998c0.26855,0,0.48535-0.2168,0.48535-0.48438V2.0498
	c0-0.2666-0.2168-0.48438-0.48535-0.48438H0.63525z"/>
</svg>
