<?xml version="1.0" encoding="utf-8"?>
<!-- Generator: Adobe Illustrator 15.0.0, SVG Export Plug-In . SVG Version: 6.00 Build 0)  -->
<!DOCTYPE svg PUBLIC "-//W3C//DTD SVG 1.1//EN" "http://www.w3.org/Graphics/SVG/1.1/DTD/svg11.dtd">
<svg version="1.1" id="Layer_1" xmlns="http://www.w3.org/2000/svg" xmlns:xlink="http://www.w3.org/1999/xlink" x="0px" y="0px"
	 width="100px" height="81.5378920000002px" viewBox="0 0 250 203.84473" enable-background="new 0 0 250 203.84473" xml:space="preserve">
<g>
	<rect x="2" y="2" fill="#FDFEFF" width="246" height="199.84473"/>
	<path fill="#3A3B3B" d="M246,4v195.84473H4V4H246 M249.00391,0H0.99609C0.44678,0,0,0.44678,0,0.99609v201.85254
		c0,0.54883,0.44678,0.99609,0.99609,0.99609h248.00781c0.54883,0,0.99609-0.44727,0.99609-0.99609V0.99609
		C250,0.44678,249.55273,0,249.00391,0L249.00391,0z"/>
</g>
<line fill="none" stroke="#3A3B3B" stroke-width="4" stroke-linejoin="round" stroke-miterlimit="10" x1="0.62744" y1="35.54443" x2="249.5918" y2="35.54443"/>
<line fill="none" stroke="#3A3B3B" stroke-width="1.75" stroke-linejoin="round" stroke-miterlimit="10" x1="0.93262" y1="180.73438" x2="249.89746" y2="180.73438"/>
<line fill="none" stroke="#3A3B3B" stroke-width="1.75" stroke-linejoin="round" stroke-miterlimit="10" x1="0.93262" y1="57.07031" x2="249.89746" y2="57.07031"/>
<line fill="none" stroke="#3A3B3B" stroke-width="1.75" stroke-linejoin="round" stroke-miterlimit="10" x1="0.93262" y1="77.68311" x2="249.89746" y2="77.68311"/>
<line fill="none" stroke="#3A3B3B" stroke-width="1.75" stroke-linejoin="round" stroke-miterlimit="10" x1="0.93262" y1="98.29346" x2="249.89746" y2="98.29346"/>
<line fill="none" stroke="#3A3B3B" stroke-width="1.75" stroke-linejoin="round" stroke-miterlimit="10" x1="0.93262" y1="118.90381" x2="249.89746" y2="118.90381"/>
<line fill="none" stroke="#3A3B3B" stroke-width="1.75" stroke-linejoin="round" stroke-miterlimit="10" x1="0.93262" y1="139.51416" x2="249.89746" y2="139.51416"/>
<line fill="none" stroke="#3A3B3B" stroke-width="1.75" stroke-linejoin="round" stroke-miterlimit="10" x1="0.93262" y1="160.12451" x2="249.89746" y2="160.12451"/>
<line fill="none" stroke="#3A3B3B" stroke-width="1.75" stroke-linecap="round" stroke-linejoin="round" stroke-miterlimit="10" x1="49.54102" y1="202.6875" x2="49.54102" y2="36.44043"/>
<line fill="none" stroke="#3A3B3B" stroke-width="1.75" stroke-linecap="round" stroke-linejoin="round" stroke-miterlimit="10" x1="99.62402" y1="202.6875" x2="99.62402" y2="36.44043"/>
<line fill="none" stroke="#3A3B3B" stroke-width="1.75" stroke-linecap="round" stroke-linejoin="round" stroke-miterlimit="10" x1="149.70947" y1="202.6875" x2="149.70947" y2="36.44043"/>
<line fill="none" stroke="#3A3B3B" stroke-width="1.75" stroke-linecap="round" stroke-linejoin="round" stroke-miterlimit="10" x1="199.79492" y1="202.6875" x2="199.79492" y2="36.44043"/>
</svg>
