<?xml version="1.0" encoding="utf-8"?>
<!-- Generator: Adobe Illustrator 15.0.0, SVG Export Plug-In . SVG Version: 6.00 Build 0)  -->
<!DOCTYPE svg PUBLIC "-//W3C//DTD SVG 1.1//EN" "http://www.w3.org/Graphics/SVG/1.1/DTD/svg11.dtd" [
	<!ENTITY ns_extend "http://ns.adobe.com/Extensibility/1.0/">
	<!ENTITY ns_ai "http://ns.adobe.com/AdobeIllustrator/10.0/">
	<!ENTITY ns_graphs "http://ns.adobe.com/Graphs/1.0/">
	<!ENTITY ns_vars "http://ns.adobe.com/Variables/1.0/">
	<!ENTITY ns_imrep "http://ns.adobe.com/ImageReplacement/1.0/">
	<!ENTITY ns_sfw "http://ns.adobe.com/SaveForWeb/1.0/">
	<!ENTITY ns_custom "http://ns.adobe.com/GenericCustomNamespace/1.0/">
	<!ENTITY ns_adobe_xpath "http://ns.adobe.com/XPath/1.0/">
]>
<svg version="1.1" id="Layer_1" xmlns:x="&ns_extend;" xmlns:i="&ns_ai;" xmlns:graph="&ns_graphs;"
	 xmlns="http://www.w3.org/2000/svg" xmlns:xlink="http://www.w3.org/1999/xlink" x="0px" y="0px" width="16px" height="16px"
	 viewBox="0 0 16 16" enable-background="new 0 0 16 16" xml:space="preserve" preserveAspectRatio="none">
	<g>
		<path fill="none" stroke="#333333" d="M-6.457,11.688h-8.199c-1.877,0-3.4,1.6-3.4,3.572v7.855c0,1.974,1.523,3.572,3.4,3.572
			h8.199c1.878,0,3.4-1.599,3.4-3.572v-7.855C-3.057,13.288-4.579,11.688-6.457,11.688z"/>
	</g>
	<path fill="none" stroke="#333333" stroke-miterlimit="10" d="M-5.019,21.741l-2.52-2.552l2.365-2.397
		c0.496-0.503,0.496-1.318,0-1.82c-0.496-0.504-1.301-0.504-1.797,0l-2.365,2.397l-2.52-2.555c-0.496-0.503-1.3-0.503-1.797,0
		c-0.496,0.503-0.496,1.318,0,1.821l2.521,2.554l-2.365,2.396c-0.496,0.503-0.496,1.318,0,1.821
		c0.248,0.252,0.575,0.377,0.898,0.377c0.324,0,0.65-0.125,0.898-0.377l2.363-2.396l2.52,2.553
		c0.248,0.252,0.574,0.378,0.898,0.378s0.65-0.126,0.898-0.378C-4.522,23.061-4.522,22.244-5.019,21.741z"/>
	<g>
		<path fill="none" stroke="#333333" stroke-miterlimit="10" d="M22.496,111.265h-0.761l-0.538-1.487
			c0-0.2-0.162-0.361-0.361-0.361h-4.133c-0.199,0-0.361,0.161-0.361,0.361l-0.538,1.487h-1.468v-0.817
			c0-0.2-0.162-0.362-0.361-0.362h-2.291c-0.199,0-0.361,0.162-0.361,0.362v0.817h-1.196c-0.744,0-1.307,0.652-1.307,1.461
			l-0.001,7.755c-0.001,0.809,0.815,1.525,1.562,1.525h12.066c0.744-0.001,1.37-0.616,1.371-1.425l0.001-7.846
			C23.819,111.928,23.24,111.263,22.496,111.265z"/>
		<g>
			<circle fill="none" stroke="#333333" stroke-miterlimit="10" cx="18.563" cy="116.765" r="3.304"/>
			<circle fill="none" stroke="#333333" stroke-miterlimit="10" cx="18.563" cy="116.766" r="1.551"/>
		</g>
	</g>
	<g>
		<path fill="none" stroke="#333333" stroke-miterlimit="10" d="M14.314,3.504L4.48,3.497c-0.667,0-1.172,0.588-1.172,1.313
			L3.308,6.619H1.884V5.734c0-0.174-0.141-0.313-0.313-0.313H0.813c-0.173,0-0.313,0.14-0.313,0.313v4.791
			c0,0.174,0.141,0.314,0.313,0.314H1.57c0.173,0,0.313-0.141,0.313-0.314v-1.11h1.424v1.72c-0.001,0.726,0.731,1.368,1.4,1.368
			h9.562c0.667-0.002,1.229-0.554,1.229-1.278L15.5,4.819C15.5,4.095,14.98,3.503,14.314,3.504z"/>
		<path fill="none" stroke="#333333" stroke-miterlimit="10" d="M11.275,10.738c0,0.174-0.141,0.314-0.314,0.314H5.694
			c-0.173,0-0.313-0.141-0.313-0.314V7.986c0-0.174,0.141-0.314,0.313-0.314h5.267c0.174,0,0.314,0.141,0.314,0.314V10.738z"/>
		<circle fill="none" stroke="#333333" stroke-miterlimit="10" cx="12.606" cy="5.89" r="0.966"/>
	</g>
</svg>
