<?xml version="1.0" encoding="utf-8"?>
<!-- Generator: Adobe Illustrator 15.0.0, SVG Export Plug-In . SVG Version: 6.00 Build 0)  -->
<!DOCTYPE svg PUBLIC "-//W3C//DTD SVG 1.1//EN" "http://www.w3.org/Graphics/SVG/1.1/DTD/svg11.dtd" [
	<!ENTITY ns_extend "http://ns.adobe.com/Extensibility/1.0/">
	<!ENTITY ns_ai "http://ns.adobe.com/AdobeIllustrator/10.0/">
	<!ENTITY ns_graphs "http://ns.adobe.com/Graphs/1.0/">
	<!ENTITY ns_vars "http://ns.adobe.com/Variables/1.0/">
	<!ENTITY ns_imrep "http://ns.adobe.com/ImageReplacement/1.0/">
	<!ENTITY ns_sfw "http://ns.adobe.com/SaveForWeb/1.0/">
	<!ENTITY ns_custom "http://ns.adobe.com/GenericCustomNamespace/1.0/">
	<!ENTITY ns_adobe_xpath "http://ns.adobe.com/XPath/1.0/">
]>
<svg version="1.1" id="Layer_1" xmlns:x="&ns_extend;" xmlns:i="&ns_ai;" xmlns:graph="&ns_graphs;"
	 xmlns="http://www.w3.org/2000/svg" xmlns:xlink="http://www.w3.org/1999/xlink" x="0px" y="0px" width="16px" height="355px"
	 viewBox="0 0 16 355" enable-background="new 0 0 16 355" xml:space="preserve" preserveAspectRatio="none">
	<g>
		<path fill="#FFFFFF" stroke="#222222" stroke-width="1.225" d="M13.742,0.749c0.688,0,1.248,0.559,1.248,1.249v351.003
			c0,0.691-0.56,1.25-1.248,1.25H2.237c-0.69,0-1.248-0.559-1.248-1.25V1.998c0-0.69,0.558-1.249,1.248-1.249H13.742z"/>
		<g>
			<g>
				<polygon fill="#FFFFFF" points="2.89,11.425 2.925,2.818 13.092,2.796 13.055,11.404 13.092,11.425 					"/>
				<path fill="#222222" d="M12.467,3.385v7.452H3.513V3.385H12.467 M13.092,2.208H2.89c-0.303,0-0.553,0.273-0.553,0.61v8.586
					c0,0.336,0.25,0.609,0.553,0.609h10.202c0.305,0,0.552-0.273,0.552-0.609V2.818C13.644,2.481,13.396,2.208,13.092,2.208
					L13.092,2.208z"/>
			</g>
			<g>
				<polygon fill="#FFFFFF" points="5.969,8.885 7.992,6.319 10.012,8.885 					"/>
				<path fill="#222222" d="M7.991,7.309l0.68,0.863l0.079,0.1H7.992H7.231l0.078-0.099L7.991,7.309 M7.992,5.33L6.348,7.414
					L4.707,9.497h3.285h3.282L9.633,7.414L7.992,5.33L7.992,5.33z"/>
			</g>
		</g>
		<g>
			<g>
				<polygon fill="#FFFFFF" points="2.89,352.203 2.925,343.597 13.092,343.576 13.055,352.181 13.092,352.203 					"/>
				<path fill="#222222" d="M12.467,344.164v7.451H3.513v-7.451H12.467 M13.092,342.987H2.89c-0.303,0-0.553,0.271-0.553,0.609
					v8.584c0,0.338,0.25,0.611,0.553,0.611h10.202c0.305,0,0.552-0.273,0.552-0.611v-8.584
					C13.644,343.259,13.396,342.987,13.092,342.987L13.092,342.987z"/>
			</g>
			<g>
				<polygon fill="#FFFFFF" points="5.97,346.115 10.012,346.115 7.992,348.68 					"/>
				<path fill="#222222" d="M8.749,346.728l-0.078,0.1l-0.679,0.863l-0.681-0.863l-0.078-0.1h0.76H8.749 M11.274,345.503H7.992
					H4.707l1.641,2.082l1.645,2.084l1.641-2.084L11.274,345.503L11.274,345.503z"/>
			</g>
		</g>
		<g>
			<g>
				<polygon fill="#FFFFFF" points="2.891,251.277 2.938,103.756 13.092,103.722 13.041,251.245 13.092,251.277 					"/>
				<path fill="#222222" d="M12.439,104.324v146.352H3.541V104.324H12.439 M13.092,103.12H2.891c-0.307,0-0.554,0.284-0.554,0.636
					v147.489c0,0.35,0.247,0.635,0.554,0.635h10.201c0.306,0,0.552-0.285,0.552-0.635V103.756
					C13.644,103.404,13.397,103.12,13.092,103.12L13.092,103.12z"/>
			</g>
			
				<line fill="#FFFFFF" stroke="#222222" stroke-width="1.1977" stroke-linecap="round" x1="4.22" y1="173.42" x2="11.76" y2="173.42"/>
			
				<line fill="#FFFFFF" stroke="#222222" stroke-width="1.1977" stroke-linecap="round" x1="4.22" y1="176.141" x2="11.76" y2="176.141"/>
			
				<line fill="#FFFFFF" stroke="#222222" stroke-width="1.1977" stroke-linecap="round" x1="4.22" y1="178.86" x2="11.76" y2="178.86"/>
			
				<line fill="#FFFFFF" stroke="#222222" stroke-width="1.1977" stroke-linecap="round" x1="4.22" y1="181.581" x2="11.76" y2="181.581"/>
		</g>
	</g>
</svg>
