<?xml version="1.0" encoding="utf-8"?>
<!-- Generator: Adobe Illustrator 15.0.0, SVG Export Plug-In . SVG Version: 6.00 Build 0)  -->
<!DOCTYPE svg PUBLIC "-//W3C//DTD SVG 1.1//EN" "http://www.w3.org/Graphics/SVG/1.1/DTD/svg11.dtd">
<svg version="1.1" id="Layer_1" xmlns="http://www.w3.org/2000/svg" xmlns:xlink="http://www.w3.org/1999/xlink" x="0px" y="0px"
	 width="16px" height="16px" viewBox="0 0 16 16" enable-background="new 0 0 16 16" xml:space="preserve">
<g>
	<path fill="#333333" d="M8,0.00049c-4.41748,0-8,3.5835-8,8C0,12.41797,3.58252,16,8,16c4.41797,0,8-3.58203,8-7.99951
		C16,3.58398,12.41797,0.00049,8,0.00049z M8,14.88086c-3.80127,0-6.88232-3.08008-6.88232-6.88037
		c0-3.80078,3.08105-6.88232,6.88232-6.88232c3.80078,0,6.88184,3.08154,6.88184,6.88232
		C14.88184,11.80078,11.80078,14.88086,8,14.88086z"/>
	<path fill="#333333" d="M8.4873,2.26807c0,0.25732-0.20898,0.4668-0.46533,0.4668s-0.46484-0.20947-0.46484-0.4668
		c0-0.25488,0.2085-0.46533,0.46484-0.46533S8.4873,2.01318,8.4873,2.26807z"/>
	<circle fill="#333333" cx="8.00024" cy="13.80078" r="0.4646"/>
	<path fill="#333333" d="M2.27393,7.61182c0.2583,0,0.4668,0.2085,0.4668,0.46484c0,0.25488-0.2085,0.4668-0.4668,0.4668
		c-0.25391,0-0.46436-0.21191-0.46436-0.4668C1.80957,7.82031,2.02002,7.61182,2.27393,7.61182z"/>
	<circle fill="#333333" cx="13.72363" cy="8.07764" r="0.46582"/>
	<circle fill="#333333" cx="3.04175" cy="10.93848" r="0.46537"/>
	<circle fill="#333333" cx="12.95703" cy="5.2146" r="0.46535"/>
	<circle fill="#333333" cx="5.13794" cy="13.03418" r="0.46535"/>
	<circle fill="#333333" cx="10.88379" cy="3.0354" r="0.46477"/>
	<circle fill="#333333" cx="10.86182" cy="13.03418" r="0.46556"/>
	<circle fill="#333333" cx="5.15942" cy="3.03662" r="0.46517"/>
	<circle fill="#333333" cx="12.95752" cy="10.93945" r="0.4649"/>
	<circle fill="#333333" cx="3.04175" cy="5.21509" r="0.46432"/>
	<g>
		<path fill="#333333" d="M9.08105,8.04932c0,0.56982-0.46094,1.03076-1.02979,1.03076l0,0
			c-0.56982,0-1.03125-0.46094-1.03125-1.03076l0,0c0-0.56836,0.46143-1.03027,1.03125-1.03027l0,0
			C8.62012,7.01904,9.08105,7.48096,9.08105,8.04932L9.08105,8.04932z"/>
		<path fill="#333333" d="M8.51465,7.42236V3.78809c0-0.25732-0.20752-0.46582-0.46338-0.46582
			c-0.25732,0-0.46484,0.2085-0.46484,0.46582v3.63428H8.51465z"/>
	</g>
	<path fill="#333333" d="M7.86377,8.46533l2.21045,1.40771c0.2168,0.13867,0.50391,0.07422,0.64258-0.14258
		c0.1377-0.2168,0.0752-0.50391-0.14258-0.64258l-2.2085-1.40625L7.86377,8.46533z"/>
</g>
</svg>
