<?xml version="1.0" encoding="utf-8"?>
<!-- Generator: Adobe Illustrator 15.0.0, SVG Export Plug-In . SVG Version: 6.00 Build 0)  -->
<!DOCTYPE svg PUBLIC "-//W3C//DTD SVG 1.1//EN" "http://www.w3.org/Graphics/SVG/1.1/DTD/svg11.dtd">
<svg version="1.1" id="Layer_1" xmlns="http://www.w3.org/2000/svg" xmlns:xlink="http://www.w3.org/1999/xlink" x="0px" y="0px"
	 width="16px" height="16px" viewBox="0 0 16 16" enable-background="new 0 0 16 16" xml:space="preserve">
<g>
	<path fill="none" stroke="#353635" stroke-width="1.12932" d="M1.35938,15.5c-0.73047,0-1.05957-0.52539-0.73242-1.16992
		L7.40918,0.9834c0.32813-0.64404,0.8623-0.64404,1.18848,0l6.77637,13.34668C15.7002,14.97461,15.37012,15.5,14.63965,15.5H1.35938
		z"/>
	<g>
		<path fill="#333333" d="M8.91797,10.98633c0,0.16016-0.12793,0.28906-0.28711,0.28906H7.36914
			c-0.15918,0-0.28906-0.12891-0.28906-0.28906V5.09668c0-0.16016,0.12988-0.28955,0.28906-0.28955h1.26172
			c0.15918,0,0.28711,0.12939,0.28711,0.28955V10.98633z"/>
		<path fill="#333333" d="M8.91797,13.82422c0,0.1582-0.12793,0.28906-0.28711,0.28906H7.36914
			c-0.15918,0-0.28906-0.13086-0.28906-0.28906v-1.25977c0-0.16211,0.12988-0.29102,0.28906-0.29102h1.26172
			c0.15918,0,0.28711,0.12891,0.28711,0.29102V13.82422z"/>
	</g>
</g>
</svg>
