<?xml version="1.0" encoding="utf-8"?>
<!-- Generator: Adobe Illustrator 15.0.0, SVG Export Plug-In . SVG Version: 6.00 Build 0)  -->
<!DOCTYPE svg PUBLIC "-//W3C//DTD SVG 1.1//EN" "http://www.w3.org/Graphics/SVG/1.1/DTD/svg11.dtd" [
	<!ENTITY ns_extend "http://ns.adobe.com/Extensibility/1.0/">
	<!ENTITY ns_ai "http://ns.adobe.com/AdobeIllustrator/10.0/">
	<!ENTITY ns_graphs "http://ns.adobe.com/Graphs/1.0/">
	<!ENTITY ns_vars "http://ns.adobe.com/Variables/1.0/">
	<!ENTITY ns_imrep "http://ns.adobe.com/ImageReplacement/1.0/">
	<!ENTITY ns_sfw "http://ns.adobe.com/SaveForWeb/1.0/">
	<!ENTITY ns_custom "http://ns.adobe.com/GenericCustomNamespace/1.0/">
	<!ENTITY ns_adobe_xpath "http://ns.adobe.com/XPath/1.0/">
]>
<svg version="1.1" id="Layer_1" xmlns:x="&ns_extend;" xmlns:i="&ns_ai;" xmlns:graph="&ns_graphs;"
	 xmlns="http://www.w3.org/2000/svg" xmlns:xlink="http://www.w3.org/1999/xlink" x="0px" y="0px" width="100px" height="100px"
	 viewBox="0 0 100 100" enable-background="new 0 0 100 100" xml:space="preserve" preserveAspectRatio="none">
	<g>
		<path fill="#FFFFFF" stroke="#333333" stroke-width="2" stroke-miterlimit="10" d="M285.806-106.005v312.01h390.999v-312.01
			H285.806z"/>
		<g>
			<g>
				<path fill="#999999" d="M333.475,9.652c1.604-0.106,2.801-0.667,3.857-1.162c0.896-0.42,1.742-0.816,2.807-0.949
					c3.332-0.409,5.563,1.451,8.147,3.611c1.02,0.853,2.073,1.734,3.231,2.485c2.743,1.78,5.244,2.671,7.482,2.671
					c1.643,0,3.143-0.479,4.493-1.439c0.954-0.677,1.565-1.526,2.156-2.346c0.454-0.63,0.883-1.226,1.45-1.722
					c1.496-1.306,13.74-6.48,19.624-8.967c2.306-0.975,3.972-1.679,4.64-1.989l-0.84-1.814c-0.638,0.295-2.377,1.03-4.578,1.961
					c-9.322,3.94-18.559,7.904-20.16,9.304c-0.742,0.647-1.259,1.365-1.759,2.059c-0.519,0.72-1.008,1.399-1.692,1.885
					c-2.49,1.771-5.672,1.352-9.729-1.279c-1.056-0.686-2.063-1.527-3.037-2.341c-2.694-2.252-5.477-4.589-9.676-4.061
					c-1.381,0.171-2.412,0.655-3.41,1.123c-0.982,0.461-1.912,0.896-3.141,0.977c-2.028,0.134-4.041-0.458-6.168-1.084
					c-2.495-0.735-5.074-1.497-7.877-1.106c-1.148,0.16-2.303,0.784-3.418,1.388c-1.192,0.645-2.426,1.313-3.352,1.223
					c-0.929-0.088-2.141-1.022-3.313-1.925c-1.125-0.867-2.289-1.764-3.512-2.196c-1.5-0.53-3.096-0.708-4.639-0.879
					c-1.156-0.128-2.248-0.25-3.256-0.508l-0.496,1.938c1.143,0.293,2.357,0.428,3.531,0.559c1.431,0.159,2.91,0.323,4.193,0.777
					c0.92,0.326,1.956,1.124,2.957,1.895c1.396,1.076,2.84,2.188,4.344,2.332c1.528,0.149,3.036-0.668,4.492-1.455
					c0.96-0.519,1.953-1.056,2.744-1.167c2.371-0.328,4.637,0.337,7.035,1.044C328.811,9.139,331.09,9.806,333.475,9.652z"/>
				<path fill="#999999" d="M438.472,176.651c-1.327,0.849-2.102,1.57-2.667,2.098c-1.029,0.958-1.113,1.039-3.818,0.166
					c-0.85-0.273-1.988-0.64-2.322-0.828c-0.006-0.032-0.011-0.066-0.018-0.104c-0.088-0.478-0.233-1.278-1.121-2.649
					c-0.41-0.636-0.506-1.024-0.59-1.367c-0.301-1.231-0.847-1.688-2.917-2.444c-1.969-0.72-3.587-0.771-4.812-0.151
					c-0.367,0.187-0.69,0.428-0.968,0.723c-0.009-0.019-0.017-0.036-0.025-0.054c-0.552-1.175-1.239-2.637-3.007-3.108
					c-2.074-0.557-4.403,1.358-6.464,3.044c-0.702,0.574-1.365,1.116-1.81,1.368c-3.93,2.235-9.055,2.824-14.01,3.394
					c-1.855,0.213-3.606,0.414-5.287,0.698c-2.891,0.488-10.225,1.248-15.891-2.259c-0.641-0.396-1.254-0.926-1.903-1.487
					c-1.896-1.64-4.252-3.679-7.86-2.068l-0.555,0.247l-0.036,0.606c-0.335,5.603-3.813,5.858-9.938,5.802
					c-4.543-0.031-9.686-0.074-12.822,3.907c-0.727,0.922-1.171,1.711-1.527,2.345c-0.783,1.393-1.107,1.969-3.699,2.408
					c-1.236,0.21-2.408,0.185-3.539,0.155c-2.602-0.057-5.292-0.125-7.545,3.064c-0.482,0.683-0.88,1.367-1.182,2.033l1.822,0.824
					c0.249-0.551,0.584-1.124,0.992-1.703c1.639-2.318,3.319-2.277,5.865-2.219c1.167,0.025,2.494,0.059,3.92-0.183
					c3.369-0.572,4.102-1.612,5.108-3.4c0.339-0.604,0.725-1.287,1.354-2.087c2.531-3.213,6.955-3.177,11.237-3.146
					c5.228,0.035,11.138,0.085,11.896-7.038c2.014-0.662,3.322,0.34,5.201,1.964c0.68,0.588,1.383,1.196,2.158,1.676
					c6.246,3.864,14.164,3.057,17.277,2.53c1.627-0.275,3.354-0.474,5.182-0.684c5.154-0.593,10.486-1.205,14.77-3.642
					c0.591-0.336,1.284-0.903,2.088-1.56c1.348-1.103,3.606-2.954,4.68-2.66c0.83,0.222,1.176,0.881,1.715,2.027
					c0.291,0.62,0.592,1.26,1.049,1.848l1.203,1.549l0.547-1.883c0.182-0.623,0.479-1.031,0.907-1.248
					c0.69-0.352,1.834-0.263,3.222,0.245c1.545,0.564,1.571,0.675,1.661,1.041c0.104,0.422,0.26,1.06,0.854,1.978
					c0.671,1.036,0.765,1.549,0.832,1.923c0.25,1.367,0.843,1.559,3.694,2.477c3.472,1.118,4.197,0.884,5.795-0.607
					c0.538-0.501,1.207-1.125,2.382-1.877c1.851-1.184,4.26-1.035,5.176-0.106c0.777,0.785,0.251,2.003-0.328,2.887
					c-0.384,0.586-0.974,0.935-1.659,1.337c-0.938,0.553-2,1.179-2.618,2.529c-0.835,1.823-0.429,4.964,0.079,7.797l1.969-0.354
					c-0.227-1.264-0.916-5.111-0.229-6.61c0.356-0.779,1.001-1.158,1.815-1.639c0.787-0.463,1.678-0.988,2.316-1.965
					c1.945-2.97,0.701-4.759,0.076-5.39C444.449,175.105,441.006,175.029,438.472,176.651z"/>
				<path fill="#999999" d="M659.797,144.192c1.145-0.197,3.09-0.263,4.597-0.008l0.334-1.973c-1.805-0.306-3.998-0.209-5.271,0.01
					c-1.994,0.346-3.5,1.746-4.829,2.982c-0.865,0.805-1.693,1.575-2.486,1.884c-0.603-1.932-1.63-3.527-2.628-5.078
					c-0.96-1.491-1.866-2.899-2.327-4.503c-0.479-1.671-0.315-3.916-0.157-6.087c0.121-1.661,0.247-3.38,0.078-4.86l-0.077-0.684
					l-0.666-0.172c-1.427-0.367-2.733-0.857-3.997-1.332c-1.672-0.628-3.401-1.276-5.461-1.675
					c-2.094-0.406-3.483-0.902-4.833-2.36c-2.125-2.299-3.785-5.35-5.309-8.508c0.779-0.9,1.029-2.101,1.248-3.204
					c0.239-1.211,0.465-2.354,1.312-3.136c1.225-1.132,2.284-1.799,3.219-2.388c2.026-1.276,3.627-2.285,4.507-6.514
					c0.492-2.361,0.638-4.087,0.754-5.475c0.281-3.347,0.357-4.246,5.074-7.454l-0.111-0.164c2.322,1.229,4.978,2.04,7.504,2.199
					c0.311,0.02,0.616,0.029,0.917,0.029c2.858,0,5.277-0.877,7.036-2.563c1.605-1.537,1.841-3.709,2.048-5.625
					c0.146-1.353,0.285-2.631,0.894-3.047c0.438-0.3,1.297-0.291,2.491,0.029l0.518-1.932c-1.823-0.489-3.177-0.406-4.139,0.252
					c-1.368,0.937-1.563,2.739-1.752,4.481c-0.179,1.653-0.364,3.363-1.442,4.397c-1.933,1.85-4.573,2.103-6.444,1.98
					c-4.051-0.255-8.641-2.474-10.913-5.276c-2.374-2.932-2.423-5.207-2.479-7.842c-0.032-1.5-0.065-3.051-0.531-4.795
					c-0.386-1.448-0.777-2.695-1.122-3.796c-0.919-2.931-1.593-5.127-1.682-9.034c4.086-0.88,4.903-3.211,5.618-5.28
					c0.477-1.376,0.926-2.676,2.331-3.718c1.226-0.909,2.449-0.902,3.733-0.892c2.629-0.008,4.797-0.352,5.931-4.955
					c1.873,0.061,3.727,0.317,5.674,0.587c1.767,0.245,3.59,0.498,5.443,0.592c0.007,0.006,0.013,0.012,0.019,0.017
					c-0.006-0.005-0.011-0.011-0.017-0.017c0.106,0.005,0.212,0.01,0.318,0.015l0.002-0.037l0.195,0.195
					c-0.172,0.171-0.363,0.213-0.423,0.214c0.083,0.005,0.164,0.016,0.241,0.026c0.265,0.037,1.07,0.152,1.383-0.613
					c0.322-0.792-0.358-1.292-0.766-1.591l-0.246-0.181l-0.305-0.012c-1.867-0.076-3.75-0.337-5.571-0.589
					c-2.193-0.304-4.461-0.619-6.747-0.62l-0.819,0l-0.161,0.804c-0.839,4.186-2.021,4.167-4.138,4.165
					c-1.414-0.009-3.176-0.021-4.938,1.285c-1.902,1.41-2.501,3.143-3.029,4.671c-0.623,1.802-1.09,3.152-3.567,3.842
					c-0.28-1.05-0.511-2.248-0.751-3.499c-0.571-2.968-1.162-6.038-2.59-8.217c-1.376-2.098-4.4-3.356-7.325-4.572
					c-2.915-1.212-5.929-2.465-6.632-4.297c-0.404-1.053-1.63-4.26-3.904-3.909c-4.342,0.663-6.69,15.576-7.442,22.396
					c-0.179-0.107-0.354-0.224-0.522-0.356c-1.183-0.928-2.278-2.029-3.438-3.196c-1.393-1.4-2.832-2.848-4.483-4.028
					c-3.452-2.467-6.757-5.17-9.954-7.783c-0.495-0.405-0.993-0.812-1.492-1.218c-1.041-3.322-0.306-9.25,0.021-11.882
					c0.463-3.74,2.289-5.583,4.603-7.916c0.785-0.792,1.597-1.611,2.421-2.568c2.761-3.207,2.96-3.968,3.359-6.678
					c0.1-0.673,0.219-1.487,0.42-2.535c0.16-0.837,0.339-1.609,0.512-2.35c0.435-1.872,0.846-3.64,0.779-5.754
					c-0.048-1.52-0.558-2.776-1.051-3.99c-0.567-1.396-1.058-2.603-0.842-4.099c0.112-0.787,0.508-1.365,0.965-2.034
					c1.752-2.563,2.556-4.982-2.867-12.364c0.957-2.274,0.893-5.118,0.848-6.884c-0.008-0.317-0.015-0.6-0.015-0.84l-0.008-0.126
					c-0.175-1.375-0.277-2.775-0.377-4.129c-0.313-4.266-0.609-8.296-3.16-10.291c-0.366-0.286-0.766-0.521-1.2-0.706
					c1.106-0.816,1.836-1.867,2.526-2.896c0.679-1.012,1.318-1.967,2.268-2.531c1.796-1.067,3.915-1.076,6.163-1.066
					c1.231-0.001,2.543,0,3.839-0.184c0.867-0.124,1.361-0.868,1.758-1.465c0.112-0.17,0.29-0.438,0.404-0.556
					c0.385,0.019,1.003,0.185,1.51,0.321c0.776,0.208,1.39,0.374,1.907,0.305c0.605-0.085,1.231,0.156,1.958,0.431
					c0.862,0.326,1.923,0.725,3.115,0.52c-0.207,1.608,0.141,4.001,2.943,6.322c2.556,2.115,5.988,2.142,9.307,2.168
					c1.617,0.012,3.145,0.024,4.469,0.282c4.131,0.804,10.881,4.314,12.808,8.816c0.8,1.868,0.94,3.516,1.076,5.109
					c0.257,3.01,0.499,5.853,5.172,8.482c0.997,0.561,1.88,0.991,2.659,1.371c1.614,0.786,2.889,1.407,4.575,2.813
					c0.704,0.587,1.203,1.121,1.686,1.637c1.152,1.233,2.147,2.297,4.94,3.069l0.533-1.928c-2.25-0.622-2.951-1.372-4.012-2.507
					c-0.501-0.535-1.067-1.141-1.866-1.808c-1.874-1.562-3.313-2.263-4.98-3.075c-0.791-0.385-1.609-0.784-2.555-1.316
					c-3.751-2.11-3.913-4.02-4.16-6.909c-0.143-1.669-0.304-3.562-1.229-5.726c-2.3-5.371-9.872-9.138-14.265-9.992
					c-1.506-0.293-3.198-0.307-4.835-0.319c-2.969-0.023-6.039-0.047-8.047-1.709c-1.696-1.404-2.448-2.933-2.233-4.544
					c0.393-2.946,3.884-5.793,6.96-7.191c3.13-1.421,5.269-2.451,8.563-4.766c2.097-1.474,3.414-1.684,5.082-1.949
					c1.068-0.169,2.278-0.362,3.808-0.915c3.578-1.294,9.629-4.907,11.255-8.55c0.613-1.374,0.688-3.321,0.76-5.205
					c0.057-1.487,0.115-3.025,0.451-3.904l-1.869-0.714c-0.453,1.188-0.516,2.817-0.581,4.542
					c-0.064,1.694-0.131,3.445-0.587,4.465c-1.312,2.939-6.81,6.292-10.108,7.485c-1.351,0.488-2.413,0.657-3.441,0.82
					c-1.771,0.282-3.443,0.547-5.919,2.288c-3.045,2.14-4.935,3.081-8.239,4.581c-2.632,1.197-5.711,3.39-7.227,6.154
					c-1.19,1.017-2.04,0.708-3.3,0.231c-0.856-0.324-1.829-0.689-2.912-0.544c-0.204,0.014-0.758-0.149-1.142-0.252
					c-0.764-0.206-1.561-0.422-2.226-0.389c-0.938,0.039-1.457,0.821-1.874,1.449c-0.126,0.189-0.329,0.497-0.448,0.602
					c-1.132,0.153-2.332,0.145-3.481,0.153c-2.418-0.005-4.917-0.001-7.185,1.347c-1.337,0.795-2.136,1.985-2.907,3.137
					c-0.67,1-1.303,1.944-2.247,2.561c-1.316,0.858-2.043,0.882-2.963,0.913c-0.683,0.023-1.456,0.049-2.473,0.384
					c-1.234,0.407-2.463,0.993-3.65,1.561c-3.06,1.461-5.949,2.839-9.37,1.74c-3.026-0.975-5.986-3.366-8.849-5.679
					c-1.959-1.583-3.811-3.079-5.718-4.187c-1.479-0.859-2.807-1.45-3.979-1.97c-3.072-1.366-5.102-2.268-7.002-6.714
					c-1.05-2.459-3.235-7.576-2.277-10.4l0.085-0.251c0.886-2.603,1.992-5.852,2.001-9.397l0.262-0.058
					c-0.114-0.514-0.222-0.979-0.322-1.4c-0.109-1.266-0.375-2.561-0.854-3.872l-0.178-0.487l-0.5-0.136
					c-0.482-0.131-0.868-0.043-1.156,0.256c-0.451,0.467-0.29,0.991-0.103,1.598c0.151,0.492,0.432,1.398,0.813,2.977
					c0.274,3.612-0.882,7.008-1.857,9.875l-0.086,0.253c-0.31,0.914-0.385,1.95-0.308,3.033c-1.06,2.289-2.003,2.269-4.221,2.213
					c-0.451-0.012-0.932-0.023-1.445-0.016l-0.746,0.01c-4.478,0.059-4.923,0.121-9.384,2.576
					c-5.229,2.876-8.395,3.322-13.641,4.06c-1.603,0.226-3.405,0.479-5.512,0.835c-1.752-1.226-4.315-1.206-6.795-1.189
					c-1.26,0.01-2.447,0.019-3.39-0.144l-0.34,1.971c1.119,0.192,2.393,0.184,3.744,0.173c2.299-0.018,4.679-0.035,5.853,0.999
					l0.359,0.317l0.472-0.082c2.265-0.391,4.188-0.662,5.887-0.9c5.285-0.743,8.775-1.234,14.327-4.288
					c4.128-2.271,4.209-2.272,8.445-2.328l0.749-0.01c0.485-0.008,0.94,0.004,1.365,0.016c1.784,0.045,3.392,0.081,4.766-1.346
					c0.576,2.244,1.503,4.423,2.146,5.929c0.225,0.524,0.453,0.998,0.686,1.443c-2.939,1.361-5.656,4.097-7.729,6.192
					c-1.298,1.313-2.188,1.548-3.315,1.847c-0.949,0.251-2.026,0.537-3.354,1.479c-2.206,1.566-2.392,4.157-2.555,6.442
					c-0.189,2.648-0.405,4.303-2.369,4.925l-0.825,0.261l0.141,0.854c0.108,0.665,0.229,1.323,0.348,1.978
					c0.216,1.179,0.421,2.307,0.559,3.437c-1.52,0.098-2.42-0.529-3.512-1.297c-0.87-0.613-1.857-1.307-3.209-1.572
					c-2.3-0.452-4.266,0.078-6.168,0.591c-0.871,0.235-1.771,0.478-2.683,0.615c-2.465,0.371-3.077,0.041-3.723-0.311
					c-0.758-0.413-1.508-0.729-2.994-0.654c0.101-0.495,0.143-1.019,0.08-1.59c-0.331-3.016-2.363-4.308-4.51-5.256l-0.808,1.83
					c1.949,0.86,3.119,1.732,3.329,3.644c0.181,1.652-0.914,2.842-2.182,4.221c-1.167,1.268-2.489,2.706-2.784,4.685
					c-0.661,4.438,2.716,6.554,5.181,8.099c4.13,2.589,5.582,1.34,7.325-0.863c0.716-0.904,1.527-1.929,2.869-2.828
					c1.569-1.052,2.893-1.382,3.938-0.979c2.486,0.961,3.708,5.887,4.601,9.484c0.243,0.979,0.469,1.889,0.698,2.655
					c1.021,3.394,3.454,4.844,5.602,6.125c1.646,0.981,3.201,1.909,4.072,3.623c0.81,1.595,0.28,2.571-0.453,3.922
					c-0.684,1.261-1.535,2.831-0.9,4.944c0.908,3.021,3.448,3.332,5.489,3.581c1.253,0.153,2.438,0.298,3.335,0.936
					c0.901,0.639,1.513,2.084,2.104,3.481c0.819,1.937,1.667,3.939,3.523,4.603c1.362,0.485,2.72-0.014,4.03-0.499
					c1.077-0.399,2.195-0.81,3.258-0.645c2.097,0.326,3.818,1.88,5.483,3.382c0.69,0.624,1.405,1.269,2.13,1.806
					c2.348,1.739,4.886,2.814,7.34,3.854c1.818,0.771,3.537,1.499,5.203,2.48c5.02,2.959,9.545,6.513,13.894,10.051
					c0.033,0.082,0.054,0.177,0.089,0.256l0.146-0.065c0.558,0.454,1.112,0.907,1.664,1.358c3.222,2.633,6.552,5.357,10.056,7.862
					c1.516,1.083,2.896,2.471,4.229,3.812c1.152,1.158,2.343,2.355,3.622,3.358c0.495,0.388,1.017,0.68,1.549,0.916
					c-0.017,0.206-0.031,0.396-0.041,0.553l1.996,0.127c0.001-0.018,0.003-0.035,0.004-0.052c0.622,0.138,1.239,0.235,1.828,0.326
					c1.579,0.243,3.071,0.473,4.176,1.419c2.241,1.918,1.829,7.488,1.498,11.965c-0.139,1.867-0.27,3.631-0.2,4.998
					c0.171,3.368-0.163,5.101-1.487,7.724c-0.313,0.62-0.728,1.259-1.166,1.935c-1.189,1.831-2.537,3.906-2.173,6.312
					c0.307,2.033,2.213,3.969,3.896,5.676c0.631,0.641,1.226,1.244,1.635,1.757c1.717,2.151,2.978,4.724,4.197,7.212
					c0.577,1.177,1.174,2.395,1.814,3.562c0.908,1.653,1.758,3.482,2.657,5.418c1.977,4.253,4.02,8.65,6.993,11.866
					c1.708,1.846,3.531,2.503,5.922,2.966c1.895,0.367,3.47,0.958,5.138,1.584c1.112,0.418,2.256,0.847,3.51,1.208
					c0.056,1.147-0.039,2.453-0.139,3.822c-0.171,2.346-0.348,4.771,0.229,6.783c0.541,1.888,1.571,3.487,2.567,5.035
					c1.106,1.72,2.152,3.344,2.605,5.355l0.173,0.768l0.787,0.013c0.02,0,0.038,0,0.058,0c1.782,0,3.182-1.301,4.535-2.56
					C657.169,145.571,658.389,144.437,659.797,144.192z M565.306,19.028c-2.455-1.04-4.773-2.022-6.93-3.62
					c-0.646-0.479-1.295-1.064-1.98-1.683c-1.795-1.62-3.83-3.457-6.516-3.875c-1.58-0.246-3.004,0.282-4.26,0.746
					c-1.064,0.394-1.986,0.732-2.662,0.49c-1.03-0.368-1.674-1.889-2.355-3.499c-0.7-1.655-1.424-3.365-2.787-4.333
					c-1.311-0.931-2.873-1.121-4.251-1.29c-2.158-0.264-3.308-0.48-3.815-2.171c-0.396-1.316,0.106-2.242,0.742-3.415
					c0.786-1.448,1.764-3.25,0.479-5.782c-1.134-2.23-3.014-3.351-4.832-4.435c-2.012-1.2-3.913-2.333-4.709-4.982
					c-0.222-0.738-0.438-1.616-0.673-2.561c-1.054-4.247-2.364-9.533-5.821-10.869c-1.687-0.651-3.629-0.253-5.772,1.183
					c-1.602,1.073-2.557,2.279-3.324,3.248c-1.397,1.767-1.774,2.24-4.694,0.41c-2.859-1.792-4.7-3.186-4.265-6.11
					c0.204-1.372,1.211-2.467,2.277-3.626c0.593-0.645,1.212-1.332,1.716-2.099c1.844-0.272,2.365-0.007,2.94,0.306
					c1.044,0.568,2.074,0.969,4.978,0.532c1.023-0.154,1.979-0.413,2.904-0.662c1.759-0.474,3.418-0.923,5.262-0.559
					c0.935,0.184,1.634,0.676,2.444,1.246c1.129,0.794,2.377,1.673,4.33,1.673c0.497,0,1.04-0.057,1.638-0.187l0.858-0.186
					l-0.074-0.875c-0.13-1.541-0.41-3.075-0.681-4.559c-0.069-0.384-0.14-0.769-0.208-1.156c2.578-1.282,2.777-4.076,2.941-6.361
					c0.145-2.023,0.28-3.934,1.718-4.954c1.031-0.732,1.846-0.948,2.707-1.176c1.193-0.316,2.545-0.673,4.26-2.409
					c1.981-2.002,4.637-4.667,7.311-5.827c1.809,2.576,3.864,3.49,6.306,4.576c1.181,0.524,2.4,1.067,3.787,1.872
					c1.773,1.03,3.566,2.479,5.465,4.013c3.005,2.427,6.112,4.938,9.492,6.026c1.071,0.345,2.101,0.49,3.093,0.49
					c2.874,0,5.429-1.22,7.752-2.329c1.184-0.565,2.302-1.099,3.415-1.466c0.586-0.192,1.063-0.245,1.532-0.269l0.03,0.173
					c2.09-0.359,3.595-0.153,4.597,0.63c1.854,1.449,2.118,5.05,2.398,8.862c0.1,1.36,0.202,2.766,0.379,4.173
					c0.001,0.24,0.008,0.518,0.016,0.826c0.053,2.133,0.151,6.103-1.822,7.64c-1.033,0.804-2.63,0.913-4.741,0.323
					c-1.904-0.533-2.989-1.996-4.139-3.545c-0.946-1.276-1.924-2.595-3.389-3.305c-1.572-0.762-3.674-0.572-5.703-0.39
					c-0.832,0.076-1.662,0.148-2.317,0.145c-0.537-1.425-1.227-2.282-2.14-2.677c-1.416-0.612-2.897,0.113-4.329,0.813
					c-0.638,0.312-1.298,0.634-1.964,0.856c-3.356,1.12-3.591,1.079-6.484,0.554l-0.479-0.087
					c-0.597-0.107-1.258-0.294-1.958-0.493c-2.163-0.612-4.853-1.374-7.161,0.017c-1.393,0.839-1.771,2.279-2.106,3.549
					c-0.372,1.413-0.669,2.344-1.746,2.826c-0.389-0.526-0.954-1.657-0.979-2.102l-0.038-0.682l-0.944-0.31
					c-2.474-0.817-5.277-1.742-8.111,1.017l-0.293,0.285l-0.036,1.379c-0.09,3.103-0.147,5.058,2.025,7.823
					c-2.564,4.792,6.406,14.222,11.34,19.408c0.737,0.776,1.494,1.571,1.89,2.028l-0.025,0.047l0.389,0.51
					c1.842,2.421,4.04,3.984,6.366,5.64c1.325,0.942,2.695,1.917,4.007,3.073c2.073,1.828,2.352,2.416,2.646,3.038
					c0.347,0.733,0.739,1.564,2.81,3.553c1.932,1.856,3.45,2.399,4.919,2.925c1.479,0.529,2.876,1.029,4.91,2.947
					c0.853,0.804,0.946,1.223,1.064,1.753c0.228,1.016,0.548,1.904,2.392,3.302c0.577,0.437,1.045,0.835,1.436,1.244
					c-2.237-1.639-4.556-3.216-7.003-4.659C568.964,20.578,567.104,19.79,565.306,19.028z M581.079,28.805
					c-0.396-2.504-1.568-3.848-3.559-5.357c-1.407-1.066-1.514-1.542-1.648-2.145c-0.154-0.69-0.347-1.548-1.646-2.772
					c-2.338-2.205-4.075-2.826-5.607-3.375c-1.387-0.496-2.584-0.925-4.208-2.484c-1.805-1.733-2.101-2.359-2.387-2.965
					c-0.451-0.956-0.914-1.729-3.131-3.683c-1.39-1.226-2.803-2.231-4.17-3.203c-2.13-1.516-4.146-2.95-5.777-5.019
					c-0.233-0.517-0.961-1.281-2.552-2.955c-3.718-3.908-13.594-14.289-10.792-17.417l0.587-0.655l-0.575-0.666
					c-2.168-2.506-2.129-3.838-2.034-7.057l0.015-0.555c1.787-1.528,3.479-1.049,5.555-0.367c0.361,1.217,1.337,3.025,2.276,3.346
					c0.351,0.121,0.714,0.081,1.009-0.099c2.316-0.826,2.821-2.742,3.229-4.288c0.314-1.194,0.541-1.946,1.205-2.346
					c1.564-0.944,3.608-0.364,5.582,0.194c0.75,0.212,1.457,0.413,2.15,0.537l0.477,0.086c3.215,0.583,3.77,0.61,7.474-0.625
					c0.792-0.265,1.545-0.632,2.209-0.957c1.073-0.524,2.088-1.021,2.658-0.774c0.315,0.136,0.789,0.612,1.252,2.104l0.197,0.636
					l0.663,0.063c0.996,0.094,2.123-0.008,3.317-0.115c1.677-0.152,3.577-0.323,4.651,0.197c1.022,0.495,1.815,1.564,2.654,2.696
					c1.239,1.67,2.643,3.563,5.206,4.28c2.76,0.771,4.948,0.544,6.509-0.67c0.22-0.171,0.415-0.362,0.6-0.562
					c4.485,6.286,3.457,7.811,2.361,9.413c-0.522,0.765-1.115,1.632-1.294,2.879c-0.292,2.031,0.378,3.68,0.969,5.135
					c0.447,1.1,0.868,2.138,0.905,3.3c0.058,1.854-0.307,3.422-0.729,5.239c-0.178,0.765-0.363,1.563-0.528,2.427
					c-0.207,1.083-0.331,1.924-0.434,2.619c-0.347,2.352-0.409,2.776-2.896,5.665c-0.778,0.904-1.564,1.697-2.325,2.464
					c-2.377,2.397-4.621,4.661-5.167,9.079c-0.43,3.459-0.756,7.17-0.428,10.193C582.299,29.766,581.692,29.284,581.079,28.805z
					 M622.707,103.447c-0.619-1.127-1.206-2.322-1.772-3.479c-1.268-2.584-2.577-5.256-4.43-7.579
					c-0.474-0.594-1.105-1.233-1.773-1.912c-1.396-1.416-3.133-3.18-3.343-4.57c-0.25-1.655,0.781-3.243,1.872-4.924
					c0.449-0.691,0.913-1.406,1.274-2.123c1.655-3.278,1.867-5.426,1.7-8.727c-0.063-1.242,0.063-2.946,0.196-4.749
					c0.384-5.183,0.817-11.056-2.191-13.632c-1.538-1.317-3.386-1.601-5.173-1.876c-0.679-0.104-1.339-0.209-1.973-0.365
					c0.918-9.861,3.882-20.867,5.834-21.165c0.153-0.029,0.868,0.39,1.735,2.649c1.011,2.633,4.427,4.053,7.73,5.427
					c2.646,1.1,5.383,2.238,6.421,3.822c1.211,1.849,1.764,4.721,2.299,7.499c0.302,1.572,0.593,3.055,0.994,4.352h-0.458
					c0,4.785,0.79,7.304,1.791,10.493c0.355,1.134,0.724,2.307,1.099,3.713c0.402,1.512,0.432,2.877,0.463,4.322
					c0.06,2.75,0.12,5.594,2.926,9.058c0.832,1.026,1.909,1.975,3.138,2.802c-4.577,3.228-4.946,4.781-5.257,8.464
					c-0.111,1.333-0.251,2.992-0.718,5.233c-0.708,3.397-1.741,4.049-3.616,5.229c-0.957,0.604-2.149,1.354-3.51,2.611
					c-1.325,1.224-1.639,2.813-1.916,4.217c-0.108,0.546-0.205,1.005-0.327,1.388c-0.1-0.213-0.2-0.427-0.299-0.64
					C624.51,107.019,623.646,105.16,622.707,103.447z"/>
				<path fill="#999999" d="M661.879,180.37c-0.508-1.025-1.326-1.689-2.074-2.298c-0.733-0.596-1.367-1.11-1.696-1.908
					c-0.56-1.362-0.345-3.729-0.155-5.815c0.109-1.209,0.213-2.35,0.175-3.299c-0.061-1.552-0.382-3.033-0.693-4.466
					c-0.404-1.861-0.786-3.62-0.582-5.389c0.292-2.53,0.507-2.577,2.173-2.945c0.496-0.11,1.113-0.247,1.825-0.47
					c0.139-0.044,0.494-0.146,0.98-0.288c0.787-0.229,1.907-0.555,3.019-0.891l-0.578-1.914c-1.104,0.334-2.217,0.657-2.998,0.884
					c-0.507,0.147-0.877,0.255-1.021,0.301c-0.63,0.197-1.177,0.318-1.659,0.425c-2.324,0.514-3.313,1.08-3.727,4.669
					c-0.242,2.099,0.192,4.104,0.614,6.043c0.306,1.41,0.596,2.742,0.649,4.12c0.033,0.819-0.065,1.897-0.169,3.038
					c-0.21,2.316-0.448,4.941,0.298,6.758c0.523,1.27,1.459,2.029,2.285,2.7c0.928,0.754,1.66,1.349,1.803,2.544l0.229,1.918
					l1.434-1.294c0.55-0.495,1.553-1.284,2.093-1.006l0.916-1.777C663.882,179.421,662.737,179.836,661.879,180.37z"/>
				<path fill="#999999" d="M428.818-78c1.547,0.537,2.455,0.68,3.119,0.785c0.884,0.14,1.094,0.172,2.192,1.247
					c0.573,0.561,1.765,2.466,2.917,4.308c1.411,2.255,2.869,4.587,3.909,5.667l1.44-1.387c-0.895-0.93-2.36-3.273-3.653-5.34
					c-1.325-2.119-2.471-3.949-3.215-4.677c-1.488-1.457-2.114-1.609-3.28-1.793c-0.621-0.098-1.396-0.22-2.773-0.699
					c-3.723-1.292-3.683-3.879-3.292-8.341c0.126-1.428,0.255-2.905,0.184-4.391l-1.998,0.096c0.065,1.351-0.059,2.759-0.178,4.121
					C423.84-84.402,423.442-79.866,428.818-78z"/>
				<path fill="#999999" d="M369.391-69.94l0.975-0.117l-0.099-0.976c-0.021-0.208,0.058-0.686,0.12-1.069
					c0.041-0.251,0.084-0.505,0.114-0.757c2.575-0.411,4.673,0.087,6.399,1.509c5.109,4.208,5.279,15.373,5.209,18.694l2,0.042
					c0.096-4.549-0.292-15.631-5.938-20.28c-2.359-1.943-5.33-2.542-8.838-1.779l-0.83,0.18l0.045,0.849
					c0.016,0.302-0.064,0.789-0.135,1.217c-0.029,0.176-0.059,0.349-0.082,0.518c-1.457-0.104-3.02-0.897-3.491-2.281
					c-0.286-0.84-0.344-1.254-0.349-1.439c0.154-0.026,0.394-0.042,0.582-0.055c0.717-0.049,1.697-0.117,2.67-0.683
					c0.742-0.432,1.476-0.726,2.186-1.01c2.279-0.914,4.441-1.78,4.131-6.435c2.119-0.367,4.766-1.441,6.439-3.534
					c1.22-1.525,1.707-3.384,1.406-5.375l-1.977,0.298c0.217,1.446-0.117,2.734-0.992,3.829c-1.453,1.816-4.08,2.773-6.039,2.915
					l-1.053,0.076l0.133,1.047c0.506,4.002-0.527,4.417-2.793,5.324c-0.74,0.296-1.578,0.632-2.447,1.138
					c-0.569,0.331-1.195,0.374-1.801,0.416c-0.762,0.052-1.625,0.111-2.133,0.876c-0.455,0.684-0.414,1.628,0.144,3.26
					C363.846-70.912,366.93-69.639,369.391-69.94z"/>
			</g>
			<path fill="none" stroke="#333333" stroke-width="2" stroke-miterlimit="10" d="M534.414,142.015
				c-3.371,0.928-5.816,4.167-8.805,5.276c-2.328,0.864-5.924,0.525-8.424,0.403c-2.754-0.133-3.965-0.291-6.602,0.404
				c-4.711,1.238-3.703,0.469-8.642-0.797c-3.511-0.899-3.489,1.551-6.692,1.706c-3.025,0.147-4.78-3.196-7.376-3.945
				c-2.615-0.755-5.393,0.767-7.435,0.893c-2.432,0.147-4.299-0.979-6.624-1.001c-4.051-0.039-4.458,5.666-3.285,9.671
				c1.56,5.323,9.062,6.619,13.067,10.339c2.974,2.76,3.639,3.11,7.683,3.166c5.457,0.076,4.913,1.424,9.086,3.757
				c2.42,1.353,6.13,0.472,8.421,2.424c2.426,2.068,2.475,5.294,5.92,6.907c3.223,1.51,7.17,1.639,10.631,3.111
				c0.4-2.271,2.221-4.099,2.99-6.188c0.627-1.698,0.586-3.476,0.852-5.286c0.557-3.782-0.309-7.022-0.01-10.797
				c0.238-3.045,0.506-9.224,1.656-11.891c0.42-0.975,7.066-8.542,0.541-7.282"/>
			<path fill="none" stroke="#333333" stroke-width="2" stroke-miterlimit="10" d="M383.109-52.635
				c-0.19,1.971,0.155,3.533,0.874,5.332c0.706,1.768,3.996,4.034,4.181,5.497c0.516,4.089-6.063,5.47-9.257,5.502
				c-0.198,1.461,1.634,3.818,2.266,4.957c1.167,2.103,0.521,3.45,3.855,3.459c-0.702,2.68-0.95,5.793-1.54,8.184
				c-1.004,4.067-0.287,4.483,3.884,5.801c3.295,1.04,6.298,0.614,6.197,4.573c-0.087,3.445-6.121,4.459-2.626,8.267
				c2.261-1.431,7.553-1.974,9.987-3.05c3.885-1.717,3.291-5.312,7.13-6.554c4.607-1.491,6.176-4.108,10.457-2.652
				c3.955,1.346,4.688,2.924,7.982,4.974c2.503,1.557,5.07,0.791,7.361,3.031c2.888,2.825,3.581,6.455,3.874,10.23
				c0.295,3.799,1.073,7.234,2.79,10.644c1.881,3.732,3.35,6.116-2.01,7.268c2.585-0.12,4.907,1.76,6.968,3.153
				c1.862,1.26,3.77,1.618,5.53,2.716c2.818,1.757,3.068,5.798,5.662,7.64c1.427,1.014,3.258,0.247,4.701,1.262
				c1.733,1.217,2.045,5.527,2.982,7.354c1.592,3.102,2.185,2.489,4.707,4.239c1.354,0.94,2.116,2.92,3.132,3.822
				c1.262,1.122,2.151,1.281,3.627,2.041c2.454,1.264,4.917,2.321,4.585,5.772c3.14-0.339,5.387,2.79,8.163,3.158
				c1.867,0.248,1.942-0.975,4.04-0.463c2.497,0.61,2.433,3.801,5.403,1.321c1.133,5.934,2.433,6.71,8.019,7.679
				c3.607,0.625,8.695,2.891,11.592,5.472c4.176,3.721,2.18,8.459,5.438,11.861c1.83,1.912,7.23,3.83,8.773,0.868
				c2.398,0.992,1.598,4.104,1.959,6.236c0.564,3.348,2.068,5.697,4.27,8.019c5.086,5.365,5.469,10.637,7.283,17.518
				c-2.41,0.76-5.723-0.811-6.818,1.942c-1.018,2.563,2.283,4.961,0.629,7.898c-1.371,2.432-5.246,8.208-2.244,11.679
				c1.238,1.432,0.756-4.454,2.021-3.715c1.738,1.017,6.172-0.159,7.949,1.593c1.684-4.093,0.604-5.145,1.627-9.399
				c0.625-2.605,0.467-5.039,0.797-7.699c0.982-7.93,7.416-7.272,14.09-6.616c0.859-1.677,1.006-4.227,0.563-6.074
				c-0.502-2.095-1.199-5.293-1.867-7.369c-1.715-5.321-6.773-1.994-10.84-4.246c-6.197-3.434,2.873-8.969,3.479-13.576
				c0.486-3.692-0.994-12.043,6.027-9.382c2.436,0.924,3.486,3.226,6.367,4.276c2.479,0.903,7.291,1.192,8.943,3.555
				c1.119,1.6,0.242,15.507,5.693,8.352c1.793-2.353,1.791-11.442,0.783-13.938c-2.332-5.78-9.318-6.394-13.922-9.361
				c-5.07-3.268-10.623-3.42-15.83-7.125c-4.918-3.499-8.371-7.737-14.295-8.366c-0.072-1.264-0.402-3.245,0.02-4.444
				c0.393-1.11,2.023-0.876,2.275-2.376c0.756-4.49-3.42-4.674-6.613-4.656c-4.002,0.021-8.508,0.608-12.178-0.661
				c-4.467-1.546-6.623-5.937-9.867-9.013c-2.348-2.227-5.162-3.378-7.163-5.774c-2.116-2.536-3.596-6.008-5.166-8.892
				c-2.351-4.315-4.144-10.024-7.438-13.741c-3.851-4.344-9.928-7.122-14.286-11.158c-4.011-3.713-6.23-8.711-10.021-12.746
				c2.979-2.588,7.29-4.161,7.639-8.051c0.245-2.728-2.013-5.131-3.043-7.503c-1.543-3.551-1.927-2.908,1.438-5.003
				c3.313-2.063,7.099-3.671,10.4-5.448c2.83-1.523,3.973-1.886,7.379-1.899c1.497-0.007,3.99,0.961,5.064-0.834
				c1.423-2.378-1.637-8.1-2.651-9.888c-3.467-6.113,1.104-2.739,1.574-7.46c0.491-4.921-10.426-2.61-13.252-3.12
				c-4.593-0.827-7.66-4.279-10.658-7.853c4.688-6.278-8.827-3.402-11.767-2.993c-4.946,0.689-2.09,2.566-5,4.987
				c-2.773,2.308-7.209-1.647-10.088-0.723c-3.786,1.216-0.525,2.905-1.253,5.724c-1.159,4.494-3.733,0.411-6.196-1.142
				c-3.958-2.495-3.317-0.834-2.692,2.672c0.391,2.19,0.433,4.963,1.662,6.69c-0.938,1.081-4.242-0.529-5.752-1.162
				c-1.468-0.616-1.637,0.364-2.845-1.156c-0.879-1.105,0.319-2.941-0.505-3.887c-2.664-3.054-2.957,0.021-3.729,1.645
				c-0.905,1.903-2.462,5.104-3.098,7.281c-1.312,4.483-0.583,9.371-6.104,3.575c-2.755-2.892-3.352-4.029-3.97-7.798
				c-0.405-2.467,0.061-3.787-2.317-5.45c-5.837,1.962-5.872,11.246-10.854,13.151c-5.126,1.961-10.771,0.001-15.885,2.324"/>
			<path fill="none" stroke="#333333" stroke-width="2" stroke-miterlimit="10" d="M399.322,65.568
				c1.269,0.147,1.335,0.821,2.469,1.423c0.628,0.333,2.787,2.724,2.996,2.767c3.213,0.649,6.273-4.659,8.531-6.176
				c9.134-6.136,6.712,2.88,8.138,8.605c0.549,2.202,1.654,2.713,3.127,4.488c2.009,2.421,1.912,2.018,1.127,4.638
				c-1.327,4.428-2.735,5.283-2.32,10.192c0.607,7.195-0.808,14.737,0.679,22.018c-4.022,0.17-5.908-0.997-9.607-1.959
				c-4.637-1.205-1.816,0.774-6.009,3.471c-1.339,0.861-6.736,1.859-8.401,0.737c-2.551-1.721,0.287-7.338,0.113-10.363
				c-0.392-6.786,2.278-15.421,0.493-22.062c-1.077-4.005-4.637-5.529-4.416-9.965c0.032-0.644,1.16-1.32,1.249-2.228
				c0.093-0.955-1.093-1.637-0.849-2.507C397.133,66.896,396.854,65.534,399.322,65.568"/>
		</g>
		<g opacity="0.54">
			<g>
				<g>
					<polygon fill="#333333" stroke="#333333" stroke-width="2" stroke-miterlimit="10" points="324.71,132.754 330.84,112.204 
						336.968,132.754 						"/>
				</g>
			</g>
			
				<text transform="matrix(1 0 0 1 324.4971 102.5117)" fill="#333333" stroke="#333333" stroke-width="2" stroke-miterlimit="10" font-family="'MyriadPro-Regular'" font-size="19.9607">N</text>
		</g>
		
			<rect x="297.561" y="-93.289" fill="none" stroke="#333333" stroke-width="1.9927" stroke-miterlimit="10" width="367" height="285.891"/>
	</g>
	
		<line fill="none" stroke="#333333" stroke-width="2.719" stroke-linecap="round" stroke-miterlimit="10" x1="2" y1="98" x2="98" y2="2"/>
	
		<line fill="none" stroke="#333333" stroke-width="2.719" stroke-linecap="round" stroke-miterlimit="10" x1="98" y1="98" x2="2" y2="2"/>
</svg>
