<?xml version="1.0" encoding="utf-8"?>
<!-- Generator: Adobe Illustrator 15.0.0, SVG Export Plug-In . SVG Version: 6.00 Build 0)  -->
<!DOCTYPE svg PUBLIC "-//W3C//DTD SVG 1.1//EN" "http://www.w3.org/Graphics/SVG/1.1/DTD/svg11.dtd">
<svg version="1.1" id="Layer_1" xmlns="http://www.w3.org/2000/svg" xmlns:xlink="http://www.w3.org/1999/xlink" x="0px" y="0px"
	 width="762.121px" height="792px" viewBox="0 0 762.121 792" enable-background="new 0 0 762.121 792" xml:space="preserve">
<rect x="46.051" y="181.098" width="625.469" height="413.979"/>
<g>
	<radialGradient id="SVGID_1_" cx="-44.1782" cy="73.5464" r="400.3681" gradientUnits="userSpaceOnUse">
		<stop  offset="0.0121" style="stop-color:#A7A9AC"/>
		<stop  offset="0.1758" style="stop-color:#58595B"/>
		<stop  offset="0.9212" style="stop-color:#000000"/>
	</radialGradient>
	<rect x="100.384" y="210.379" fill="url(#SVGID_1_)" width="500" height="500"/>
</g>
<g>
	<g>
		<path fill="#FFFFFF" d="M42,151v595h677V151H42z M640.409,558.353c0,5.821-4.735,10.557-10.557,10.557H119.739
			c-5.821,0-10.557-4.735-10.557-10.557V229.734c0-5.821,4.735-10.556,10.557-10.556h510.113c5.821,0,10.557,4.735,10.557,10.556
			V558.353z"/>
	</g>
</g>
<g>
	<g>
		<path fill="#58595B" d="M627.971,210.379h-508.3c-10.653,0-19.287,8.666-19.287,19.355v328.618
			c0,10.69,8.634,19.355,19.287,19.355h508.3c10.652,0,19.286-8.665,19.286-19.355V229.734
			C647.257,219.045,638.623,210.379,627.971,210.379z M638.489,558.353c0,5.821-4.719,10.557-10.519,10.557h-508.3
			c-5.801,0-10.519-4.735-10.519-10.557V229.734c0-5.821,4.718-10.556,10.519-10.556h508.3c5.8,0,10.519,4.735,10.519,10.556
			V558.353z"/>
	</g>
	<g>
		<path fill="none" stroke="#000000" stroke-width="0.8782" stroke-miterlimit="10" d="M627.971,210.379h-508.3
			c-10.653,0-19.287,8.666-19.287,19.355v328.618c0,10.69,8.634,19.355,19.287,19.355h508.3c10.652,0,19.286-8.665,19.286-19.355
			V229.734C647.257,219.045,638.623,210.379,627.971,210.379z M638.489,558.353c0,5.821-4.719,10.557-10.519,10.557h-508.3
			c-5.801,0-10.519-4.735-10.519-10.557V229.734c0-5.821,4.718-10.556,10.519-10.556h508.3c5.8,0,10.519,4.735,10.519,10.556
			V558.353z"/>
	</g>
</g>
<path fill="none" stroke="#414042" stroke-width="3.5128" stroke-miterlimit="10" d="M119.675,572.076
	c-7.541,0-13.675-6.156-13.675-13.724V229.734c0-7.567,6.135-13.724,13.675-13.724h508.292c7.54,0,13.674,6.157,13.674,13.724
	v328.618c0,7.567-6.134,13.724-13.674,13.724H119.675z"/>
<rect id="ResolutionRect" x="156.062" y="264.611" display="none" fill="none" width="1024" height="600"/>
<rect id="ScreenRect" x="156.062" y="264.611" display="none" fill="#FFFFFF" width="439.638" height="257.601"/>
<path fill="none" stroke="#000000" stroke-width="1.7557" stroke-miterlimit="10" d="M119.693,568.909
	c-5.796,0-10.51-4.735-10.51-10.557V229.734c0-5.821,4.714-10.556,10.51-10.556h507.882c5.795,0,10.51,4.735,10.51,10.556v328.618
	c0,5.821-4.715,10.557-10.51,10.557H119.693z"/>
<path fill="#58595B" d="M113.72,427.733c0,2.538-1.505,4.596-3.361,4.596l0,0c-0.133-15.074,0.403-63.238,0-77.21l0,0
	c1.856,0,3.361,2.058,3.361,4.596V427.733z"/>
<linearGradient id="SVGID_2_" gradientUnits="userSpaceOnUse" x1="116.9736" y1="393.7241" x2="109.6638" y2="393.7241">
	<stop  offset="0.039" style="stop-color:#58595B"/>
	<stop  offset="1" style="stop-color:#000000"/>
</linearGradient>
<path fill="url(#SVGID_2_)" d="M112.84,427.733c0,2.538-1.505,4.596-3.361,4.596l0,0c-0.133-15.074,0.403-63.238,0-77.21l0,0
	c1.856,0,3.361,2.058,3.361,4.596V427.733z"/>
<path fill="#58595B" d="M633.456,427.733c0,2.538,1.505,4.596,3.361,4.596l0,0c0.133-15.074-0.403-63.238,0-77.21l0,0
	c-1.856,0-3.361,2.058-3.361,4.596V427.733z"/>
<linearGradient id="SVGID_3_" gradientUnits="userSpaceOnUse" x1="1866.2734" y1="393.7231" x2="1858.9636" y2="393.7231" gradientTransform="matrix(-1 0 0 1 2495.1758 0)">
	<stop  offset="0.039" style="stop-color:#58595B"/>
	<stop  offset="1" style="stop-color:#000000"/>
</linearGradient>
<path fill="url(#SVGID_3_)" d="M634.336,427.733c0,2.538,1.505,4.596,3.361,4.596l0,0c0.133-15.074-0.403-63.238,0-77.21l0,0
	c-1.856,0-3.361,2.058-3.361,4.596V427.733z"/>
<rect id="DeviceRect" x="100.197" y="210.347" display="none" fill="none" stroke="#000000" stroke-width="0.9996" stroke-miterlimit="10" width="546.713" height="367.2"/>
</svg>
